<?xml version="1.0" encoding="UTF-8"?>
<!DOCTYPE svg PUBLIC "-//W3C//DTD SVG 1.1//EN" "http://www.w3.org/Graphics/SVG/1.1/DTD/svg11.dtd">
<svg xmlns="http://www.w3.org/2000/svg" version="1.1" width="606px" height="300px" style="shape-rendering:geometricPrecision; text-rendering:geometricPrecision; image-rendering:optimizeQuality; fill-rule:evenodd; clip-rule:evenodd" xmlns:xlink="http://www.w3.org/1999/xlink">
<g><path style="opacity:0.996" fill="#d37729" d="M 89.5,-0.5 C 224.167,-0.5 358.833,-0.5 493.5,-0.5C 496.167,0.833333 498.833,0.833333 501.5,-0.5C 510.167,-0.5 518.833,-0.5 527.5,-0.5C 546.5,0.166667 565.5,0.833333 584.5,1.5C 584.5,5.5 584.5,9.5 584.5,13.5C 584.5,14.8333 584.5,16.1667 584.5,17.5C 558.844,16.433 533.178,16.2664 507.5,17C 460.155,18.7107 412.821,20.7107 365.5,23C 323.76,23.357 282.093,21.6904 240.5,18C 203.061,13.6536 165.728,8.65365 128.5,3C 115.326,2.06969 102.326,0.903028 89.5,-0.5 Z"/></g>
<g><path style="opacity:1" fill="#c46119" d="M 10.5,-0.5 C 36.8333,-0.5 63.1667,-0.5 89.5,-0.5C 102.326,0.903028 115.326,2.06969 128.5,3C 165.728,8.65365 203.061,13.6536 240.5,18C 282.093,21.6904 323.76,23.357 365.5,23C 412.821,20.7107 460.155,18.7107 507.5,17C 533.178,16.2664 558.844,16.433 584.5,17.5C 584.5,16.1667 584.5,14.8333 584.5,13.5C 585.479,16.6248 585.813,19.9581 585.5,23.5C 566.364,22.1088 547.197,21.4422 528,21.5C 459.63,22.4259 391.297,24.4259 323,27.5C 274.931,25.4605 227.098,20.9605 179.5,14C 166.072,10.4462 152.405,8.44623 138.5,8C 95.7239,6.48111 53.0573,7.98111 10.5,12.5C 8.66723,12.4146 7.3339,11.7479 6.5,10.5C 6.5,7.16667 6.5,3.83333 6.5,0.5C 8.09903,0.767809 9.43236,0.434475 10.5,-0.5 Z"/></g>
<g><path style="opacity:0.971" fill="#8c341a" d="M 584.5,1.5 C 588.907,4.73781 592.407,8.73781 595,13.5C 597.923,47.4452 599.256,81.4452 599,115.5C 596.595,116.274 594.095,116.774 591.5,117C 594.333,119.167 597.167,121.333 600,123.5C 601.91,143.142 603.41,162.808 604.5,182.5C 595.483,183.725 586.483,185.058 577.5,186.5C 566.396,185.913 555.396,184.58 544.5,182.5C 539.339,182.529 534.339,181.695 529.5,180C 544.819,177.635 560.153,175.469 575.5,173.5C 580.79,172.53 586.123,171.696 591.5,171C 593.359,170.399 593.692,169.566 592.5,168.5C 592.5,165.5 592.5,162.5 592.5,159.5C 592.813,155.958 592.479,152.625 591.5,149.5C 591.5,145.167 591.5,140.833 591.5,136.5C 591.795,134.265 591.461,132.265 590.5,130.5C 590.793,126.563 590.46,122.73 589.5,119C 581.854,117.005 574.188,115.172 566.5,113.5C 562.709,112.047 558.709,110.881 554.5,110C 555.416,109.722 556.082,109.222 556.5,108.5C 562.178,107.915 567.845,107.249 573.5,106.5C 578.485,105.752 583.485,105.085 588.5,104.5C 588.5,103.5 588.5,102.5 588.5,101.5C 588.5,98.1667 588.5,94.8333 588.5,91.5C 588.827,81.6522 588.494,71.9856 587.5,62.5C 587.777,59.5525 587.444,56.7191 586.5,54C 575.43,52.3122 564.43,50.4789 553.5,48.5C 559.857,47.6794 566.19,46.6794 572.5,45.5C 577.141,44.8734 581.807,44.5401 586.5,44.5C 586.498,37.4803 586.165,30.4803 585.5,23.5C 585.813,19.9581 585.479,16.6248 584.5,13.5C 584.5,9.5 584.5,5.5 584.5,1.5 Z"/></g>
<g><path style="opacity:1" fill="#d37729" d="M 585.5,23.5 C 586.165,30.4803 586.498,37.4803 586.5,44.5C 581.807,44.5401 577.141,44.8734 572.5,45.5C 517.637,44.988 462.804,45.988 408,48.5C 394.763,48.1596 381.596,46.993 368.5,45C 335.716,37.8137 302.716,31.8137 269.5,27C 258.833,26.3333 248.167,26.3333 237.5,27C 175.726,34.7194 113.726,37.7194 51.5,36C 44.1667,35 36.8333,34 29.5,33C 21.5688,30.5316 13.5688,28.365 5.5,26.5C 5.17859,20.9738 5.51192,15.6405 6.5,10.5C 7.3339,11.7479 8.66723,12.4146 10.5,12.5C 53.0573,7.98111 95.7239,6.48111 138.5,8C 152.405,8.44623 166.072,10.4462 179.5,14C 227.098,20.9605 274.931,25.4605 323,27.5C 391.297,24.4259 459.63,22.4259 528,21.5C 547.197,21.4422 566.364,22.1088 585.5,23.5 Z"/></g>
<g><path style="opacity:1" fill="#c46119" d="M 5.5,26.5 C 13.5688,28.365 21.5688,30.5316 29.5,33C 36.8333,34 44.1667,35 51.5,36C 113.726,37.7194 175.726,34.7194 237.5,27C 248.167,26.3333 258.833,26.3333 269.5,27C 302.716,31.8137 335.716,37.8137 368.5,45C 381.596,46.993 394.763,48.1596 408,48.5C 462.804,45.988 517.637,44.988 572.5,45.5C 566.19,46.6794 559.857,47.6794 553.5,48.5C 497.855,50.657 442.188,51.4904 386.5,51C 356.746,46.541 327.08,41.541 297.5,36C 276.26,32.9625 254.926,31.9625 233.5,33C 157.454,44.3977 81.4537,44.231 5.5,32.5C 5.5,30.5 5.5,28.5 5.5,26.5 Z"/></g>
<g><path style="opacity:1" fill="#d37729" d="M 5.5,32.5 C 81.4537,44.231 157.454,44.3977 233.5,33C 254.926,31.9625 276.26,32.9625 297.5,36C 327.08,41.541 356.746,46.541 386.5,51C 442.188,51.4904 497.855,50.657 553.5,48.5C 564.43,50.4789 575.43,52.3122 586.5,54C 587.444,56.7191 587.777,59.5525 587.5,62.5C 517.94,68.4645 448.273,70.2979 378.5,68C 327.16,62.6646 275.826,57.3312 224.5,52C 205.833,51.3333 187.167,51.3333 168.5,52C 119.707,55.2203 71.04,56.0536 22.5,54.5C 26.4185,53.5584 30.4185,52.8918 34.5,52.5C 46.1759,51.1417 57.8426,49.6417 69.5,48C 48.1346,44.6057 26.8013,41.1057 5.5,37.5C 5.5,35.8333 5.5,34.1667 5.5,32.5 Z"/></g>
<g><path style="opacity:0.97" fill="#8b341a" d="M 5.5,37.5 C 26.8013,41.1057 48.1346,44.6057 69.5,48C 57.8426,49.6417 46.1759,51.1417 34.5,52.5C 28.3627,51.0224 22.0293,49.8558 15.5,49C 11.8333,45.3333 8.16667,41.6667 4.5,38C 4.72845,37.6012 5.06178,37.4346 5.5,37.5 Z"/></g>
<g><path style="opacity:1" fill="#c36119" d="M 587.5,62.5 C 588.494,71.9856 588.827,81.6522 588.5,91.5C 577.437,91.8381 566.437,92.8381 555.5,94.5C 566.371,97.4012 577.371,99.7346 588.5,101.5C 588.5,102.5 588.5,103.5 588.5,104.5C 583.485,105.085 578.485,105.752 573.5,106.5C 565.069,104.411 556.735,101.578 548.5,98C 546.671,96.8867 545.837,95.3867 546,93.5C 548.344,91.2256 551.178,90.0589 554.5,90C 565.466,88.6929 576.466,87.8596 587.5,87.5C 587.5,80.1667 587.5,72.8333 587.5,65.5C 534.281,70.7319 480.948,74.3986 427.5,76.5C 415.145,76.4857 402.812,75.9857 390.5,75C 333.226,68.7827 275.893,63.116 218.5,58C 204.007,57.292 189.507,56.792 175,56.5C 136.017,58.083 97.0171,59.083 58,59.5C 40.7942,59.6213 23.6276,58.9546 6.5,57.5C 6.81277,61.0419 6.47944,64.3752 5.5,67.5C 5.5,63.8333 5.5,60.1667 5.5,56.5C 11.1162,55.4598 16.7829,54.7931 22.5,54.5C 71.04,56.0536 119.707,55.2203 168.5,52C 187.167,51.3333 205.833,51.3333 224.5,52C 275.826,57.3312 327.16,62.6646 378.5,68C 448.273,70.2979 517.94,68.4645 587.5,62.5 Z"/></g>
<g><path style="opacity:1" fill="#d37729" d="M 573.5,106.5 C 567.845,107.249 562.178,107.915 556.5,108.5C 544.217,106.746 531.884,105.246 519.5,104C 445.904,103.378 372.571,98.7114 299.5,90C 276.383,86.4606 253.383,82.4606 230.5,78C 194.433,76.0037 158.433,77.0037 122.5,81C 83.4207,85.2938 44.4207,89.7938 5.5,94.5C 5.5,85.5 5.5,76.5 5.5,67.5C 6.47944,64.3752 6.81277,61.0419 6.5,57.5C 23.6276,58.9546 40.7942,59.6213 58,59.5C 97.0171,59.083 136.017,58.083 175,56.5C 189.507,56.792 204.007,57.292 218.5,58C 275.893,63.116 333.226,68.7827 390.5,75C 402.812,75.9857 415.145,76.4857 427.5,76.5C 480.948,74.3986 534.281,70.7319 587.5,65.5C 587.5,72.8333 587.5,80.1667 587.5,87.5C 576.466,87.8596 565.466,88.6929 554.5,90C 551.178,90.0589 548.344,91.2256 546,93.5C 545.837,95.3867 546.671,96.8867 548.5,98C 556.735,101.578 565.069,104.411 573.5,106.5 Z"/></g>
<g><path style="opacity:1" fill="#c36119" d="M 556.5,108.5 C 556.082,109.222 555.416,109.722 554.5,110C 558.709,110.881 562.709,112.047 566.5,113.5C 551.866,111.474 537.199,109.64 522.5,108C 461.77,107.968 401.103,105.968 340.5,102C 331.796,101.329 323.129,100.329 314.5,99C 285.523,92.2817 256.19,87.9483 226.5,86C 194.472,85.2081 162.472,85.8747 130.5,88C 88.8862,92.1922 47.2195,95.6922 5.5,98.5C 5.78448,100.415 5.45115,102.081 4.5,103.5C 4.19,100.287 4.52333,97.2869 5.5,94.5C 44.4207,89.7938 83.4207,85.2938 122.5,81C 158.433,77.0037 194.433,76.0037 230.5,78C 253.383,82.4606 276.383,86.4606 299.5,90C 372.571,98.7114 445.904,103.378 519.5,104C 531.884,105.246 544.217,106.746 556.5,108.5 Z"/></g>
<g><path style="opacity:1" fill="#d37729" d="M 566.5,113.5 C 574.188,115.172 581.854,117.005 589.5,119C 590.46,122.73 590.793,126.563 590.5,130.5C 574.953,128.007 559.286,126.507 543.5,126C 486.169,126.362 428.836,126.362 371.5,126C 315.131,124.27 259.131,118.936 203.5,110C 167.19,107.157 130.856,106.824 94.5,109C 65.4469,111.004 36.4469,113.504 7.5,116.5C 6.5041,116.586 5.67076,116.252 5,115.5C 4.50115,111.514 4.33449,107.514 4.5,103.5C 5.45115,102.081 5.78448,100.415 5.5,98.5C 47.2195,95.6922 88.8862,92.1922 130.5,88C 162.472,85.8747 194.472,85.2081 226.5,86C 256.19,87.9483 285.523,92.2817 314.5,99C 323.129,100.329 331.796,101.329 340.5,102C 401.103,105.968 461.77,107.968 522.5,108C 537.199,109.64 551.866,111.474 566.5,113.5 Z"/></g>
<g><path style="opacity:1" fill="#d27628" d="M 588.5,91.5 C 588.5,94.8333 588.5,98.1667 588.5,101.5C 577.371,99.7346 566.371,97.4012 555.5,94.5C 566.437,92.8381 577.437,91.8381 588.5,91.5 Z"/></g>
<g><path style="opacity:1" fill="#c36118" d="M 590.5,130.5 C 591.461,132.265 591.795,134.265 591.5,136.5C 587.177,134.193 582.51,132.693 577.5,132C 569.217,130.59 560.883,129.59 552.5,129C 501.998,129.357 451.498,130.19 401,131.5C 377.154,131.508 353.321,131.008 329.5,130C 266.566,124.279 203.566,119.279 140.5,115C 101.804,115.062 63.1371,116.395 24.5,119C 23.5842,119.278 22.9175,119.778 22.5,120.5C 17.353,119.298 12.353,117.965 7.5,116.5C 36.4469,113.504 65.4469,111.004 94.5,109C 130.856,106.824 167.19,107.157 203.5,110C 259.131,118.936 315.131,124.27 371.5,126C 428.836,126.362 486.169,126.362 543.5,126C 559.286,126.507 574.953,128.007 590.5,130.5 Z"/></g>
<g><path style="opacity:1" fill="#d37729" d="M 591.5,136.5 C 591.5,140.833 591.5,145.167 591.5,149.5C 591.5,151.167 591.5,152.833 591.5,154.5C 561.515,150.339 531.515,146.172 501.5,142C 457.421,141.357 413.421,143.024 369.5,147C 346.5,147.667 323.5,147.667 300.5,147C 256.053,142.577 211.72,137.244 167.5,131C 153.833,130.333 140.167,130.333 126.5,131C 97.8333,133 69.1667,135 40.5,137C 27.5043,137.5 14.5043,137.667 1.5,137.5C 2.0508,134.193 2.38413,130.86 2.5,127.5C 9.97461,126.462 17.3079,124.462 24.5,121.5C 24.0431,120.702 23.3764,120.369 22.5,120.5C 22.9175,119.778 23.5842,119.278 24.5,119C 63.1371,116.395 101.804,115.062 140.5,115C 203.566,119.279 266.566,124.279 329.5,130C 353.321,131.008 377.154,131.508 401,131.5C 451.498,130.19 501.998,129.357 552.5,129C 560.883,129.59 569.217,130.59 577.5,132C 582.51,132.693 587.177,134.193 591.5,136.5 Z"/></g>
<g><path style="opacity:0.889" fill="#923a1a" d="M 5.5,56.5 C 5.5,60.1667 5.5,63.8333 5.5,67.5C 5.5,76.5 5.5,85.5 5.5,94.5C 4.52333,97.2869 4.19,100.287 4.5,103.5C 4.33449,107.514 4.50115,111.514 5,115.5C 5.67076,116.252 6.5041,116.586 7.5,116.5C 12.353,117.965 17.353,119.298 22.5,120.5C 23.3764,120.369 24.0431,120.702 24.5,121.5C 17.3079,124.462 9.97461,126.462 2.5,127.5C 1.54885,126.081 1.21552,124.415 1.5,122.5C 5.18174,122.665 8.84841,122.499 12.5,122C 8.99614,120.082 5.66281,117.916 2.5,115.5C 3.74102,95.7166 4.74102,76.05 5.5,56.5 Z"/></g>
<g><path style="opacity:1" fill="#c46119" d="M 591.5,149.5 C 592.479,152.625 592.813,155.958 592.5,159.5C 575.746,157.208 559.08,154.374 542.5,151C 508.849,149.459 475.183,149.126 441.5,150C 403.537,152.604 365.537,153.938 327.5,154C 267.984,149.811 208.651,143.811 149.5,136C 135.167,135.333 120.833,135.333 106.5,136C 71.556,138.908 36.556,140.742 1.5,141.5C 1.5,140.167 1.5,138.833 1.5,137.5C 14.5043,137.667 27.5043,137.5 40.5,137C 69.1667,135 97.8333,133 126.5,131C 140.167,130.333 153.833,130.333 167.5,131C 211.72,137.244 256.053,142.577 300.5,147C 323.5,147.667 346.5,147.667 369.5,147C 413.421,143.024 457.421,141.357 501.5,142C 531.515,146.172 561.515,150.339 591.5,154.5C 591.5,152.833 591.5,151.167 591.5,149.5 Z"/></g>
<g><path style="opacity:1" fill="#d37729" d="M 592.5,159.5 C 592.5,162.5 592.5,165.5 592.5,168.5C 545.43,160.014 498.264,159.347 451,166.5C 447.679,168.361 447.845,170.194 451.5,172C 472.84,179.086 494.506,185.086 516.5,190C 522.167,190.667 527.833,190.667 533.5,190C 549.425,187.068 565.425,186.735 581.5,189C 584.177,189.168 586.51,190.001 588.5,191.5C 589.092,194.127 589.425,196.794 589.5,199.5C 588.726,200.147 587.726,200.48 586.5,200.5C 575.209,199.135 563.876,198.302 552.5,198C 510.166,200.569 468.832,195.569 428.5,183C 393.053,179.385 358.053,173.385 323.5,165C 308.81,161.798 294.144,161.798 279.5,165C 271.83,167.237 265.997,171.737 262,178.5C 263.675,192.666 257.509,200.833 243.5,203C 207.802,208.508 172.135,214.175 136.5,220C 115.196,222.49 93.8628,222.99 72.5,221.5C 56.7007,215.685 41.7007,208.352 27.5,199.5C 89.356,205.153 150.689,201.653 211.5,189C 220.224,187.369 228.057,183.869 235,178.5C 235.667,177.5 235.667,176.5 235,175.5C 226.916,167.204 217.416,161.038 206.5,157C 178.572,150.067 150.238,147.4 121.5,149C 100.212,152.328 78.8786,155.328 57.5,158C 38.7961,158.766 20.1294,158.266 1.5,156.5C 1.5,151.5 1.5,146.5 1.5,141.5C 36.556,140.742 71.556,138.908 106.5,136C 120.833,135.333 135.167,135.333 149.5,136C 208.651,143.811 267.984,149.811 327.5,154C 365.537,153.938 403.537,152.604 441.5,150C 475.183,149.126 508.849,149.459 542.5,151C 559.08,154.374 575.746,157.208 592.5,159.5 Z"/></g>
<g><path style="opacity:1" fill="#c36119" d="M 27.5,199.5 C 19.1476,198.496 10.8143,197.329 2.5,196C 0.749986,194.246 0.0833195,192.079 0.5,189.5C 4.13523,190.114 7.8019,190.448 11.5,190.5C 31.0583,195.949 51.0583,198.282 71.5,197.5C 119.14,196.713 166.473,192.546 213.5,185C 219.617,184.187 225.117,182.021 230,178.5C 230.667,177.167 230.667,175.833 230,174.5C 222.362,168.261 213.862,163.428 204.5,160C 197.999,157.833 191.332,156.499 184.5,156C 166.167,155.333 147.833,155.333 129.5,156C 105.531,158.73 81.5311,161.064 57.5,163C 38.7864,163.875 20.1197,163.375 1.5,161.5C 1.5,159.833 1.5,158.167 1.5,156.5C 20.1294,158.266 38.7961,158.766 57.5,158C 78.8786,155.328 100.212,152.328 121.5,149C 150.238,147.4 178.572,150.067 206.5,157C 217.416,161.038 226.916,167.204 235,175.5C 235.667,176.5 235.667,177.5 235,178.5C 228.057,183.869 220.224,187.369 211.5,189C 150.689,201.653 89.356,205.153 27.5,199.5 Z"/></g>
<g><path style="opacity:0.999" fill="#d37729" d="M 11.5,190.5 C 7.81697,186.82 3.81697,183.486 -0.5,180.5C -0.5,180.167 -0.5,179.833 -0.5,179.5C 0.166667,171.833 0.833333,164.167 1.5,156.5C 1.5,158.167 1.5,159.833 1.5,161.5C 20.1197,163.375 38.7864,163.875 57.5,163C 81.5311,161.064 105.531,158.73 129.5,156C 147.833,155.333 166.167,155.333 184.5,156C 191.332,156.499 197.999,157.833 204.5,160C 213.862,163.428 222.362,168.261 230,174.5C 230.667,175.833 230.667,177.167 230,178.5C 225.117,182.021 219.617,184.187 213.5,185C 166.473,192.546 119.14,196.713 71.5,197.5C 51.0583,198.282 31.0583,195.949 11.5,190.5 Z"/></g>
<g><path style="opacity:1" fill="#c36118" d="M 589.5,199.5 C 590.434,200.568 590.768,201.901 590.5,203.5C 560.185,202.706 529.852,202.206 499.5,202C 461.964,195.244 424.297,189.244 386.5,184C 363.238,178.351 339.905,173.018 316.5,168C 303.297,166.714 290.297,167.714 277.5,171C 271.256,172.255 267.589,175.921 266.5,182C 267.453,186.813 267.62,191.646 267,196.5C 265.5,198.667 263.667,200.5 261.5,202C 256.167,204 250.833,206 245.5,208C 195.244,220.483 144.244,226.983 92.5,227.5C 80.0984,227.698 67.7651,226.865 55.5,225C 36.9427,221.687 18.6093,217.52 0.5,212.5C 0.5,211.5 0.5,210.5 0.5,209.5C 24.199,215.228 48.199,219.228 72.5,221.5C 93.8628,222.99 115.196,222.49 136.5,220C 172.135,214.175 207.802,208.508 243.5,203C 257.509,200.833 263.675,192.666 262,178.5C 265.997,171.737 271.83,167.237 279.5,165C 294.144,161.798 308.81,161.798 323.5,165C 358.053,173.385 393.053,179.385 428.5,183C 468.832,195.569 510.166,200.569 552.5,198C 563.876,198.302 575.209,199.135 586.5,200.5C 587.726,200.48 588.726,200.147 589.5,199.5 Z"/></g>
<g><path style="opacity:1" fill="#c36119" d="M 592.5,168.5 C 593.692,169.566 593.359,170.399 591.5,171C 586.123,171.696 580.79,172.53 575.5,173.5C 575.611,172.883 575.944,172.383 576.5,172C 537.244,165.795 497.911,164.962 458.5,169.5C 472.346,173.964 486.346,178.131 500.5,182C 510.254,183.774 520.087,184.608 530,184.5C 535.216,184.494 540.049,183.827 544.5,182.5C 555.396,184.58 566.396,185.913 577.5,186.5C 580.326,187.343 583.326,188.009 586.5,188.5C 587.713,188.747 588.38,189.414 588.5,190.5C 588.5,190.833 588.5,191.167 588.5,191.5C 586.51,190.001 584.177,189.168 581.5,189C 565.425,186.735 549.425,187.068 533.5,190C 527.833,190.667 522.167,190.667 516.5,190C 494.506,185.086 472.84,179.086 451.5,172C 447.845,170.194 447.679,168.361 451,166.5C 498.264,159.347 545.43,160.014 592.5,168.5 Z"/></g>
<g><path style="opacity:1" fill="#d37729" d="M 575.5,173.5 C 560.153,175.469 544.819,177.635 529.5,180C 534.339,181.695 539.339,182.529 544.5,182.5C 540.049,183.827 535.216,184.494 530,184.5C 520.087,184.608 510.254,183.774 500.5,182C 486.346,178.131 472.346,173.964 458.5,169.5C 497.911,164.962 537.244,165.795 576.5,172C 575.944,172.383 575.611,172.883 575.5,173.5 Z"/></g>
<g><path style="opacity:1" fill="#d37729" d="M 590.5,203.5 C 591.913,206.219 592.58,209.219 592.5,212.5C 591.167,212.5 589.833,212.5 588.5,212.5C 574.861,213.895 561.194,215.062 547.5,216C 553.22,217.21 558.887,218.543 564.5,220C 560.031,221.433 555.698,222.933 551.5,224.5C 538.588,221.919 525.921,218.419 513.5,214C 456.178,205.13 398.512,201.463 340.5,203C 299.124,213.518 258.791,227.184 219.5,244C 211.856,245.995 204.189,247.828 196.5,249.5C 160.785,246.567 126.119,239.234 92.5,227.5C 144.244,226.983 195.244,220.483 245.5,208C 250.833,206 256.167,204 261.5,202C 263.667,200.5 265.5,198.667 267,196.5C 267.62,191.646 267.453,186.813 266.5,182C 267.589,175.921 271.256,172.255 277.5,171C 290.297,167.714 303.297,166.714 316.5,168C 339.905,173.018 363.238,178.351 386.5,184C 424.297,189.244 461.964,195.244 499.5,202C 529.852,202.206 560.185,202.706 590.5,203.5 Z"/></g>
<g><path style="opacity:0.971" fill="#8b341a" d="M 588.5,190.5 C 592.498,193.665 595.998,197.332 599,201.5C 600.695,208.808 602.195,216.141 603.5,223.5C 601.436,223.687 599.436,224.187 597.5,225C 600.036,227.705 602.703,230.205 605.5,232.5C 605.5,250.5 605.5,268.5 605.5,286.5C 604.517,290.298 604.183,294.298 604.5,298.5C 498.326,294.221 392.326,294.554 286.5,299.5C 237.167,299.5 187.833,299.5 138.5,299.5C 97.9677,298.241 57.3011,296.408 16.5,294C 12.6295,290.298 8.96287,286.464 5.5,282.5C 70.4123,286.641 135.412,288.641 200.5,288.5C 280.985,286.372 361.485,285.039 442,284.5C 492.512,284.424 543.012,285.091 593.5,286.5C 594.296,270.847 594.629,255.18 594.5,239.5C 594.5,237.833 594.5,236.167 594.5,234.5C 594.5,230.5 594.5,226.5 594.5,222.5C 585.722,222.099 577.056,220.932 568.5,219C 575.373,217.097 582.04,214.93 588.5,212.5C 589.833,212.5 591.167,212.5 592.5,212.5C 592.58,209.219 591.913,206.219 590.5,203.5C 590.768,201.901 590.434,200.568 589.5,199.5C 589.425,196.794 589.092,194.127 588.5,191.5C 588.5,191.167 588.5,190.833 588.5,190.5 Z"/></g>
<g><path style="opacity:0.882" fill="#8d3619" d="M 3.5,202.5 C 5.65472,202.372 7.65472,202.872 9.5,204C 6.23209,205.15 2.89876,205.984 -0.5,206.5C -0.5,206.167 -0.5,205.833 -0.5,205.5C 1.23033,204.974 2.56366,203.974 3.5,202.5 Z"/></g>
<g><path style="opacity:1" fill="#c36018" d="M 551.5,224.5 C 565.545,228.927 579.879,232.261 594.5,234.5C 594.5,236.167 594.5,237.833 594.5,239.5C 575.673,235.807 557.006,231.474 538.5,226.5C 508.443,217.99 477.777,212.824 446.5,211C 411.528,208.796 376.528,208.129 341.5,209C 326.461,212.843 311.461,216.843 296.5,221C 268.286,232.46 239.619,242.627 210.5,251.5C 195.706,255.781 180.706,259.281 165.5,262C 129.282,264.322 93.2816,262.322 57.5,256C 38.3973,252.595 19.3973,248.761 0.5,244.5C 0.166667,244.5 -0.166667,244.5 -0.5,244.5C -0.5,244.167 -0.5,243.833 -0.5,243.5C 0.161445,242.282 0.828112,240.949 1.5,239.5C 65.9082,257.673 130.908,261.007 196.5,249.5C 204.189,247.828 211.856,245.995 219.5,244C 258.791,227.184 299.124,213.518 340.5,203C 398.512,201.463 456.178,205.13 513.5,214C 525.921,218.419 538.588,221.919 551.5,224.5 Z"/></g>
<g><path style="opacity:1" fill="#d37729" d="M 538.5,226.5 C 529.587,229.417 520.587,232.084 511.5,234.5C 503.517,233.335 495.517,232.168 487.5,231C 465.783,229.952 444.117,228.286 422.5,226C 407.663,222.249 392.663,219.249 377.5,217C 361.549,214.819 346.216,216.819 331.5,223C 325.116,228.385 318.45,233.385 311.5,238C 300.85,240.426 290.183,242.759 279.5,245C 274.147,247.18 270.813,251.013 269.5,256.5C 249.562,256.272 229.895,254.606 210.5,251.5C 239.619,242.627 268.286,232.46 296.5,221C 311.461,216.843 326.461,212.843 341.5,209C 376.528,208.129 411.528,208.796 446.5,211C 477.777,212.824 508.443,217.99 538.5,226.5 Z"/></g>
<g><path style="opacity:0.998" fill="#c86b28" d="M -0.5,180.5 C 3.81697,183.486 7.81697,186.82 11.5,190.5C 7.8019,190.448 4.13523,190.114 0.5,189.5C 0.0833195,192.079 0.749986,194.246 2.5,196C 10.8143,197.329 19.1476,198.496 27.5,199.5C 41.7007,208.352 56.7007,215.685 72.5,221.5C 48.199,219.228 24.199,215.228 0.5,209.5C 0.5,210.5 0.5,211.5 0.5,212.5C 18.6093,217.52 36.9427,221.687 55.5,225C 67.7651,226.865 80.0984,227.698 92.5,227.5C 126.119,239.234 160.785,246.567 196.5,249.5C 130.908,261.007 65.9082,257.673 1.5,239.5C 0.828112,240.949 0.161445,242.282 -0.5,243.5C -0.5,231.167 -0.5,218.833 -0.5,206.5C 2.89876,205.984 6.23209,205.15 9.5,204C 7.65472,202.872 5.65472,202.372 3.5,202.5C 2.32855,201.655 0.995216,200.989 -0.5,200.5C -0.5,193.833 -0.5,187.167 -0.5,180.5 Z"/></g>
<g><path style="opacity:0.998" fill="#c86b28" d="M 588.5,212.5 C 582.04,214.93 575.373,217.097 568.5,219C 577.056,220.932 585.722,222.099 594.5,222.5C 594.5,226.5 594.5,230.5 594.5,234.5C 579.879,232.261 565.545,228.927 551.5,224.5C 555.698,222.933 560.031,221.433 564.5,220C 558.887,218.543 553.22,217.21 547.5,216C 561.194,215.062 574.861,213.895 588.5,212.5 Z"/></g>
<g><path style="opacity:1" fill="#c36119" d="M 511.5,234.5 C 526.739,237.269 541.405,242.103 555.5,249C 561.136,254.123 560.136,257.79 552.5,260C 539.372,263.475 526.039,265.808 512.5,267C 490.885,269.195 469.219,270.528 447.5,271C 430.172,274.665 412.839,278.332 395.5,282C 384.833,282.667 374.167,282.667 363.5,282C 339.206,278.449 314.873,275.115 290.5,272C 282.862,270.098 276.362,266.264 271,260.5C 270.209,259.255 269.709,257.922 269.5,256.5C 270.813,251.013 274.147,247.18 279.5,245C 290.183,242.759 300.85,240.426 311.5,238C 318.45,233.385 325.116,228.385 331.5,223C 346.216,216.819 361.549,214.819 377.5,217C 392.663,219.249 407.663,222.249 422.5,226C 444.117,228.286 465.783,229.952 487.5,231C 495.517,232.168 503.517,233.335 511.5,234.5 Z"/></g>
<g><path style="opacity:1" fill="#d37729" d="M 494.5,237.5 C 423.259,252.037 351.259,258.704 278.5,257.5C 277.114,252.984 278.781,249.817 283.5,248C 295.063,244.828 306.73,242.161 318.5,240C 322.8,236.702 326.8,233.035 330.5,229C 334.453,226.19 338.787,224.19 343.5,223C 366.664,221.548 389.664,222.881 412.5,227C 421.696,229.632 431.03,231.632 440.5,233C 458.659,234.441 476.659,235.941 494.5,237.5 Z"/></g>
<g><path style="opacity:0.998" fill="#c86b28" d="M 538.5,226.5 C 557.006,231.474 575.673,235.807 594.5,239.5C 594.629,255.18 594.296,270.847 593.5,286.5C 543.012,285.091 492.512,284.424 442,284.5C 361.485,285.039 280.985,286.372 200.5,288.5C 135.412,288.641 70.4123,286.641 5.5,282.5C 2.67908,279.885 1.34575,276.885 1.5,273.5C 6.84165,271.746 11.675,269.079 16,265.5C 15.5735,262.879 14.0735,260.879 11.5,259.5C 8.21978,257.86 4.88645,256.193 1.5,254.5C 0.512978,251.232 0.179644,247.898 0.5,244.5C 19.3973,248.761 38.3973,252.595 57.5,256C 93.2816,262.322 129.282,264.322 165.5,262C 180.706,259.281 195.706,255.781 210.5,251.5C 229.895,254.606 249.562,256.272 269.5,256.5C 269.709,257.922 270.209,259.255 271,260.5C 276.362,266.264 282.862,270.098 290.5,272C 314.873,275.115 339.206,278.449 363.5,282C 374.167,282.667 384.833,282.667 395.5,282C 412.839,278.332 430.172,274.665 447.5,271C 469.219,270.528 490.885,269.195 512.5,267C 526.039,265.808 539.372,263.475 552.5,260C 560.136,257.79 561.136,254.123 555.5,249C 541.405,242.103 526.739,237.269 511.5,234.5C 520.587,232.084 529.587,229.417 538.5,226.5 Z"/></g>
<g><path style="opacity:1" fill="#c86b28" d="M 494.5,237.5 C 509.894,237.723 524.894,240.223 539.5,245C 544.567,246.37 546.733,249.537 546,254.5C 538.807,257.565 531.307,259.732 523.5,261C 514.486,262.252 505.486,263.585 496.5,265C 479.167,265.333 461.833,265.667 444.5,266C 429.151,269.34 413.818,272.674 398.5,276C 388.833,276.667 379.167,276.667 369.5,276C 347.91,273.77 326.243,272.437 304.5,272C 295.012,271.953 286.845,268.787 280,262.5C 278.991,260.975 278.491,259.308 278.5,257.5C 351.259,258.704 423.259,252.037 494.5,237.5 Z"/></g>
<g><path style="opacity:0.859" fill="#90361a" d="M 11.5,259.5 C 14.0735,260.879 15.5735,262.879 16,265.5C 11.675,269.079 6.84165,271.746 1.5,273.5C 4.77104,270.732 7.93771,267.732 11,264.5C 11.4935,262.866 11.6602,261.199 11.5,259.5 Z"/></g>
</svg>
