<?xml version="1.0" encoding="UTF-8"?>
<!DOCTYPE svg PUBLIC "-//W3C//DTD SVG 1.1//EN" "http://www.w3.org/Graphics/SVG/1.1/DTD/svg11.dtd">
<svg xmlns="http://www.w3.org/2000/svg" version="1.1" width="500px" height="500px" style="shape-rendering:geometricPrecision; text-rendering:geometricPrecision; image-rendering:optimizeQuality; fill-rule:evenodd; clip-rule:evenodd" xmlns:xlink="http://www.w3.org/1999/xlink">
<g><path style="opacity:1" fill="#feac3d" d="M -0.5,-0.5 C 166.167,-0.5 332.833,-0.5 499.5,-0.5C 499.5,166.167 499.5,332.833 499.5,499.5C 332.833,499.5 166.167,499.5 -0.5,499.5C -0.5,332.833 -0.5,166.167 -0.5,-0.5 Z"/></g>
<g><path style="opacity:1" fill="#fef9f3" d="M 253.5,105.5 C 250.893,101.654 249.227,102.32 248.5,107.5C 247.883,107.611 247.383,107.944 247,108.5C 246.506,106.866 246.34,105.199 246.5,103.5C 242.473,103.719 241.806,102.552 244.5,100C 240.61,96.2015 241.443,95.0348 247,96.5C 248.331,95.0042 249.831,93.6709 251.5,92.5C 252.429,93.6888 252.762,95.0222 252.5,96.5C 257.322,96.5605 257.655,97.7272 253.5,100C 257.275,102.244 257.275,104.077 253.5,105.5 Z"/></g>
<g><path style="opacity:1" fill="#447cbe" d="M 402.5,92.5 C 403.461,94.2646 403.795,96.2646 403.5,98.5C 405.199,98.3398 406.866,98.5065 408.5,99C 403.75,100.807 403.417,103.14 407.5,106C 403.88,105.852 401.38,107.352 400,110.5C 398.701,106.072 396.367,105.405 393,108.5C 392.86,106.744 393.36,105.078 394.5,103.5C 393.167,102.5 391.833,101.5 390.5,100.5C 392.287,99.684 393.954,98.684 395.5,97.5C 394.153,92.8221 395.32,92.4887 399,96.5C 400.376,95.2949 401.542,93.9616 402.5,92.5 Z"/></g>
<g><path style="opacity:1" fill="#fffbf5" d="M 416.5,94.5 C 421.835,94.005 424.335,96.3384 424,101.5C 421,105.5 418,105.5 415,101.5C 414.167,98.829 414.667,96.4957 416.5,94.5 Z"/></g>
<g><path style="opacity:1" fill="#327bc5" d="M 253.5,105.5 C 254.167,106.5 254.833,107.5 255.5,108.5C 253.628,110.604 251.295,111.937 248.5,112.5C 248.5,110.833 248.5,109.167 248.5,107.5C 249.227,102.32 250.893,101.654 253.5,105.5 Z"/></g>
<g><path style="opacity:1" fill="#f6f8fa" d="M 255.5,108.5 C 257.218,110.223 258.551,112.223 259.5,114.5C 256.12,116.74 252.454,118.407 248.5,119.5C 248.5,117.167 248.5,114.833 248.5,112.5C 251.295,111.937 253.628,110.604 255.5,108.5 Z"/></g>
<g><path style="opacity:1" fill="#2b77c3" d="M 259.5,114.5 C 261.156,116.46 262.823,118.46 264.5,120.5C 262.879,122.117 260.879,123.284 258.5,124C 255.183,124.498 251.85,124.665 248.5,124.5C 248.5,122.833 248.5,121.167 248.5,119.5C 252.454,118.407 256.12,116.74 259.5,114.5 Z"/></g>
<g><path style="opacity:1" fill="#fffaf4" d="M 410.5,114.5 C 416.168,113.671 418.668,116.005 418,121.5C 415,125.5 412,125.5 409,121.5C 408.167,118.829 408.667,116.496 410.5,114.5 Z"/></g>
<g><path style="opacity:1" fill="#605753" d="M 403.5,120.5 C 395.642,119.524 387.976,118.191 380.5,116.5C 388.953,113.204 396.62,114.537 403.5,120.5 Z"/></g>
<g><path style="opacity:1" fill="#417cc0" d="M 434.5,114.5 C 435.451,115.919 435.784,117.585 435.5,119.5C 437.288,119.215 438.955,119.548 440.5,120.5C 439.019,121.48 437.685,122.647 436.5,124C 440.698,128.49 439.698,129.657 433.5,127.5C 433.762,128.978 433.429,130.311 432.5,131.5C 431.751,129.988 430.584,128.988 429,128.5C 424.289,130.341 423.455,129.341 426.5,125.5C 425.636,123.803 424.303,122.637 422.5,122C 424.025,120.991 425.692,120.491 427.5,120.5C 425.881,114.953 427.047,114.286 431,118.5C 432.376,117.295 433.542,115.962 434.5,114.5 Z"/></g>
<g><path style="opacity:1" fill="#fffdfc" d="M 380.5,116.5 C 387.976,118.191 395.642,119.524 403.5,120.5C 404.097,120.735 404.43,121.235 404.5,122C 403.244,123.845 402.244,125.845 401.5,128C 406.821,142.145 406.654,156.312 401,170.5C 393.467,188.369 381.301,202.202 364.5,212C 351.171,219.166 337.171,224.666 322.5,228.5C 314.813,228.232 309.313,224.566 306,217.5C 306.013,228.004 311.179,232.004 321.5,229.5C 311.968,249.379 298.635,266.379 281.5,280.5C 286,289.5 290.5,298.5 295,307.5C 297.158,308.826 298.992,310.493 300.5,312.5C 306.768,307.374 313.768,306.208 321.5,309C 324.879,310.107 328.046,311.607 331,313.5C 338.306,310.49 345.806,309.824 353.5,311.5C 359.512,305.74 366.512,304.073 374.5,306.5C 375.501,287.475 385.501,279.641 404.5,283C 409.551,285.72 412.718,289.887 414,295.5C 414.499,300.155 414.666,304.821 414.5,309.5C 416.954,309.321 419.121,309.987 421,311.5C 439.499,303.744 453.499,308.744 463,326.5C 467.779,338.917 467.612,351.251 462.5,363.5C 466.947,373.855 466.113,383.855 460,393.5C 452.255,400.731 443.088,403.231 432.5,401C 426.429,399.714 420.929,397.214 416,393.5C 411.396,400.802 404.729,404.135 396,403.5C 388.747,403.531 382.747,400.865 378,395.5C 369.677,398.417 361.51,398.083 353.5,394.5C 341.476,400.886 330.476,399.553 320.5,390.5C 317.117,396.193 312.117,399.36 305.5,400C 294.73,402.46 285.397,399.96 277.5,392.5C 272.897,396.636 267.563,399.469 261.5,401C 252.544,402.025 243.71,401.525 235,399.5C 228.548,407.874 220.048,410.707 209.5,408C 204.462,405.959 200.295,402.793 197,398.5C 192.154,399.808 187.32,399.808 182.5,398.5C 178.717,405.455 172.883,408.789 165,408.5C 156.29,409.145 149.623,405.812 145,398.5C 136.506,400.736 128.673,399.402 121.5,394.5C 112.633,399.349 103.633,399.682 94.5,395.5C 88.494,398.166 82.494,398.166 76.5,395.5C 69.4324,401.852 61.0991,404.019 51.5,402C 42.0681,397.99 36.9015,390.823 36,380.5C 35.3333,356.833 35.3333,333.167 36,309.5C 35.1322,285.184 46.2989,276.684 69.5,284C 72.3333,285.5 74.5,287.667 76,290.5C 77.3507,296.072 77.8507,301.738 77.5,307.5C 80.1667,307.5 82.8333,307.5 85.5,307.5C 85.0449,296.793 89.7116,289.293 99.5,285C 116.027,281.402 125.527,287.235 128,302.5C 128.667,298.833 128.667,295.167 128,291.5C 123.544,283.257 120.211,274.59 118,265.5C 117.229,257.47 117.396,249.47 118.5,241.5C 118.167,240.833 117.833,240.167 117.5,239.5C 103.635,235.645 95.9686,226.645 94.5,212.5C 89.673,212.012 86.673,209.345 85.5,204.5C 87.1329,200.434 88.4663,196.268 89.5,192C 89.3552,190.774 89.0219,189.607 88.5,188.5C 89.0016,187.479 89.6683,187.312 90.5,188C 94.4217,191.251 97.5883,195.084 100,199.5C 100.999,204.338 100.166,208.838 97.5,213C 101.623,223.623 108.956,231.123 119.5,235.5C 122.465,231.008 125.299,226.341 128,221.5C 135.252,211.617 144.752,204.783 156.5,201C 164.814,199.95 172.814,197.784 180.5,194.5C 180.833,193.833 181.167,193.167 181.5,192.5C 173.742,168.854 181.409,152.687 204.5,144C 218.35,142.117 230.35,145.95 240.5,155.5C 242.534,154.441 244.534,153.441 246.5,152.5C 246.5,154.167 246.5,155.833 246.5,157.5C 259.53,155.077 272.197,151.744 284.5,147.5C 296.106,150.135 306.106,155.635 314.5,164C 324.578,170.584 335.578,173.251 347.5,172C 357.873,169.32 367.873,165.654 377.5,161C 380.28,159.188 382.78,157.021 385,154.5C 384.641,146.725 383.474,139.058 381.5,131.5C 383.335,130.878 384.502,129.544 385,127.5C 387.301,137.741 390.634,138.074 395,128.5C 395.17,130.715 395.837,132.715 397,134.5C 398.808,131.647 398.975,128.647 397.5,125.5C 395.994,124.253 394.494,124.253 393,125.5C 392,127.5 391,129.5 390,131.5C 389.667,129.5 389.333,127.5 389,125.5C 387.522,122.007 385.522,121.674 383,124.5C 382.209,125.745 381.709,127.078 381.5,128.5C 379.838,124.554 379.504,120.554 380.5,116.5 Z"/></g>
<g><path style="opacity:1" fill="#f3f5f8" d="M 248.5,119.5 C 248.5,121.167 248.5,122.833 248.5,124.5C 251.85,124.665 255.183,124.498 258.5,124C 260.879,123.284 262.879,122.117 264.5,120.5C 266.192,122.205 267.525,124.205 268.5,126.5C 262.017,130.204 255.017,131.87 247.5,131.5C 247.183,127.298 247.517,123.298 248.5,119.5 Z"/></g>
<g><path style="opacity:1" fill="#3b7fc8" d="M 381.5,131.5 C 381.5,130.5 381.5,129.5 381.5,128.5C 381.709,127.078 382.209,125.745 383,124.5C 385.522,121.674 387.522,122.007 389,125.5C 389.333,127.5 389.667,129.5 390,131.5C 391,129.5 392,127.5 393,125.5C 394.494,124.253 395.994,124.253 397.5,125.5C 398.975,128.647 398.808,131.647 397,134.5C 395.837,132.715 395.17,130.715 395,128.5C 390.634,138.074 387.301,137.741 385,127.5C 384.502,129.544 383.335,130.878 381.5,131.5 Z"/></g>
<g><path style="opacity:1" fill="#2675c3" d="M 268.5,126.5 C 269.974,127.436 270.974,128.77 271.5,130.5C 265.072,137.377 257.072,141.044 247.5,141.5C 247.5,140.167 247.5,138.833 247.5,137.5C 247.5,135.5 247.5,133.5 247.5,131.5C 255.017,131.87 262.017,130.204 268.5,126.5 Z"/></g>
<g><path style="opacity:1" fill="#f6f7f7" d="M 271.5,130.5 C 273.156,132.46 274.823,134.46 276.5,136.5C 267.702,143.546 257.702,147.879 246.5,149.5C 246.183,145.298 246.517,141.298 247.5,137.5C 247.5,138.833 247.5,140.167 247.5,141.5C 257.072,141.044 265.072,137.377 271.5,130.5 Z"/></g>
<g><path style="opacity:1" fill="#2876c3" d="M 276.5,136.5 C 279.167,140.167 281.833,143.833 284.5,147.5C 272.197,151.744 259.53,155.077 246.5,157.5C 246.5,155.833 246.5,154.167 246.5,152.5C 246.5,151.5 246.5,150.5 246.5,149.5C 257.702,147.879 267.702,143.546 276.5,136.5 Z"/></g>
<g><path style="opacity:1" fill="#544f50" d="M 297.5,173.5 C 302.23,179.981 300.897,185.148 293.5,189C 286.611,189.439 282.778,186.272 282,179.5C 284.42,183.624 287.92,185.457 292.5,185C 296.907,182.468 298.574,178.635 297.5,173.5 Z"/></g>
<g><path style="opacity:1" fill="#544f50" d="M 322.5,228.5 C 322.5,229.167 322.167,229.5 321.5,229.5C 311.179,232.004 306.013,228.004 306,217.5C 309.313,224.566 314.813,228.232 322.5,228.5 Z"/></g>
<g><path style="opacity:1" fill="#ffad41" d="M 52.5,292.5 C 55.8499,292.335 59.1832,292.502 62.5,293C 63.9308,293.465 65.0975,294.299 66,295.5C 65.9132,309.831 65.9132,324.165 66,338.5C 68.1968,330.32 72.6968,323.82 79.5,319C 85.163,317.888 89.9963,319.388 94,323.5C 94.8407,327.12 94.174,330.454 92,333.5C 87.7913,338.755 83.958,344.255 80.5,350C 86.1942,356.545 91.0275,363.712 95,371.5C 96.4749,381.352 92.3082,386.185 82.5,386C 81.3333,384.833 80.1667,383.667 79,382.5C 74.8058,373.583 70.8058,364.583 67,355.5C 67.6037,366.529 67.4371,377.529 66.5,388.5C 55.4633,394.398 48.9633,391.064 47,378.5C 46.1619,351.15 46.4952,323.816 48,296.5C 49.3968,294.93 50.8968,293.596 52.5,292.5 Z"/></g>
<g><path style="opacity:1" fill="#ffad3f" d="M 387.5,377.5 C 387.5,363.5 387.5,349.5 387.5,335.5C 385.901,335.232 384.568,335.566 383.5,336.5C 380.956,336.896 378.789,336.229 377,334.5C 376.333,330.833 376.333,327.167 377,323.5C 380.333,322.833 383.667,322.167 387,321.5C 387.333,313.167 387.667,304.833 388,296.5C 390.133,294.147 392.8,293.147 396,293.5C 398.352,293.305 400.352,293.972 402,295.5C 403.435,303.389 403.935,311.389 403.5,319.5C 413.303,317.799 416.97,321.632 414.5,331C 411.312,332.316 407.978,332.816 404.5,332.5C 404.539,351.202 405.039,369.868 406,388.5C 400.588,393.154 394.754,393.654 388.5,390C 387.536,385.934 387.203,381.767 387.5,377.5 Z"/></g>
<g><path style="opacity:1" fill="#ffac3f" d="M 169.5,331.5 C 169.26,342.531 169.593,353.531 170.5,364.5C 171.222,374.495 171.389,384.495 171,394.5C 166.905,398.152 162.405,398.485 157.5,395.5C 156.416,394.335 155.583,393.002 155,391.5C 153.855,386.917 153.189,382.251 153,377.5C 147.154,389.034 138.654,391.534 127.5,385C 120.95,376.148 117.95,366.148 118.5,355C 118.009,342.804 121.675,332.138 129.5,323C 137.285,320.149 143.785,321.983 149,328.5C 149.333,318.167 149.667,307.833 150,297.5C 150.833,296.667 151.667,295.833 152.5,295C 156.833,294.333 161.167,294.333 165.5,295C 167.893,299.494 169.06,304.327 169,309.5C 169.5,316.826 169.666,324.159 169.5,331.5 Z"/></g>
<g><path style="opacity:1" fill="#ffac3f" d="M 171.5,364.5 C 170.167,358.833 170.167,353.167 171.5,347.5C 171.632,337.074 175.632,328.574 183.5,322C 190.815,320.156 196.482,322.323 200.5,328.5C 200.783,329.289 201.283,329.956 202,330.5C 202.822,322.988 202.655,315.655 201.5,308.5C 199.576,295.597 204.909,291.097 217.5,295C 218.701,295.903 219.535,297.069 220,298.5C 221.334,328.848 222.834,359.182 224.5,389.5C 224.859,394.972 222.359,397.639 217,397.5C 211.556,397.722 208.056,395.222 206.5,390C 205.782,386.539 205.282,383.039 205,379.5C 198.955,388.182 191.122,390.349 181.5,386C 175.197,380.277 171.864,373.11 171.5,364.5 Z"/></g>
<g><path style="opacity:1" fill="#ffad40" d="M 102.5,295.5 C 114.341,293.851 118.507,298.851 115,310.5C 113.586,314.713 110.586,316.38 106,315.5C 103.329,315.726 100.996,315.059 99,313.5C 97.5236,308.924 97.1902,304.257 98,299.5C 99.3968,297.93 100.897,296.596 102.5,295.5 Z"/></g>
<g><path style="opacity:1" fill="#ffb24d" d="M 257.5,299.5 C 261.839,303.506 266.172,307.506 270.5,311.5C 270.167,311.833 269.833,312.167 269.5,312.5C 265.557,309.852 261.223,308.185 256.5,307.5C 256.833,304.833 257.167,302.167 257.5,299.5 Z"/></g>
<g><path style="opacity:1" fill="#ffad3f" d="M 364.5,316.5 C 366.857,316.337 369.19,316.503 371.5,317C 372.667,317.5 373.5,318.333 374,319.5C 376.584,340.427 377.584,361.427 377,382.5C 372.128,386.477 366.628,387.477 360.5,385.5C 359.808,384.975 359.308,384.308 359,383.5C 358.667,378.833 358.333,374.167 358,369.5C 355.211,379.125 349.044,385.125 339.5,387.5C 330.217,385.714 324.717,380.048 323,370.5C 322.333,362.167 322.333,353.833 323,345.5C 324.535,333.889 330.702,326.056 341.5,322C 349.1,320.884 355.6,323.051 361,328.5C 360.761,323.948 361.928,319.948 364.5,316.5 Z"/></g>
<g><path style="opacity:1" fill="#ffac3f" d="M 241.5,318.5 C 266.022,317.021 277.688,328.688 276.5,353.5C 276.862,363.62 275.029,373.286 271,382.5C 268.736,385.433 265.902,387.6 262.5,389C 255.233,390.515 247.899,390.848 240.5,390C 233.791,387.957 229.957,383.457 229,376.5C 225.85,364.361 224.85,352.028 226,339.5C 227.324,329.466 232.49,322.466 241.5,318.5 Z"/></g>
<g><path style="opacity:1" fill="#ffad41" d="M 282.5,317.5 C 285.187,317.336 287.854,317.503 290.5,318C 295.525,334.454 299.025,351.287 301,368.5C 303.668,352.492 306.334,336.492 309,320.5C 313.98,318.832 318.647,319.498 323,322.5C 321.059,343.539 317.059,364.205 311,384.5C 309.457,386.378 307.624,387.878 305.5,389C 299.574,390.11 293.908,389.444 288.5,387C 287.107,385.829 286.273,384.329 286,382.5C 282.231,364.056 278.731,345.556 275.5,327C 275.745,322.26 278.078,319.093 282.5,317.5 Z"/></g>
<g><path style="opacity:1" fill="#ffad41" d="M 429.5,319.5 C 439.552,317.342 447.052,320.676 452,329.5C 456.139,338.699 456.473,348.033 453,357.5C 452.167,358.333 451.333,359.167 450.5,360C 444.509,360.499 438.509,360.666 432.5,360.5C 432.043,364.584 432.71,368.417 434.5,372C 440.416,370.925 446.416,370.259 452.5,370C 455.198,375.623 454.698,381.123 451,386.5C 448.307,389.857 444.807,391.191 440.5,390.5C 424.863,389.366 415.697,381.033 413,365.5C 410.848,351.933 413.181,339.266 420,327.5C 422.772,324.217 425.939,321.55 429.5,319.5 Z"/></g>
<g><path style="opacity:1" fill="#ffad40" d="M 101.5,323.5 C 111.72,321.891 116.887,326.224 117,336.5C 117.859,351.866 117.525,367.199 116,382.5C 113.972,386.134 110.806,387.8 106.5,387.5C 103.675,387.881 101.509,386.881 100,384.5C 97.9555,365.877 97.2889,347.211 98,328.5C 98.9973,326.677 100.164,325.01 101.5,323.5 Z"/></g>
<g><path style="opacity:1" fill="#ffd399" d="M 201.5,308.5 C 202.655,315.655 202.822,322.988 202,330.5C 201.283,329.956 200.783,329.289 200.5,328.5C 201.491,322.021 201.824,315.354 201.5,308.5 Z"/></g>
<g><path style="opacity:1" fill="#ffd398" d="M 383.5,336.5 C 384.568,335.566 385.901,335.232 387.5,335.5C 387.5,349.5 387.5,363.5 387.5,377.5C 386.504,364.01 386.171,350.344 386.5,336.5C 385.5,336.5 384.5,336.5 383.5,336.5 Z"/></g>
<g><path style="opacity:1" fill="#ffe7c8" d="M 434.5,335.5 C 436.429,335.231 438.095,335.731 439.5,337C 438.667,337.167 437.833,337.333 437,337.5C 435.624,337.316 434.791,336.649 434.5,335.5 Z"/></g>
<g><path style="opacity:1" fill="#fffbf6" d="M 249.5,337.5 C 254.358,337.854 257.192,340.521 258,345.5C 258.667,353.167 258.667,360.833 258,368.5C 256.347,374.547 253.014,375.88 248,372.5C 246.438,370.043 245.438,367.376 245,364.5C 244.333,357.833 244.333,351.167 245,344.5C 245.904,341.767 247.404,339.433 249.5,337.5 Z"/></g>
<g><path style="opacity:1" fill="#fffcfa" d="M 343.5,339.5 C 350.666,339.169 354,342.669 353.5,350C 353.303,353.987 352.469,357.821 351,361.5C 346.561,365.946 343.227,365.279 341,359.5C 340.333,354.167 340.333,348.833 341,343.5C 341.662,342.016 342.496,340.683 343.5,339.5 Z"/></g>
<g><path style="opacity:1" fill="#fffcf9" d="M 140.5,342.5 C 147.086,342.794 149.753,346.294 148.5,353C 148.765,357.872 147.598,362.372 145,366.5C 142.408,367.982 140.075,367.648 138,365.5C 135.283,357.325 136.116,349.658 140.5,342.5 Z"/></g>
<g><path style="opacity:1" fill="#fffaf5" d="M 192.5,342.5 C 198.987,343.08 201.987,346.747 201.5,353.5C 201.217,357.739 200.05,361.739 198,365.5C 195.925,367.648 193.592,367.982 191,366.5C 187.286,358.134 187.786,350.134 192.5,342.5 Z"/></g>
<g><path style="opacity:1" fill="#fff5e8" d="M 432.5,346.5 C 435.024,345.2 437.691,345.2 440.5,346.5C 437.801,347.729 435.135,347.729 432.5,346.5 Z"/></g>
<g><path style="opacity:1" fill="#ffcd8c" d="M 169.5,331.5 C 170.167,336.833 170.833,342.167 171.5,347.5C 170.167,353.167 170.167,358.833 171.5,364.5C 171.167,364.5 170.833,364.5 170.5,364.5C 169.593,353.531 169.26,342.531 169.5,331.5 Z"/></g>
</svg>
