<svg width="46" height="43" viewBox="0 0 46 43" fill="none" xmlns="http://www.w3.org/2000/svg">
<ellipse cx="23" cy="21.5" rx="23" ry="21.5" fill="white"/>
<mask id="mask0_35_9" style="mask-type:luminance" maskUnits="userSpaceOnUse" x="13" y="9" width="18" height="25">
<path d="M13.0139 9.46179L30.3367 9.46179L30.3367 33.4618H13.0139L13.0139 9.46179Z" fill="white"/>
</mask>
<g mask="url(#mask0_35_9)">
<path d="M24.7947 10.0905L13.7214 19.9409C13.5013 20.1205 13.323 20.351 13.2004 20.6146C13.0778 20.8782 13.0141 21.168 13.0141 21.4617C13.0141 21.7554 13.0778 22.0452 13.2004 22.3088C13.323 22.5724 13.5013 22.8029 13.7214 22.9824L24.7978 32.8295C25.2836 33.2382 25.8865 33.4608 26.5077 33.4608C27.1289 33.4608 27.7318 33.2382 28.2176 32.8295L29.6293 31.5735C29.8495 31.3939 30.0277 31.1634 30.1503 30.8998C30.2729 30.6362 30.3367 30.3464 30.3367 30.0527C30.3367 29.759 30.2729 29.4692 30.1503 29.2056C30.0277 28.942 29.8495 28.7115 29.6293 28.532L22.31 22.0264C22.2277 21.9596 22.1611 21.8738 22.1153 21.7755C22.0695 21.6772 22.0457 21.5692 22.0457 21.4596C22.0457 21.3501 22.0695 21.242 22.1153 21.1437C22.1611 21.0455 22.2277 20.9596 22.31 20.8928L29.6254 14.393C29.846 14.2137 30.0246 13.9834 30.1475 13.7197C30.2704 13.4561 30.3343 13.1661 30.3343 12.8723C30.3343 12.5784 30.2704 12.2885 30.1475 12.0248C30.0246 11.7612 29.846 11.5308 29.6254 11.3515L28.2145 10.0905C27.7284 9.68255 27.1256 9.46045 26.5046 9.46045C25.8835 9.46045 25.2808 9.68255 24.7947 10.0905Z" fill="#2999D4"/>
</g>
</svg>
