<svg width="50" height="50" viewBox="0 0 50 50" fill="none" xmlns="http://www.w3.org/2000/svg">
<mask id="mask0_1252_701" style="mask-type:luminance" maskUnits="userSpaceOnUse" x="0" y="7" width="47" height="33">
<path d="M47 7H0V39.9H47V7Z" fill="white"/>
</mask>
<g mask="url(#mask0_1252_701)">
<path d="M46.9084 15.9693C46.4515 13.1566 45.0581 10.6598 43.0248 9.00998C40.9914 7.3602 38.4785 6.68765 36.0206 7.13536C34.1221 7.42488 32.3373 8.34134 30.8827 9.77368C30.5602 10.1035 30.1389 10.2765 29.7076 10.2562H19.344C18.9116 10.2761 18.4893 10.1032 18.1651 9.77368C16.2441 7.89918 13.7805 6.92344 11.2631 7.04005C8.7456 7.15666 6.35824 8.35709 4.57463 10.4032C3.27682 11.9191 2.42393 13.8638 2.13544 15.9649C1.96823 17.2783 2.02972 18.6169 2.31635 19.9028C2.60297 21.1886 3.109 22.3962 3.80504 23.4552V32.3635L3.81279 34.4569V36.4538C3.82448 36.9193 3.91584 37.3777 4.08162 37.8026C4.24741 38.2275 4.48439 38.6107 4.77901 38.9303C5.07363 39.2499 5.42013 39.4996 5.79871 39.6652C6.17729 39.8308 6.58053 39.909 6.9854 39.8954H8.65112C9.37328 39.9146 10.079 39.6462 10.6488 39.1356C11.2185 38.625 11.6172 37.9037 11.7773 37.0937L12.4642 34.9231L12.6101 34.4599L13.2557 32.3664L13.4017 31.9002L14.8504 27.2546C15.7789 26.905 16.6545 26.3916 17.4459 25.7328C17.925 25.3469 18.4956 25.1396 19.0806 25.1389H29.9271C30.5133 25.1307 31.0862 25.3388 31.5619 25.7328C32.36 26.3912 33.2415 26.9045 34.1754 27.2546L35.6242 31.9002L35.7701 32.3664L36.4286 34.4599L36.5745 34.9231L37.2511 37.0982C37.4126 37.9102 37.8137 38.6329 38.3862 39.1434C38.9587 39.6539 39.6673 39.9207 40.3915 39.8983H42.0443C42.8616 39.9271 43.6554 39.5818 44.2514 38.9382C44.8475 38.2947 45.1971 37.4054 45.2234 36.4657V34.9231V34.4599L45.2337 32.3664V23.4582C45.9345 22.4028 46.4435 21.196 46.7304 19.9096C47.0172 18.6233 47.076 17.2838 46.9033 15.9708" fill="#019BFF"/>
<ellipse cx="37.4881" cy="16.3217" rx="6.15476" ry="6.03167" fill="#8AD6FF"/>
</g>
<ellipse cx="11.75" cy="16.3217" rx="6.15476" ry="6.03167" fill="#8AD6FF"/>
<path d="M16.6468 18.2426H13.2745V21.5754H9.97849V18.2426H6.57996V15.0121H9.97621V11.7007H13.2802V15.0121H16.6468V18.2426Z" fill="#019BFF"/>
<path d="M40.6305 18.9985C40.9547 19.2241 41.208 19.5381 41.3607 19.9036C41.1889 19.55 40.9392 19.2405 40.6305 18.9985Z" fill="#0077B6"/>
<path d="M40.6305 18.999C40.9392 19.2409 41.1889 19.5504 41.3607 19.904C41.208 19.5385 40.9547 19.2245 40.6305 18.999ZM31.8146 16.6881C31.8146 16.651 31.8058 16.6109 31.8028 16.5737C31.7999 16.5366 31.7939 16.4756 31.7939 16.4251V16.2185C31.7943 16.1543 31.8028 16.0904 31.8191 16.0283C31.783 16.144 31.7689 16.2655 31.7777 16.3865C31.7837 16.5498 31.8085 16.7118 31.8516 16.8694C31.835 16.808 31.8226 16.7454 31.8146 16.6822" fill="#0077B6"/>
<path d="M41.3607 19.9036C41.1889 19.55 40.9392 19.2405 40.6305 18.9985C40.9547 19.2241 41.208 19.5381 41.3607 19.9036Z" fill="#0077B6"/>
<path d="M31.8516 16.8748C31.8085 16.7172 31.7837 16.5551 31.7777 16.3918C31.7689 16.2709 31.783 16.1494 31.8191 16.0337C31.8019 16.1522 31.7949 16.2721 31.7984 16.3918V16.429C31.7984 16.478 31.7984 16.5226 31.7984 16.5776C31.7984 16.6326 31.8072 16.6549 31.8102 16.692C31.8182 16.7552 31.8305 16.8178 31.8472 16.8793" fill="#0077B6"/>
<mask id="mask1_1252_701" style="mask-type:luminance" maskUnits="userSpaceOnUse" x="38" y="14" width="5" height="5">
<path d="M42.3896 14.9136H38.8241V18.3545H42.3896V14.9136Z" fill="white"/>
</mask>
<g mask="url(#mask1_1252_701)">
<path d="M39.4253 15.344C39.5621 15.2145 39.7226 15.1154 39.8971 15.0527C40.1088 14.9566 40.338 14.9099 40.5686 14.9161C41.0192 14.9082 41.4562 15.0776 41.7933 15.3908C42.1305 15.704 42.3432 16.1382 42.3896 16.6077C42.3608 17.0007 42.2156 17.3744 41.9743 17.6768C41.733 17.9791 41.4076 18.195 41.0434 18.2943C40.6793 18.3936 40.2947 18.3714 39.9432 18.2307C39.5918 18.09 39.291 17.8379 39.0829 17.5096C39.0348 17.4416 38.996 17.3669 38.9678 17.2876C38.8743 17.0837 38.8253 16.8606 38.8241 16.6344C38.8265 16.5271 38.8361 16.4201 38.8526 16.3142C38.8594 16.2779 38.8689 16.2422 38.8812 16.2075C38.9008 16.1099 38.9352 16.0162 38.9831 15.93C39.0066 15.8572 39.0448 15.7906 39.0952 15.7347C39.1451 15.6412 39.2087 15.5566 39.2837 15.4839C39.3246 15.4309 39.3731 15.3849 39.4273 15.3472" fill="#019BFF"/>
</g>
<mask id="mask2_1252_701" style="mask-type:luminance" maskUnits="userSpaceOnUse" x="35" y="18" width="5" height="4">
<path d="M39.0687 18.1167H35.5155V21.5715H39.0687V18.1167Z" fill="white"/>
</mask>
<g mask="url(#mask2_1252_701)">
<path d="M38.9252 19.1601C39.0159 19.3547 39.065 19.5678 39.0689 19.7844C39.0656 19.9045 39.0554 20.0243 39.0383 20.143C38.9334 20.6125 38.6586 21.021 38.2717 21.2822C37.8848 21.5435 37.4162 21.6371 36.9646 21.5433C36.5777 21.4826 36.2226 21.2841 35.959 20.9813C35.6954 20.6784 35.5396 20.2896 35.5177 19.8805C35.5107 19.5202 35.6154 19.1672 35.816 18.8743C36.0165 18.5815 36.3023 18.3646 36.6304 18.2561C36.7347 18.2049 36.8468 18.1735 36.9616 18.1632C37.0784 18.134 37.1981 18.1193 37.3182 18.1195C37.5136 18.1155 37.7081 18.1491 37.8919 18.2187C37.948 18.2454 38.0101 18.2571 38.0662 18.286C38.1891 18.3533 38.3082 18.4281 38.4228 18.5101C38.6344 18.6851 38.8053 18.9071 38.9252 19.1601Z" fill="#019BFF"/>
</g>
<mask id="mask3_1252_701" style="mask-type:luminance" maskUnits="userSpaceOnUse" x="35" y="11" width="5" height="5">
<path d="M39.1388 11.7002H35.5703V15.139H39.1388V11.7002Z" fill="white"/>
</mask>
<g mask="url(#mask3_1252_701)">
<path d="M37.3177 11.7002C37.4332 11.7002 37.5483 11.7091 37.6631 11.7269C37.7776 11.7392 37.889 11.7729 37.9922 11.8261C38.0965 11.8701 38.1985 11.9196 38.2979 11.9745C38.5473 12.1097 38.7573 12.3126 38.9061 12.5619C39.0549 12.8113 39.137 13.0979 39.1437 13.3919C39.1385 13.6264 39.0893 13.8575 38.9989 14.0721C38.9084 14.2867 38.7784 14.4805 38.6164 14.6424C38.4544 14.8044 38.2635 14.9313 38.0547 15.016C37.8458 15.1006 37.6231 15.1414 37.3992 15.1358H37.3238C36.9932 15.1412 36.6681 15.0474 36.3867 14.8655C36.1054 14.6835 35.8797 14.4211 35.7362 14.1091C35.7375 14.1011 35.7369 14.093 35.7344 14.0853C35.7319 14.0777 35.7276 14.0708 35.7219 14.0653C35.6666 13.9674 35.6318 13.8583 35.62 13.7452C35.591 13.6367 35.5759 13.5248 35.5752 13.4122C35.5935 12.943 35.7869 12.5002 36.1137 12.1789C36.4405 11.8575 36.8746 11.6833 37.3228 11.6938" fill="#019BFF"/>
</g>
<mask id="mask4_1252_701" style="mask-type:luminance" maskUnits="userSpaceOnUse" x="32" y="14" width="4" height="5">
<path d="M35.9008 14.9131H32.318V18.3519H35.9008V14.9131Z" fill="white"/>
</mask>
<g mask="url(#mask4_1252_701)">
<path d="M34.1379 18.3513V18.3428C33.7418 18.3665 33.3502 18.2459 33.0295 18.0013C32.7089 17.7567 32.479 17.4033 32.3791 17.0012L32.3709 16.9745C32.3413 16.8613 32.3242 16.7449 32.32 16.6276C32.3139 16.5408 32.3236 16.4535 32.3485 16.3704V16.3608C32.3602 16.2812 32.379 16.203 32.4046 16.1271C32.4293 16.0476 32.4583 15.9695 32.4912 15.8933C32.5314 15.8099 32.5796 15.7309 32.6349 15.6574C32.6909 15.561 32.7642 15.4769 32.8509 15.4098C32.9609 15.2901 33.093 15.195 33.2391 15.1302C33.2909 15.0941 33.3476 15.0664 33.4072 15.048C33.6179 14.9578 33.843 14.9103 34.0706 14.9082C34.1852 14.9107 34.2995 14.9203 34.413 14.937C34.6321 14.9606 34.8444 15.0299 35.0376 15.1408C35.2307 15.2516 35.4007 15.4018 35.5376 15.5825C35.6746 15.7632 35.7756 15.9707 35.8348 16.1929C35.894 16.4151 35.9102 16.6475 35.8824 16.8763C35.8087 17.2999 35.5918 17.6816 35.2715 17.9515C34.9511 18.2214 34.5487 18.3614 34.1379 18.346" fill="#019BFF"/>
</g>
</svg>
