<svg width="131" height="106" viewBox="0 0 131 106" fill="none" xmlns="http://www.w3.org/2000/svg">
<g clip-path="url(#clip0_1494_2050)">
<rect width="131" height="106" rx="9" fill="#C98354"/>
<path d="M78.4907 97.9998C77.8409 97.9998 77.2399 97.5833 77.0355 96.9305L72.7369 83.2016C72.4836 82.3962 72.9306 81.5419 73.736 81.2903C74.543 81.037 75.3958 81.4871 75.6475 82.2895L79.946 96.0184C80.1978 96.8238 79.7507 97.6781 78.9469 97.9298C78.7943 97.9769 78.6417 97.9998 78.4907 97.9998Z" fill="#B0B6BB"/>
<path d="M46.4571 98.0001C46.3061 98.0001 46.1535 97.9772 46.0009 97.9299C45.1971 97.6782 44.7501 96.8239 45.0018 96.0185L49.3005 82.2896C49.5522 81.4858 50.4004 81.0372 51.212 81.2905C52.0174 81.5422 52.4644 82.3965 52.2111 83.2017L47.9126 96.9306C47.7079 97.5836 47.107 98.0001 46.4571 98.0001Z" fill="#B0B6BB"/>
<path d="M70.8642 14.1021V17.1529H55.6099V14.1021H26.627V56.8139H99.8472V14.1021H70.8642Z" fill="#EDEBDA"/>
<path d="M76.9656 11.0509H49.5079C48.6643 11.0509 47.9824 10.369 47.9824 9.52543C47.9824 8.68186 48.6643 8 49.5079 8H76.9654C77.809 8 78.4908 8.68186 78.4908 9.52543C78.4908 10.369 77.8092 11.0509 76.9656 11.0509Z" fill="#CEC9AE"/>
<path d="M26.627 56.8137H99.8472V49.1865H26.627V56.8137Z" fill="#CEC9AE"/>
<path d="M55.6098 49.1868H31.2031L43.4066 29.3562L55.6098 49.1868Z" fill="#DD342E"/>
<path d="M90.578 49.1868L83.0683 36.9834L75.5586 49.1868H90.578Z" fill="#25B99A"/>
<path d="M89.1688 29.3564C87.6678 29.3564 86.2248 28.8073 85.1067 27.8065C84.4783 27.2453 84.4248 26.2811 84.9847 25.6527C85.5491 25.0227 86.5117 24.9724 87.1385 25.5307C87.6968 26.0296 88.4184 26.3056 89.1688 26.3056C90.8514 26.3056 92.2197 24.9373 92.2197 23.2547C92.2197 22.3883 91.849 21.56 91.2037 20.9832C90.5752 20.422 90.5218 19.4562 91.0817 18.8294C91.6461 18.1994 92.6087 18.1475 93.2355 18.7074C94.5291 19.8621 95.2704 21.5203 95.2704 23.2547C95.2705 26.6197 92.534 29.3564 89.1688 29.3564Z" fill="#ECBA16"/>
<path d="M64.9971 49.1867L55.6097 33.9324L50.916 41.5595L55.6097 49.1867H64.9971Z" fill="#A2D672"/>
<path d="M34.254 27.831L32.7286 24.7802L29.6777 23.2548L32.7286 21.7293L34.254 18.6785L35.7795 21.7293L38.8303 23.2548L35.7795 24.7802L34.254 27.831Z" fill="#ECBA16"/>
<path d="M69.338 35.4582L67.8126 32.4074L64.7617 30.882L67.8126 29.3565L69.338 26.3057L70.8634 29.3565L73.9143 30.882L70.8634 32.4074L69.338 35.4582Z" fill="#ECBA16"/>
<path d="M19 67.4914H107.475V61.3896H19V67.4914Z" fill="#B88353"/>
<path d="M47.9824 73.5934H78.491V67.4917H47.9824V73.5934Z" fill="#8C5D37"/>
<path d="M76.7107 82.7453H71.3107C71.2086 82.7453 71.1186 82.6828 71.085 82.5866L67.8145 73.5928H73.9162L77.0616 82.2449C77.1502 82.4877 76.9702 82.7453 76.7107 82.7453Z" fill="#E0E2E3"/>
<path d="M48.2389 82.7453H53.6389C53.741 82.7453 53.831 82.6828 53.8646 82.5866L57.1352 73.5928H51.0334L47.888 82.2449C47.7996 82.4877 47.9796 82.7453 48.2389 82.7453Z" fill="#E0E2E3"/>
<path d="M55.6094 17.1521H70.8637V9.5249H55.6094V17.1521Z" fill="#CEC9AE"/>
<path d="M92.6795 34.354L110.045 41.3317C111.566 41.9427 112.308 43.6694 111.701 45.1809L111.615 45.3956C111.008 46.9071 109.277 47.6389 107.756 47.0279L90.3906 40.0503L92.6795 34.354Z" fill="#FFAD1D"/>
<path d="M92.6796 34.3532L110.045 41.3309C111.566 41.9419 112.309 43.6686 111.701 45.1801L111.658 45.2871L91.5352 37.2014L92.6796 34.3532Z" fill="#FF8900"/>
<path d="M89.7926 31.5941C91.3207 32.6365 92.8031 34.6071 91.9509 36.7281L91.3054 38.3346L91.1907 38.4684C91.0947 38.5804 88.7902 41.1917 84.4348 39.193C83.0603 38.562 82.0807 37.6627 81.3844 36.7345C79.9664 34.8438 79.7217 32.8302 79.7083 32.7059L79.6787 32.4376L79.538 31.1777L81.0316 31.5432C81.4948 31.6467 83.6173 31.3925 84.2286 31.1603C84.3708 31.1063 84.512 31.0564 84.6527 31.0118C86.5613 30.3984 88.3308 30.5961 89.7926 31.5941Z" fill="#C7C5CC"/>
<path d="M107.033 40.1206L104.744 45.8169L106.738 46.6181L109.027 40.9218L107.033 40.1206Z" fill="#FF4F18"/>
<path d="M107.033 40.122L105.889 42.9702L107.883 43.7714L109.027 40.9233L107.033 40.122Z" fill="#FF3400"/>
<path d="M89.792 31.5946C91.3201 32.637 92.8026 34.6076 91.9503 36.7286L91.7287 37.2802L79.6781 32.4382L79.5374 31.1782L81.0311 31.5436C81.4943 31.6472 83.6168 31.393 84.2281 31.1608C84.3703 31.1067 84.5115 31.0569 84.6521 31.0123C86.5607 30.3988 88.3303 30.5965 89.792 31.5946Z" fill="#8A8791"/>
<path d="M84.6517 31.0118C85.0421 31.1641 85.4428 31.4656 85.7391 31.8386C85.9822 32.1424 86.1566 32.4942 86.1986 32.8508C86.2317 33.1181 86.1895 33.3883 86.0486 33.6429C85.564 34.5166 84.0466 33.7779 83.4443 33.9512C83.3503 33.9775 83.2788 34.0268 83.2369 34.108C82.9418 34.6772 83.9224 34.8018 83.6333 36.059C83.6178 36.1284 83.598 36.2008 83.5743 36.277C83.458 36.6471 83.261 36.859 83.0298 36.9691C82.3499 37.2951 81.3833 36.7345 81.3833 36.7345C79.9652 34.8438 79.7205 32.8301 79.7071 32.7059L79.6775 32.4376L79.537 31.1777L81.0306 31.5431C81.4938 31.6467 83.6163 31.3925 84.2276 31.1603C84.3698 31.1062 84.511 31.0564 84.6517 31.0118Z" fill="#00A5FF"/>
<path d="M84.6522 31.0123C85.0426 31.1645 85.4433 31.466 85.7396 31.8391C85.9827 32.1429 86.1571 32.4947 86.1991 32.8513C86.2322 33.1186 86.19 33.3888 86.0491 33.6433C85.5645 34.517 84.0471 33.7784 83.4448 33.9517L79.6781 32.4382L79.5375 31.1781L81.0311 31.5436C81.4943 31.6471 83.6168 31.3929 84.2281 31.1607C84.3703 31.1066 84.5115 31.0568 84.6522 31.0123Z" fill="#0087FF"/>
</g>
<defs>
<clipPath id="clip0_1494_2050">
<rect width="131" height="106" rx="9" fill="white"/>
</clipPath>
</defs>
</svg>
