<svg width="84" height="68" viewBox="0 0 84 68" fill="none" xmlns="http://www.w3.org/2000/svg">
<rect width="84" height="68" rx="9" fill="#FFCB87"/>
<mask id="mask0_1086_616" style="mask-type:luminance" maskUnits="userSpaceOnUse" x="17" y="17" width="50" height="35">
<path d="M67 17H17V52H67V17Z" fill="white"/>
</mask>
<g mask="url(#mask0_1086_616)">
<path d="M66.9024 26.5419C66.4163 23.5495 64.934 20.8934 62.7708 19.1383C60.6077 17.3832 57.9344 16.6677 55.3196 17.144C53.2999 17.452 51.4012 18.427 49.8537 19.9507C49.5106 20.3016 49.0625 20.4856 48.6037 20.4641H37.5785C37.1186 20.4852 36.6693 20.3013 36.3244 19.9507C34.2808 17.9566 31.6599 16.9186 28.9818 17.0426C26.3036 17.1667 23.7639 18.4437 21.8664 20.6204C20.4858 22.2331 19.5785 24.3019 19.2716 26.5371C19.0937 27.9344 19.1591 29.3584 19.464 30.7263C19.7689 32.0943 20.3073 33.3789 21.0477 34.5056V43.9824L21.056 46.2095V48.3338C21.0684 48.8291 21.1656 49.3167 21.342 49.7687C21.5183 50.2208 21.7704 50.6284 22.0839 50.9684C22.3973 51.3084 22.7659 51.5741 23.1686 51.7502C23.5714 51.9264 24.0004 52.0096 24.4311 51.9951H26.2031C26.9714 52.0156 27.7222 51.73 28.3283 51.1868C28.9344 50.6437 29.3585 49.8762 29.5288 49.0146L30.2596 46.7054L30.4148 46.2126L31.1017 43.9856L31.2569 43.4896L32.7981 38.5474C33.7859 38.1756 34.7174 37.6294 35.5592 36.9285C36.0689 36.518 36.676 36.2975 37.2983 36.2967H48.8372C49.4607 36.288 50.0703 36.5094 50.5763 36.9285C51.4253 37.6289 52.3631 38.175 53.3566 38.5474L54.8979 43.4896L55.0531 43.9856L55.7537 46.2126L55.9089 46.7054L56.6287 49.0193C56.8005 49.8832 57.2271 50.6521 57.8362 51.1951C58.4452 51.7382 59.199 52.022 59.9695 51.9982H61.7278C62.5972 52.0289 63.4417 51.6615 64.0758 50.9769C64.7099 50.2922 65.0818 49.3461 65.1098 48.3465V46.7054V46.2126L65.1207 43.9856V34.5087C65.8663 33.3859 66.4078 32.1021 66.713 30.7337C67.0181 29.3652 67.0807 27.9402 66.8969 26.5434" fill="#019BFF"/>
<ellipse cx="56.8806" cy="26.9167" rx="6.54762" ry="6.41667" fill="#8AD6FF"/>
</g>
<ellipse cx="29.4998" cy="26.9167" rx="6.54762" ry="6.41667" fill="#8AD6FF"/>
<path d="M34.7094 28.9605H31.1218V32.506H27.6155V28.9605H24V25.5238H27.613V22.001H31.1279V25.5238H34.7094V28.9605Z" fill="#019BFF"/>
<path d="M60.2236 29.7646C60.5685 30.0046 60.838 30.3387 61.0005 30.7274C60.8177 30.3513 60.552 30.022 60.2236 29.7646Z" fill="#0077B6"/>
<path d="M60.2243 29.7648C60.5527 30.0221 60.8184 30.3514 61.0011 30.7275C60.8387 30.3388 60.5692 30.0047 60.2243 29.7648ZM50.8457 27.3064C50.8457 27.2669 50.8363 27.2242 50.8331 27.1847C50.83 27.1452 50.8237 27.0803 50.8237 27.0266V26.8069C50.8241 26.7385 50.8331 26.6705 50.8504 26.6045C50.812 26.7276 50.7971 26.8568 50.8064 26.9855C50.8128 27.1592 50.8392 27.3316 50.885 27.4993C50.8673 27.4339 50.8542 27.3673 50.8457 27.3001" fill="#0077B6"/>
<path d="M61.0005 30.7274C60.8177 30.3513 60.552 30.022 60.2236 29.7646C60.5685 30.0046 60.838 30.3387 61.0005 30.7274Z" fill="#0077B6"/>
<path d="M50.885 27.5052C50.8392 27.3375 50.8128 27.1651 50.8064 26.9914C50.7971 26.8627 50.812 26.7334 50.8504 26.6104C50.8321 26.7365 50.8248 26.864 50.8284 26.9914V27.0309C50.8284 27.083 50.8284 27.1305 50.8284 27.189C50.8284 27.2475 50.8379 27.2712 50.841 27.3107C50.8495 27.3779 50.8626 27.4445 50.8803 27.5099" fill="#0077B6"/>
<mask id="mask1_1086_616" style="mask-type:luminance" maskUnits="userSpaceOnUse" x="58" y="25" width="5" height="5">
<path d="M62.0958 25.4189H58.3027V29.0796H62.0958V25.4189Z" fill="white"/>
</mask>
<g mask="url(#mask1_1086_616)">
<path d="M58.9423 25.8768C59.0879 25.7389 59.2586 25.6335 59.4442 25.5668C59.6694 25.4646 59.9132 25.415 60.1586 25.4215C60.6379 25.4131 61.1028 25.5933 61.4615 25.9265C61.8201 26.2597 62.0465 26.7216 62.0958 27.2211C62.0652 27.6391 61.9107 28.0367 61.654 28.3584C61.3973 28.68 61.0511 28.9097 60.6637 29.0154C60.2764 29.121 59.8672 29.0974 59.4933 28.9477C59.1194 28.798 58.7994 28.5298 58.5781 28.1805C58.5269 28.1082 58.4856 28.0287 58.4556 27.9444C58.3562 27.7275 58.304 27.4901 58.3027 27.2495C58.3053 27.1354 58.3155 27.0215 58.3331 26.9089C58.3403 26.8702 58.3504 26.8323 58.3634 26.7953C58.3843 26.6915 58.4209 26.5918 58.4719 26.5001C58.4969 26.4227 58.5375 26.3518 58.5911 26.2923C58.6442 26.1929 58.7119 26.1029 58.7916 26.0255C58.8352 25.9692 58.8868 25.9202 58.9445 25.8802" fill="#019BFF"/>
</g>
<mask id="mask2_1086_616" style="mask-type:luminance" maskUnits="userSpaceOnUse" x="54" y="28" width="5" height="5">
<path d="M58.5623 28.8262H54.7822V32.5015H58.5623V28.8262Z" fill="white"/>
</mask>
<g mask="url(#mask2_1086_616)">
<path d="M58.4095 29.9365C58.5061 30.1436 58.5583 30.3703 58.5624 30.6007C58.559 30.7284 58.5481 30.8558 58.5299 30.9822C58.4183 31.4816 58.1259 31.9162 57.7144 32.1941C57.3028 32.472 56.8042 32.5716 56.3239 32.4719C55.9122 32.4073 55.5344 32.1961 55.254 31.8739C54.9737 31.5517 54.8078 31.1382 54.7845 30.7029C54.7771 30.3196 54.8885 29.944 55.1019 29.6325C55.3153 29.321 55.6192 29.0902 55.9683 28.9748C56.0792 28.9203 56.1985 28.8869 56.3206 28.876C56.4449 28.8449 56.5722 28.8293 56.7 28.8294C56.9079 28.8252 57.1148 28.861 57.3103 28.935C57.37 28.9634 57.4361 28.9759 57.4957 29.0066C57.6265 29.0782 57.7532 29.1578 57.8751 29.245C58.1002 29.4312 58.282 29.6674 58.4095 29.9365Z" fill="#019BFF"/>
</g>
<mask id="mask3_1086_616" style="mask-type:luminance" maskUnits="userSpaceOnUse" x="54" y="22" width="5" height="4">
<path d="M58.6371 22H54.8408V25.6583H58.6371V22Z" fill="white"/>
</mask>
<g mask="url(#mask3_1086_616)">
<path d="M56.6994 22.0004C56.8223 22.0004 56.9448 22.0099 57.0669 22.0288C57.1887 22.042 57.3072 22.0777 57.417 22.1344C57.5279 22.1812 57.6365 22.2339 57.7422 22.2923C58.0075 22.4361 58.2309 22.6519 58.3892 22.9172C58.5475 23.1824 58.6348 23.4874 58.642 23.8001C58.6365 24.0496 58.5841 24.2955 58.4879 24.5237C58.3916 24.752 58.2534 24.9582 58.0811 25.1305C57.9087 25.3028 57.7056 25.4378 57.4834 25.5279C57.2613 25.6179 57.0243 25.6613 56.7861 25.6554H56.7059C56.3542 25.6611 56.0083 25.5613 55.709 25.3678C55.4098 25.1742 55.1696 24.895 55.017 24.5631C55.0184 24.5546 55.0177 24.5459 55.0151 24.5378C55.0124 24.5296 55.0079 24.5223 55.0018 24.5166C54.9429 24.4124 54.9059 24.2963 54.8934 24.1759C54.8625 24.0606 54.8464 23.9415 54.8457 23.8217C54.8652 23.3226 55.0709 22.8515 55.4185 22.5097C55.7662 22.1678 56.2281 21.9825 56.7048 21.9936" fill="#019BFF"/>
</g>
<mask id="mask4_1086_616" style="mask-type:luminance" maskUnits="userSpaceOnUse" x="51" y="25" width="5" height="5">
<path d="M55.1923 25.418H51.3809V29.0763H55.1923V25.418Z" fill="white"/>
</mask>
<g mask="url(#mask4_1086_616)">
<path d="M53.3166 29.076V29.0669C52.8953 29.0922 52.4787 28.9638 52.1375 28.7036C51.7964 28.4434 51.5519 28.0674 51.4456 27.6397L51.4369 27.6113C51.4053 27.4909 51.3872 27.367 51.3827 27.2423C51.3763 27.1499 51.3866 27.057 51.4131 26.9686V26.9584C51.4255 26.8737 51.4455 26.7905 51.4727 26.7097C51.4991 26.6252 51.5298 26.5421 51.5648 26.4611C51.6077 26.3723 51.6589 26.2882 51.7177 26.2102C51.7773 26.1076 51.8553 26.0181 51.9475 25.9467C52.0646 25.8194 52.2051 25.7182 52.3605 25.6493C52.4156 25.6109 52.4759 25.5814 52.5394 25.5618C52.7635 25.4658 53.003 25.4153 53.2451 25.4131C53.367 25.4157 53.4886 25.426 53.6093 25.4437C53.8424 25.4689 54.0683 25.5426 54.2738 25.6605C54.4792 25.7784 54.6601 25.9382 54.8058 26.1304C54.9514 26.3227 55.0589 26.5435 55.1219 26.7798C55.1849 27.0162 55.2021 27.2634 55.1725 27.5068C55.0941 27.9575 54.8634 28.3635 54.5226 28.6506C54.1818 28.9377 53.7537 29.0867 53.3166 29.0703" fill="#019BFF"/>
</g>
</svg>
