<svg xmlns="http://www.w3.org/2000/svg" xmlns:xlink="http://www.w3.org/1999/xlink" version="1.1" style="shape-rendering:geometricPrecision; text-rendering:geometricPrecision; image-rendering:optimizeQuality; fill-rule:evenodd; clip-rule:evenodd" viewBox="92.25 91.5 315.25 315.25">
<g><path style="opacity:0.99" fill="#feab3d" d="M 244.5,91.5 C 302.142,91.7347 347.642,115.068 381,161.5C 416.333,220.165 416.333,278.832 381,337.5C 340.27,392.869 285.77,415.035 217.5,404C 152.004,387.837 111.171,347.004 95,281.5C 84.2354,215.427 105.069,161.927 157.5,121C 183.679,102.663 212.679,92.8295 244.5,91.5 Z"/></g>
<g><path style="opacity:1" fill="#95b22d" d="M 320.5,143.5 C 320.721,145.664 321.721,147.33 323.5,148.5C 322.121,150.597 320.455,150.93 318.5,149.5C 318.912,147.027 317.912,145.694 315.5,145.5C 315.858,143.299 317.192,141.965 319.5,141.5C 320.298,141.957 320.631,142.624 320.5,143.5 Z"/></g>
<g><path style="opacity:1" fill="#684617" d="M 322.5,142.5 C 322.5,143.5 322.5,144.5 322.5,145.5C 324.483,145.157 325.817,145.824 326.5,147.5C 325.609,148.11 324.609,148.443 323.5,148.5C 321.721,147.33 320.721,145.664 320.5,143.5C 321.167,143.167 321.833,142.833 322.5,142.5 Z"/></g>
<g><path style="opacity:1" fill="#b4772a" d="M 326.5,147.5 C 325.817,145.824 324.483,145.157 322.5,145.5C 322.5,144.5 322.5,143.5 322.5,142.5C 323.251,141.427 324.251,141.26 325.5,142C 326.167,143.333 327.167,144.333 328.5,145C 327.934,145.995 327.267,146.828 326.5,147.5 Z"/></g>
<g><path style="opacity:1" fill="#9a6523" d="M 346.5,167.5 C 345.066,165.622 343.399,164.955 341.5,165.5C 341.859,161.074 343.693,160.407 347,163.5C 347.333,163.167 347.667,162.833 348,162.5C 348.034,164.18 348.201,165.68 348.5,167C 347.906,167.464 347.239,167.631 346.5,167.5 Z"/></g>
<g><path style="opacity:1" fill="#402910" d="M 341.5,165.5 C 343.399,164.955 345.066,165.622 346.5,167.5C 346.5,168.167 346.167,168.5 345.5,168.5C 344.167,168.5 342.833,168.5 341.5,168.5C 341.5,167.5 341.5,166.5 341.5,165.5 Z"/></g>
<g><path style="opacity:1" fill="#91b12c" d="M 341.5,165.5 C 341.5,166.5 341.5,167.5 341.5,168.5C 342.833,168.5 344.167,168.5 345.5,168.5C 346.741,171.296 345.741,172.963 342.5,173.5C 342.306,171.088 340.973,170.088 338.5,170.5C 337.179,167.765 338.179,166.098 341.5,165.5 Z"/></g>
<g><path style="opacity:1" fill="#d79475" d="M 313.5,198.5 C 312.888,202.139 310.888,203.139 307.5,201.5C 305.805,202.174 304.138,202.841 302.5,203.5C 300.253,203.915 298.086,204.582 296,205.5C 295.167,205.167 294.333,204.833 293.5,204.5C 293.043,202.402 292.043,200.736 290.5,199.5C 285.835,196.834 283.168,192.834 282.5,187.5C 283.375,185.432 284.541,183.432 286,181.5C 286.186,178.964 286.686,176.631 287.5,174.5C 287.351,175.552 287.517,176.552 288,177.5C 298.627,168.333 307.294,169.999 314,182.5C 314.734,186.965 314.234,191.299 312.5,195.5C 312.685,196.584 313.018,197.584 313.5,198.5 Z"/></g>
<g><path style="opacity:1" fill="#dd9a71" d="M 278.5,180.5 C 276.379,180.325 274.379,180.659 272.5,181.5C 270.855,180.521 269.521,179.188 268.5,177.5C 269.744,174.949 271.244,172.616 273,170.5C 274.676,171.061 276.009,172.061 277,173.5C 277.333,173.167 277.667,172.833 278,172.5C 278.497,175.146 278.664,177.813 278.5,180.5 Z"/></g>
<g><path style="opacity:1" fill="#2c1a0f" d="M 315.5,145.5 C 317.912,145.694 318.912,147.027 318.5,149.5C 315.302,150.761 312.969,152.927 311.5,156C 309.117,156.065 308.45,156.898 309.5,158.5C 307.744,160.191 307.244,162.191 308,164.5C 315.356,167.856 320.689,173.189 324,180.5C 325.954,178.566 328.12,178.233 330.5,179.5C 331.386,178.675 331.719,177.675 331.5,176.5C 333.995,175.801 336.328,174.801 338.5,173.5C 338.5,172.5 338.5,171.5 338.5,170.5C 340.973,170.088 342.306,171.088 342.5,173.5C 341.791,174.404 340.791,174.737 339.5,174.5C 339.5,175.5 339.5,176.5 339.5,177.5C 338.167,177.5 336.833,177.5 335.5,177.5C 335.5,178.833 335.5,180.167 335.5,181.5C 330.695,182.281 326.361,184.114 322.5,187C 321.218,190.399 319.551,193.566 317.5,196.5C 316.167,197.167 314.833,197.833 313.5,198.5C 313.018,197.584 312.685,196.584 312.5,195.5C 314.234,191.299 314.734,186.965 314,182.5C 307.294,169.999 298.627,168.333 288,177.5C 287.517,176.552 287.351,175.552 287.5,174.5C 290.534,168.982 295.201,165.982 301.5,165.5C 302.431,160.406 304.265,155.74 307,151.5C 310.633,150.525 313.466,148.525 315.5,145.5 Z"/></g>
<g><path style="opacity:1" fill="#6c3f15" d="M 257.5,184.5 C 255.088,184.306 254.088,182.973 254.5,180.5C 256.114,179.729 257.614,178.729 259,177.5C 261.803,178.109 262.803,179.775 262,182.5C 260.67,183.582 259.17,184.249 257.5,184.5 Z"/></g>
<g><path style="opacity:1" fill="#ad6297" d="M 278.5,180.5 C 279.551,182.929 280.884,185.262 282.5,187.5C 283.168,192.834 285.835,196.834 290.5,199.5C 289.677,201.455 289.51,203.455 290,205.5C 292.533,205.95 294.7,206.95 296.5,208.5C 294.379,208.325 292.379,208.659 290.5,209.5C 289.432,208.566 288.099,208.232 286.5,208.5C 279.976,200.451 275.309,191.451 272.5,181.5C 274.379,180.659 276.379,180.325 278.5,180.5 Z"/></g>
<g><path style="opacity:1" fill="#453728" d="M 291.5,179.5 C 294.647,180.755 294.98,182.421 292.5,184.5C 291.548,182.955 291.215,181.288 291.5,179.5 Z"/></g>
<g><path style="opacity:1" fill="#b53029" d="M 254.5,180.5 C 254.088,182.973 255.088,184.306 257.5,184.5C 257.267,186.062 256.6,187.395 255.5,188.5C 253.824,187.817 253.157,186.483 253.5,184.5C 252.5,184.5 251.5,184.5 250.5,184.5C 250.833,182.167 252.167,180.833 254.5,180.5 Z"/></g>
<g><path style="opacity:1" fill="#633a15" d="M 250.5,184.5 C 251.5,184.5 252.5,184.5 253.5,184.5C 253.157,186.483 253.824,187.817 255.5,188.5C 262.233,189.029 267.733,192.029 272,197.5C 273.536,202.415 275.036,207.248 276.5,212C 279.367,212.801 282.034,212.634 284.5,211.5C 287.248,211.402 287.914,212.402 286.5,214.5C 285.833,214.5 285.167,214.5 284.5,214.5C 282.438,214.872 280.771,215.205 279.5,215.5C 277.4,215.523 275.567,214.856 274,213.5C 272.024,216.311 269.857,218.978 267.5,221.5C 267.167,221.5 266.833,221.5 266.5,221.5C 264.768,218.888 263.268,219.221 262,222.5C 262.745,218.907 263.078,215.24 263,211.5C 262.598,210.128 262.098,208.795 261.5,207.5C 259.291,206.937 257.791,205.604 257,203.5C 256.333,204.833 255.667,204.833 255,203.5C 254.506,201.866 254.34,200.199 254.5,198.5C 250.869,198.968 247.535,198.301 244.5,196.5C 242.481,198.19 240.481,199.856 238.5,201.5C 239.99,193.959 243.99,188.292 250.5,184.5 Z"/></g>
<g><path style="opacity:1" fill="#db9973" d="M 329.5,198.5 C 328.864,196.205 327.531,194.539 325.5,193.5C 326.202,191.443 326.535,189.443 326.5,187.5C 328.967,188.874 330.801,188.207 332,185.5C 339.792,189.191 338.959,193.524 329.5,198.5 Z"/></g>
<g><path style="opacity:1" fill="#665648" d="M 304.5,187.5 C 307.389,187.999 308.056,189.499 306.5,192C 305.552,192.483 304.552,192.649 303.5,192.5C 303.366,190.708 303.699,189.042 304.5,187.5 Z"/></g>
<g><path style="opacity:1" fill="#fecf9f" d="M 232.5,197.5 C 231.238,200.071 229.905,200.071 228.5,197.5C 227.478,197.855 226.811,198.522 226.5,199.5C 224.704,198.207 223.037,196.707 221.5,195C 222.448,194.517 223.448,194.351 224.5,194.5C 224.579,193.07 224.246,191.736 223.5,190.5C 224.96,188.578 226.627,187.911 228.5,188.5C 231.301,190.72 232.634,193.72 232.5,197.5 Z"/></g>
<g><path style="opacity:1" fill="#a34f50" d="M 291.5,191.5 C 293.605,192.868 295.939,193.868 298.5,194.5C 298.167,195.5 297.5,196.167 296.5,196.5C 295.15,195.05 293.484,194.383 291.5,194.5C 291.5,193.5 291.5,192.5 291.5,191.5 Z"/></g>
<g><path style="opacity:1" fill="#ae639a" d="M 325.5,193.5 C 327.531,194.539 328.864,196.205 329.5,198.5C 322.76,202.741 315.76,206.407 308.5,209.5C 308.336,212.187 308.503,214.854 309,217.5C 310.193,219.497 311.693,221.164 313.5,222.5C 312.833,223.5 312.167,224.5 311.5,225.5C 310.167,226.5 308.833,227.5 307.5,228.5C 300.731,231.776 293.731,232.276 286.5,230C 284.676,229.34 283.343,228.173 282.5,226.5C 287.974,223.148 288.64,219.148 284.5,214.5C 285.167,214.5 285.833,214.5 286.5,214.5C 286.917,215.124 287.584,215.457 288.5,215.5C 289.713,215.253 290.38,214.586 290.5,213.5C 292.857,213.663 295.19,213.497 297.5,213C 297.53,211.571 297.197,210.071 296.5,208.5C 300.349,208.981 302.349,207.314 302.5,203.5C 304.138,202.841 305.805,202.174 307.5,201.5C 310.888,203.139 312.888,202.139 313.5,198.5C 314.833,197.833 316.167,197.167 317.5,196.5C 320.167,195.5 322.833,194.5 325.5,193.5 Z"/></g>
<g><path style="opacity:1" fill="#f9ca51" d="M 211.5,222.5 C 209.958,221.699 208.292,221.366 206.5,221.5C 206.652,217.199 205.318,216.199 202.5,218.5C 201.571,217.311 201.238,215.978 201.5,214.5C 199.801,214.62 198.135,214.954 196.5,215.5C 195.5,214.833 194.5,214.167 193.5,213.5C 190.384,214.694 187.384,214.36 184.5,212.5C 182.253,213.374 179.92,213.708 177.5,213.5C 175.451,213.294 175.117,212.461 176.5,211C 175.572,210.612 174.905,209.945 174.5,209C 176.662,205.821 178.662,202.654 180.5,199.5C 186.111,198.256 191.777,197.256 197.5,196.5C 207.584,198.422 213.917,204.255 216.5,214C 214.368,215.948 212.702,218.782 211.5,222.5 Z"/></g>
<g><path style="opacity:1" fill="#f5c49b" d="M 266.5,221.5 C 264.612,222.94 263.945,224.607 264.5,226.5C 261.995,222.71 259.662,222.71 257.5,226.5C 253.21,225.876 248.876,225.71 244.5,226C 243.809,224.933 243.309,223.766 243,222.5C 236.096,218.351 233.596,212.684 235.5,205.5C 236.488,204.205 237.488,202.872 238.5,201.5C 240.481,199.856 242.481,198.19 244.5,196.5C 247.535,198.301 250.869,198.968 254.5,198.5C 254.34,200.199 254.506,201.866 255,203.5C 255.667,204.833 256.333,204.833 257,203.5C 257.791,205.604 259.291,206.937 261.5,207.5C 262.098,208.795 262.598,210.128 263,211.5C 263.078,215.24 262.745,218.907 262,222.5C 263.268,219.221 264.768,218.888 266.5,221.5 Z"/></g>
<g><path style="opacity:1" fill="#f4c3cc" d="M 290.5,199.5 C 292.043,200.736 293.043,202.402 293.5,204.5C 294.333,204.833 295.167,205.167 296,205.5C 298.086,204.582 300.253,203.915 302.5,203.5C 302.349,207.314 300.349,208.981 296.5,208.5C 294.7,206.95 292.533,205.95 290,205.5C 289.51,203.455 289.677,201.455 290.5,199.5 Z"/></g>
<g><path style="opacity:1" fill="#b83139" d="M 286.5,208.5 C 288.099,208.232 289.432,208.566 290.5,209.5C 289.314,210.961 289.314,212.295 290.5,213.5C 290.38,214.586 289.713,215.253 288.5,215.5C 287.584,215.457 286.917,215.124 286.5,214.5C 287.914,212.402 287.248,211.402 284.5,211.5C 284.932,210.29 285.599,209.29 286.5,208.5 Z"/></g>
<g><path style="opacity:1" fill="#633819" d="M 296.5,208.5 C 297.197,210.071 297.53,211.571 297.5,213C 295.19,213.497 292.857,213.663 290.5,213.5C 289.314,212.295 289.314,210.961 290.5,209.5C 292.379,208.659 294.379,208.325 296.5,208.5 Z"/></g>
<g><path style="opacity:1" fill="#fddc90" d="M 345.5,217.5 C 345.856,220.564 345.023,223.231 343,225.5C 339.636,230.029 335.803,234.029 331.5,237.5C 327.394,230.727 321.727,225.727 314.5,222.5C 318.32,219.53 322.32,216.696 326.5,214C 333.881,210.007 340.215,211.173 345.5,217.5 Z"/></g>
<g><path style="opacity:1" fill="#f8c69d" d="M 211.5,222.5 C 211.875,226.766 210.041,229.433 206,230.5C 205.392,232.154 204.892,233.821 204.5,235.5C 203.833,235.5 203.5,235.833 203.5,236.5C 200.047,236.537 197.381,237.871 195.5,240.5C 193.5,241.833 191.5,241.833 189.5,240.5C 188.232,238.953 186.565,237.953 184.5,237.5C 183.833,237.5 183.167,237.5 182.5,237.5C 180.229,235.734 178.063,233.734 176,231.5C 175.179,225.35 175.679,219.35 177.5,213.5C 179.92,213.708 182.253,213.374 184.5,212.5C 187.384,214.36 190.384,214.694 193.5,213.5C 194.5,214.167 195.5,214.833 196.5,215.5C 198.135,214.954 199.801,214.62 201.5,214.5C 201.238,215.978 201.571,217.311 202.5,218.5C 205.318,216.199 206.652,217.199 206.5,221.5C 208.292,221.366 209.958,221.699 211.5,222.5 Z"/></g>
<g><path style="opacity:1" fill="#f6a745" d="M 279.5,215.5 C 279.5,216.833 279.5,218.167 279.5,219.5C 278.178,219.67 277.011,219.337 276,218.5C 275.536,219.094 275.369,219.761 275.5,220.5C 272.856,220.16 270.523,220.827 268.5,222.5C 267.893,222.376 267.56,222.043 267.5,221.5C 269.857,218.978 272.024,216.311 274,213.5C 275.567,214.856 277.4,215.523 279.5,215.5 Z"/></g>
<g><path style="opacity:1" fill="#fffbf5" d="M 331.5,213.5 C 332.5,213.5 333.5,213.5 334.5,213.5C 334.67,214.822 334.337,215.989 333.5,217C 329.623,219.438 325.623,221.605 321.5,223.5C 320.068,223.267 319.568,222.6 320,221.5C 323.812,218.688 327.646,216.021 331.5,213.5 Z"/></g>
<g><path style="opacity:1" fill="#f8c7a1" d="M 284.5,214.5 C 288.64,219.148 287.974,223.148 282.5,226.5C 281.833,226.5 281.167,226.5 280.5,226.5C 278.81,224.481 277.144,222.481 275.5,220.5C 275.369,219.761 275.536,219.094 276,218.5C 277.011,219.337 278.178,219.67 279.5,219.5C 279.5,218.167 279.5,216.833 279.5,215.5C 280.771,215.205 282.438,214.872 284.5,214.5 Z"/></g>
<g><path style="opacity:1" fill="#fed177" d="M 345.5,217.5 C 356.919,227.673 357.252,238.173 346.5,249C 342.805,251.51 339.138,254.01 335.5,256.5C 335.582,249.834 334.249,243.5 331.5,237.5C 335.803,234.029 339.636,230.029 343,225.5C 345.023,223.231 345.856,220.564 345.5,217.5 Z"/></g>
<g><path style="opacity:1" fill="#433527" d="M 179.5,220.5 C 180.5,220.5 181.5,220.5 182.5,220.5C 182.5,221.833 182.5,223.167 182.5,224.5C 181.5,224.5 180.5,224.5 179.5,224.5C 179.5,223.167 179.5,221.833 179.5,220.5 Z"/></g>
<g><path style="opacity:1" fill="#47392a" d="M 194.5,221.5 C 199.536,223.162 199.536,224.495 194.5,225.5C 194.5,224.167 194.5,222.833 194.5,221.5 Z"/></g>
<g><path style="opacity:1" fill="#c33a39" d="M 232.5,197.5 C 232.897,200.446 233.897,203.113 235.5,205.5C 233.596,212.684 236.096,218.351 243,222.5C 243.309,223.766 243.809,224.933 244.5,226C 248.876,225.71 253.21,225.876 257.5,226.5C 259.662,222.71 261.995,222.71 264.5,226.5C 263.945,224.607 264.612,222.94 266.5,221.5C 266.833,221.5 267.167,221.5 267.5,221.5C 267.56,222.043 267.893,222.376 268.5,222.5C 270.523,220.827 272.856,220.16 275.5,220.5C 277.144,222.481 278.81,224.481 280.5,226.5C 280.5,227.167 280.167,227.5 279.5,227.5C 275.925,229.286 272.258,229.619 268.5,228.5C 265.74,231.199 262.406,232.533 258.5,232.5C 258.183,237.154 258.85,241.654 260.5,246C 260.257,246.902 259.923,247.735 259.5,248.5C 258.85,248.196 258.183,247.863 257.5,247.5C 256.528,249.636 254.861,250.803 252.5,251C 246.796,251.687 241.13,251.521 235.5,250.5C 235.5,249.5 235.5,248.5 235.5,247.5C 234.5,247.5 233.5,247.5 232.5,247.5C 231.962,245.883 231.629,244.216 231.5,242.5C 232.946,236.944 234.946,231.611 237.5,226.5C 235.307,222.621 232.974,218.788 230.5,215C 230.833,214.667 231.167,214.333 231.5,214C 228.27,209.473 226.604,204.64 226.5,199.5C 226.811,198.522 227.478,197.855 228.5,197.5C 229.905,200.071 231.238,200.071 232.5,197.5 Z"/></g>
<g><path style="opacity:1" fill="#e7aeb0" d="M 229.5,205.5 C 231.337,205.639 231.67,206.306 230.5,207.5C 229.702,207.043 229.369,206.376 229.5,205.5 Z"/></g>
<g><path style="opacity:1" fill="#4d5d63" d="M 313.5,222.5 C 313.833,222.5 314.167,222.5 314.5,222.5C 321.727,225.727 327.394,230.727 331.5,237.5C 334.249,243.5 335.582,249.834 335.5,256.5C 334.205,257.488 332.872,258.488 331.5,259.5C 331.817,255.298 331.483,251.298 330.5,247.5C 330.154,243.148 328.488,239.481 325.5,236.5C 321.986,231.314 317.32,227.648 311.5,225.5C 312.167,224.5 312.833,223.5 313.5,222.5 Z"/></g>
<g><path style="opacity:1" fill="#e9b5b7" d="M 271.5,224.5 C 273.337,224.639 273.67,225.306 272.5,226.5C 271.702,226.043 271.369,225.376 271.5,224.5 Z"/></g>
<g><path style="opacity:1" fill="#284453" d="M 280.5,226.5 C 281.167,226.5 281.833,226.5 282.5,226.5C 283.343,228.173 284.676,229.34 286.5,230C 293.731,232.276 300.731,231.776 307.5,228.5C 307.037,231.221 306.371,233.888 305.5,236.5C 302.112,239.597 299.445,243.264 297.5,247.5C 294.574,246.302 291.574,245.302 288.5,244.5C 288.5,242.5 288.5,240.5 288.5,238.5C 284.687,239.438 281.021,240.771 277.5,242.5C 276.396,240.611 275.063,238.945 273.5,237.5C 273.351,236.448 273.517,235.448 274,234.5C 276.325,232.499 278.158,230.166 279.5,227.5C 280.167,227.5 280.5,227.167 280.5,226.5 Z"/></g>
<g><path style="opacity:1" fill="#f9a83e" d="M 279.5,227.5 C 278.158,230.166 276.325,232.499 274,234.5C 273.517,235.448 273.351,236.448 273.5,237.5C 272.849,236.909 272.182,236.243 271.5,235.5C 270.14,238.228 268.307,240.561 266,242.5C 264.715,242.05 263.548,241.383 262.5,240.5C 262.167,240.833 261.833,241.167 261.5,241.5C 262.325,243.801 262.992,246.135 263.5,248.5C 262.508,248.328 261.842,248.662 261.5,249.5C 260.833,249.5 260.167,249.5 259.5,249.5C 259.5,249.167 259.5,248.833 259.5,248.5C 259.923,247.735 260.257,246.902 260.5,246C 258.85,241.654 258.183,237.154 258.5,232.5C 262.406,232.533 265.74,231.199 268.5,228.5C 272.258,229.619 275.925,229.286 279.5,227.5 Z"/></g>
<g><path style="opacity:1" fill="#03a9a7" d="M 311.5,225.5 C 317.32,227.648 321.986,231.314 325.5,236.5C 324.525,238.193 323.192,239.693 321.5,241C 314.5,245.167 307.5,249.333 300.5,253.5C 298.784,249.627 299.617,246.294 303,243.5C 304.411,241.35 305.245,239.016 305.5,236.5C 306.371,233.888 307.037,231.221 307.5,228.5C 308.833,227.5 310.167,226.5 311.5,225.5 Z"/></g>
<g><path style="opacity:1" fill="#9f4d4f" d="M 196.5,231.5 C 192.998,231.076 190.665,232.41 189.5,235.5C 186.213,234.727 184.713,232.727 185,229.5C 187.401,230.602 189.901,230.769 192.5,230C 193.308,228.294 194.641,227.461 196.5,227.5C 196.5,228.833 196.5,230.167 196.5,231.5 Z"/></g>
<g><path style="opacity:1" fill="#f48d89" d="M 196.5,231.5 C 195.555,234.987 193.222,236.32 189.5,235.5C 190.665,232.41 192.998,231.076 196.5,231.5 Z"/></g>
<g><path style="opacity:1" fill="#829c44" d="M 203.5,236.5 C 204.404,237.209 204.737,238.209 204.5,239.5C 201.545,240.159 198.545,240.492 195.5,240.5C 197.381,237.871 200.047,236.537 203.5,236.5 Z"/></g>
<g><path style="opacity:1" fill="#189294" d="M 305.5,236.5 C 305.245,239.016 304.411,241.35 303,243.5C 299.617,246.294 298.784,249.627 300.5,253.5C 307.5,249.333 314.5,245.167 321.5,241C 323.192,239.693 324.525,238.193 325.5,236.5C 328.488,239.481 330.154,243.148 330.5,247.5C 327.018,251.129 323.018,254.296 318.5,257C 299.642,268.597 279.975,278.263 259.5,286C 261.227,284.611 262.561,282.944 263.5,281C 262.356,278.367 261.023,275.867 259.5,273.5C 268.962,270.437 277.962,266.271 286.5,261C 284.263,259.6 282.596,257.767 281.5,255.5C 283.95,256.777 286.283,258.277 288.5,260C 289.5,260.667 290.5,260.667 291.5,260C 293.383,255.735 295.383,251.569 297.5,247.5C 299.445,243.264 302.112,239.597 305.5,236.5 Z"/></g>
<g><path style="opacity:1" fill="#efc498" d="M 163.5,241.5 C 163.065,243.297 163.065,245.297 163.5,247.5C 160.824,248.008 158.157,248.175 155.5,248C 156.357,247.311 157.023,246.478 157.5,245.5C 152.261,241.677 152.594,238.677 158.5,236.5C 160.855,237.522 162.522,239.188 163.5,241.5 Z"/></g>
<g><path style="opacity:1" fill="#394855" d="M 174.5,238.5 C 173.701,241.43 173.368,244.43 173.5,247.5C 172.5,247.5 171.5,247.5 170.5,247.5C 170.401,244.763 170.735,242.096 171.5,239.5C 172.391,238.89 173.391,238.557 174.5,238.5 Z"/></g>
<g><path style="opacity:1" fill="#9fc745" d="M 174.5,238.5 C 175.167,238.5 175.833,238.5 176.5,238.5C 176.5,241.5 176.5,244.5 176.5,247.5C 175.5,247.5 174.5,247.5 173.5,247.5C 173.368,244.43 173.701,241.43 174.5,238.5 Z"/></g>
<g><path style="opacity:1" fill="#1fc0af" d="M 288.5,244.5 C 287.087,247.219 286.42,250.219 286.5,253.5C 284.585,253.216 282.919,253.549 281.5,254.5C 280.849,253.909 280.182,253.243 279.5,252.5C 271.91,256.244 264.243,259.577 256.5,262.5C 259.537,258.725 261.204,254.392 261.5,249.5C 261.842,248.662 262.508,248.328 263.5,248.5C 268.171,246.497 272.838,244.497 277.5,242.5C 281.021,240.771 284.687,239.438 288.5,238.5C 288.5,240.5 288.5,242.5 288.5,244.5 Z"/></g>
<g><path style="opacity:1" fill="#233754" d="M 203.5,236.5 C 203.5,235.833 203.833,235.5 204.5,235.5C 205.391,236.11 206.391,236.443 207.5,236.5C 205.874,239.246 205.207,242.246 205.5,245.5C 197.779,245.685 190.446,246.685 183.5,248.5C 182.833,248.5 182.167,248.5 181.5,248.5C 181.323,244.766 181.656,241.099 182.5,237.5C 183.167,237.5 183.833,237.5 184.5,237.5C 184.5,238.5 184.5,239.5 184.5,240.5C 186.167,240.5 187.833,240.5 189.5,240.5C 191.5,241.833 193.5,241.833 195.5,240.5C 198.545,240.492 201.545,240.159 204.5,239.5C 204.737,238.209 204.404,237.209 203.5,236.5 Z"/></g>
<g><path style="opacity:1" fill="#7a9343" d="M 184.5,237.5 C 186.565,237.953 188.232,238.953 189.5,240.5C 187.833,240.5 186.167,240.5 184.5,240.5C 184.5,239.5 184.5,238.5 184.5,237.5 Z"/></g>
<g><path style="opacity:1" fill="#e9c921" d="M 273.5,237.5 C 275.063,238.945 276.396,240.611 277.5,242.5C 272.838,244.497 268.171,246.497 263.5,248.5C 262.992,246.135 262.325,243.801 261.5,241.5C 261.833,241.167 262.167,240.833 262.5,240.5C 263.548,241.383 264.715,242.05 266,242.5C 268.307,240.561 270.14,238.228 271.5,235.5C 272.182,236.243 272.849,236.909 273.5,237.5 Z"/></g>
<g><path style="opacity:1" fill="#9bc146" d="M 171.5,239.5 C 170.735,242.096 170.401,244.763 170.5,247.5C 169.833,247.5 169.167,247.5 168.5,247.5C 168.5,245.167 168.5,242.833 168.5,240.5C 169.391,239.89 170.391,239.557 171.5,239.5 Z"/></g>
<g><path style="opacity:1" fill="#8aad48" d="M 179.5,237.5 C 180.5,237.5 181.5,237.5 182.5,237.5C 181.656,241.099 181.323,244.766 181.5,248.5C 180.391,248.443 179.391,248.11 178.5,247.5C 178.833,244.167 179.167,240.833 179.5,237.5 Z"/></g>
<g><path style="opacity:1" fill="#334455" d="M 215.5,239.5 C 216.492,239.328 217.158,239.662 217.5,240.5C 216.525,243.067 215.858,245.733 215.5,248.5C 214.833,248.167 214.167,247.833 213.5,247.5C 213.294,244.505 213.96,241.838 215.5,239.5 Z"/></g>
<g><path style="opacity:1" fill="#87ad49" d="M 199.5,241.5 C 201.288,241.215 202.955,241.548 204.5,242.5C 198.437,245.158 192.104,245.992 185.5,245C 185.043,244.586 184.709,244.086 184.5,243.5C 189.651,242.833 194.651,242.166 199.5,241.5 Z"/></g>
<g><path style="opacity:1" fill="#9ec246" d="M 212.5,237.5 C 213.71,237.932 214.71,238.599 215.5,239.5C 213.96,241.838 213.294,244.505 213.5,247.5C 212.833,247.5 212.167,247.5 211.5,247.5C 211.46,244.119 211.793,240.786 212.5,237.5 Z"/></g>
<g><path style="opacity:1" fill="#98bd47" d="M 217.5,240.5 C 218.391,241.11 219.391,241.443 220.5,241.5C 218.949,243.913 218.283,246.579 218.5,249.5C 217.609,248.89 216.609,248.557 215.5,248.5C 215.858,245.733 216.525,243.067 217.5,240.5 Z"/></g>
<g><path style="opacity:1" fill="#efc893" d="M 231.5,242.5 C 231.629,244.216 231.962,245.883 232.5,247.5C 231.581,250.089 229.914,252.089 227.5,253.5C 224.355,252.426 221.355,251.093 218.5,249.5C 220.167,247.5 221.833,245.5 223.5,243.5C 224.117,243.611 224.617,243.944 225,244.5C 225.805,240.047 227.972,239.38 231.5,242.5 Z"/></g>
<g><path style="opacity:1" fill="#97b74a" d="M 166.5,240.5 C 165.781,242.764 165.448,245.097 165.5,247.5C 164.833,247.5 164.167,247.5 163.5,247.5C 163.065,245.297 163.065,243.297 163.5,241.5C 164.391,240.89 165.391,240.557 166.5,240.5 Z"/></g>
<g><path style="opacity:1" fill="#374b54" d="M 179.5,237.5 C 179.167,240.833 178.833,244.167 178.5,247.5C 177.833,247.5 177.167,247.5 176.5,247.5C 176.5,244.5 176.5,241.5 176.5,238.5C 177.391,237.89 178.391,237.557 179.5,237.5 Z"/></g>
<g><path style="opacity:1" fill="#334554" d="M 166.5,240.5 C 167.167,240.5 167.833,240.5 168.5,240.5C 168.5,242.833 168.5,245.167 168.5,247.5C 167.5,247.5 166.5,247.5 165.5,247.5C 165.448,245.097 165.781,242.764 166.5,240.5 Z"/></g>
<g><path style="opacity:1" fill="#efd023" d="M 288.5,244.5 C 291.574,245.302 294.574,246.302 297.5,247.5C 295.383,251.569 293.383,255.735 291.5,260C 290.5,260.667 289.5,260.667 288.5,260C 286.283,258.277 283.95,256.777 281.5,255.5C 281.5,255.167 281.5,254.833 281.5,254.5C 282.919,253.549 284.585,253.216 286.5,253.5C 286.42,250.219 287.087,247.219 288.5,244.5 Z"/></g>
<g><path style="opacity:1" fill="#8bb248" d="M 207.5,236.5 C 208.492,236.328 209.158,236.662 209.5,237.5C 208.3,240.702 208.3,243.869 209.5,247C 200.998,249.247 192.331,250.08 183.5,249.5C 183.5,249.167 183.5,248.833 183.5,248.5C 190.446,246.685 197.779,245.685 205.5,245.5C 205.207,242.246 205.874,239.246 207.5,236.5 Z"/></g>
<g><path style="opacity:1" fill="#f7aa3e" d="M 211.5,247.5 C 212.167,247.5 212.833,247.5 213.5,247.5C 214.167,247.833 214.833,248.167 215.5,248.5C 216.609,248.557 217.609,248.89 218.5,249.5C 221.355,251.093 224.355,252.426 227.5,253.5C 225.905,256.285 224.905,259.285 224.5,262.5C 222.321,263.677 219.987,264.677 217.5,265.5C 216.833,265.5 216.167,265.5 215.5,265.5C 215.5,265.167 215.5,264.833 215.5,264.5C 215.5,263.5 215.5,262.5 215.5,261.5C 215.5,261.167 215.5,260.833 215.5,260.5C 214.89,259.609 214.557,258.609 214.5,257.5C 214.5,256.833 214.167,256.5 213.5,256.5C 213.768,254.901 213.434,253.568 212.5,252.5C 212.5,252.167 212.5,251.833 212.5,251.5C 212.167,250.833 211.833,250.167 211.5,249.5C 211.5,248.833 211.5,248.167 211.5,247.5 Z"/></g>
<g><path style="opacity:1" fill="#3a465a" d="M 220.5,241.5 C 221.71,241.932 222.71,242.599 223.5,243.5C 221.833,245.5 220.167,247.5 218.5,249.5C 218.283,246.579 218.949,243.913 220.5,241.5 Z"/></g>
<g><path style="opacity:1" fill="#304255" d="M 209.5,237.5 C 210.5,237.5 211.5,237.5 212.5,237.5C 211.793,240.786 211.46,244.119 211.5,247.5C 211.5,248.167 211.5,248.833 211.5,249.5C 204.759,250.984 197.926,251.984 191,252.5C 188.413,252.445 185.913,252.111 183.5,251.5C 183.5,250.833 183.5,250.167 183.5,249.5C 192.331,250.08 200.998,249.247 209.5,247C 208.3,243.869 208.3,240.702 209.5,237.5 Z"/></g>
<g><path style="opacity:1" fill="#524540" d="M 232.5,247.5 C 233.5,247.5 234.5,247.5 235.5,247.5C 235.5,248.5 235.5,249.5 235.5,250.5C 241.13,251.521 246.796,251.687 252.5,251C 254.861,250.803 256.528,249.636 257.5,247.5C 258.183,247.863 258.85,248.196 259.5,248.5C 259.5,248.833 259.5,249.167 259.5,249.5C 258.426,255.648 255.759,260.981 251.5,265.5C 252.456,267.075 253.123,268.742 253.5,270.5C 251.125,271.902 248.791,273.235 246.5,274.5C 244.833,272.5 243.167,270.5 241.5,268.5C 240.069,265.006 239.236,261.339 239,257.5C 234.36,259.702 229.526,261.369 224.5,262.5C 224.905,259.285 225.905,256.285 227.5,253.5C 229.914,252.089 231.581,250.089 232.5,247.5 Z"/></g>
<g><path style="opacity:1" fill="#1e8388" d="M 330.5,247.5 C 331.483,251.298 331.817,255.298 331.5,259.5C 290.39,289.208 244.723,308.875 194.5,318.5C 196.437,315.04 195.77,312.373 192.5,310.5C 192.389,309.883 192.056,309.383 191.5,309C 195.347,307.384 199.347,306.384 203.5,306C 202.244,305.583 201.577,304.75 201.5,303.5C 205.63,303.311 208.963,301.645 211.5,298.5C 211.376,297.893 211.043,297.56 210.5,297.5C 209.437,293.409 208.77,289.242 208.5,285C 208.3,282.134 208.967,279.634 210.5,277.5C 211.398,278.158 212.398,278.824 213.5,279.5C 211.906,282.991 211.239,286.658 211.5,290.5C 212.341,293.519 213.341,296.519 214.5,299.5C 211.506,301.79 208.173,303.624 204.5,305C 218.022,301.828 231.355,297.828 244.5,293C 247.055,291.556 249.721,290.389 252.5,289.5C 252.137,288.817 251.804,288.15 251.5,287.5C 255.261,286.453 258.594,284.619 261.5,282C 259.686,279.521 258.019,277.021 256.5,274.5C 256.912,272.027 255.912,270.694 253.5,270.5C 253.123,268.742 252.456,267.075 251.5,265.5C 255.759,260.981 258.426,255.648 259.5,249.5C 260.167,249.5 260.833,249.5 261.5,249.5C 261.204,254.392 259.537,258.725 256.5,262.5C 255.903,262.735 255.57,263.235 255.5,264C 256.984,267.13 258.317,270.297 259.5,273.5C 261.023,275.867 262.356,278.367 263.5,281C 262.561,282.944 261.227,284.611 259.5,286C 279.975,278.263 299.642,268.597 318.5,257C 323.018,254.296 327.018,251.129 330.5,247.5 Z"/></g>
<g><path style="opacity:1" fill="#91b648" d="M 211.5,249.5 C 211.833,250.167 212.167,250.833 212.5,251.5C 202.976,253.497 193.643,255.164 184.5,256.5C 183.549,255.081 183.216,253.415 183.5,251.5C 185.913,252.111 188.413,252.445 191,252.5C 197.926,251.984 204.759,250.984 211.5,249.5 Z"/></g>
<g><path style="opacity:1" fill="#00a8a7" d="M 281.5,254.5 C 281.5,254.833 281.5,255.167 281.5,255.5C 282.596,257.767 284.263,259.6 286.5,261C 277.962,266.271 268.962,270.437 259.5,273.5C 258.317,270.297 256.984,267.13 255.5,264C 255.57,263.235 255.903,262.735 256.5,262.5C 264.243,259.577 271.91,256.244 279.5,252.5C 280.182,253.243 280.849,253.909 281.5,254.5 Z"/></g>
<g><path style="opacity:1" fill="#2c4056" d="M 212.5,251.5 C 212.5,251.833 212.5,252.167 212.5,252.5C 203.718,257.227 194.385,258.56 184.5,256.5C 193.643,255.164 202.976,253.497 212.5,251.5 Z"/></g>
<g><path style="opacity:1" fill="#98c046" d="M 212.5,252.5 C 213.434,253.568 213.768,254.901 213.5,256.5C 203.987,258.868 194.32,259.868 184.5,259.5C 184.5,258.5 184.5,257.5 184.5,256.5C 194.385,258.56 203.718,257.227 212.5,252.5 Z"/></g>
<g><path style="opacity:1" fill="#03c0b4" d="M 241.5,268.5 C 232.761,272.103 223.761,274.936 214.5,277C 217.014,273.587 218.014,269.753 217.5,265.5C 219.987,264.677 222.321,263.677 224.5,262.5C 229.526,261.369 234.36,259.702 239,257.5C 239.236,261.339 240.069,265.006 241.5,268.5 Z"/></g>
<g><path style="opacity:1" fill="#2c4056" d="M 213.5,256.5 C 214.167,256.5 214.5,256.833 214.5,257.5C 204.899,261.154 194.899,262.487 184.5,261.5C 184.5,260.833 184.5,260.167 184.5,259.5C 194.32,259.868 203.987,258.868 213.5,256.5 Z"/></g>
<g><path style="opacity:1" fill="#92b948" d="M 214.5,257.5 C 214.557,258.609 214.89,259.609 215.5,260.5C 210.181,261.663 204.847,262.829 199.5,264C 194.448,264.726 189.448,264.559 184.5,263.5C 184.5,262.833 184.5,262.167 184.5,261.5C 194.899,262.487 204.899,261.154 214.5,257.5 Z"/></g>
<g><path style="opacity:1" fill="#293c56" d="M 215.5,260.5 C 215.5,260.833 215.5,261.167 215.5,261.5C 205.994,265.608 195.994,267.275 185.5,266.5C 184.89,265.609 184.557,264.609 184.5,263.5C 189.448,264.559 194.448,264.726 199.5,264C 204.847,262.829 210.181,261.663 215.5,260.5 Z"/></g>
<g><path style="opacity:1" fill="#646564" d="M 215.5,264.5 C 215.5,264.833 215.5,265.167 215.5,265.5C 213.832,269.505 212.165,273.505 210.5,277.5C 208.967,279.634 208.3,282.134 208.5,285C 208.77,289.242 209.437,293.409 210.5,297.5C 207.57,298.299 204.57,298.632 201.5,298.5C 199.735,292.66 197.735,286.993 195.5,281.5C 195.475,278.04 194.808,274.706 193.5,271.5C 188.181,272.926 182.848,274.259 177.5,275.5C 179.833,272.5 182.5,269.833 185.5,267.5C 195.809,269.398 205.809,268.398 215.5,264.5 Z"/></g>
<g><path style="opacity:1" fill="#98c047" d="M 215.5,261.5 C 215.5,262.5 215.5,263.5 215.5,264.5C 205.809,268.398 195.809,269.398 185.5,267.5C 185.5,267.167 185.5,266.833 185.5,266.5C 195.994,267.275 205.994,265.608 215.5,261.5 Z"/></g>
<g><path style="opacity:1" fill="#07a6a5" d="M 215.5,265.5 C 216.167,265.5 216.833,265.5 217.5,265.5C 218.014,269.753 217.014,273.587 214.5,277C 223.761,274.936 232.761,272.103 241.5,268.5C 243.167,270.5 244.833,272.5 246.5,274.5C 246.433,275.959 246.766,277.292 247.5,278.5C 236.174,284.275 224.174,288.275 211.5,290.5C 211.239,286.658 211.906,282.991 213.5,279.5C 212.398,278.824 211.398,278.158 210.5,277.5C 212.165,273.505 213.832,269.505 215.5,265.5 Z"/></g>
<g><path style="opacity:1" fill="#da9a82" d="M 253.5,270.5 C 255.912,270.694 256.912,272.027 256.5,274.5C 254.33,276.086 251.996,277.42 249.5,278.5C 248.833,278.5 248.167,278.5 247.5,278.5C 246.766,277.292 246.433,275.959 246.5,274.5C 248.791,273.235 251.125,271.902 253.5,270.5 Z"/></g>
<g><path style="opacity:1" fill="#12bfb2" d="M 195.5,281.5 C 190.859,284.873 185.526,286.373 179.5,286C 181.228,283.616 181.561,281.116 180.5,278.5C 179.893,278.624 179.56,278.957 179.5,279.5C 177.013,278.677 174.679,277.677 172.5,276.5C 174.117,275.962 175.784,275.629 177.5,275.5C 182.848,274.259 188.181,272.926 193.5,271.5C 194.808,274.706 195.475,278.04 195.5,281.5 Z"/></g>
<g><path style="opacity:1" fill="#6d3740" d="M 256.5,274.5 C 258.019,277.021 259.686,279.521 261.5,282C 258.594,284.619 255.261,286.453 251.5,287.5C 251.982,286.584 252.315,285.584 252.5,284.5C 251.511,282.506 250.511,280.506 249.5,278.5C 251.996,277.42 254.33,276.086 256.5,274.5 Z"/></g>
<g><path style="opacity:1" fill="#fce78f" d="M 172.5,276.5 C 174.679,277.677 177.013,278.677 179.5,279.5C 179.93,282.862 178.93,285.695 176.5,288C 179.036,288.186 181.369,288.686 183.5,289.5C 180.413,298.885 174.08,304.885 164.5,307.5C 163.232,303.233 160.565,300.233 156.5,298.5C 161.478,290.863 166.812,283.53 172.5,276.5 Z"/></g>
<g><path style="opacity:1" fill="#199395" d="M 247.5,278.5 C 248.167,278.5 248.833,278.5 249.5,278.5C 250.511,280.506 251.511,282.506 252.5,284.5C 252.315,285.584 251.982,286.584 251.5,287.5C 251.804,288.15 252.137,288.817 252.5,289.5C 249.721,290.389 247.055,291.556 244.5,293C 231.355,297.828 218.022,301.828 204.5,305C 208.173,303.624 211.506,301.79 214.5,299.5C 213.341,296.519 212.341,293.519 211.5,290.5C 224.174,288.275 236.174,284.275 247.5,278.5 Z"/></g>
<g><path style="opacity:1" fill="#fcdb78" d="M 183.5,289.5 C 184.5,289.5 185.5,289.5 186.5,289.5C 186.559,293.548 184.892,296.715 181.5,299C 184.692,299.197 187.692,300.03 190.5,301.5C 191.583,302.365 191.749,303.365 191,304.5C 189.833,306.167 188.667,307.833 187.5,309.5C 189.045,310.452 190.712,310.785 192.5,310.5C 195.77,312.373 196.437,315.04 194.5,318.5C 185.167,318.5 175.833,318.5 166.5,318.5C 166.802,315.941 166.468,313.607 165.5,311.5C 165.567,310.041 165.234,308.708 164.5,307.5C 174.08,304.885 180.413,298.885 183.5,289.5 Z"/></g>
<g><path style="opacity:1" fill="#209b9a" d="M 195.5,281.5 C 197.735,286.993 199.735,292.66 201.5,298.5C 200.847,299.807 200.18,301.14 199.5,302.5C 199.957,303.298 200.624,303.631 201.5,303.5C 201.577,304.75 202.244,305.583 203.5,306C 199.347,306.384 195.347,307.384 191.5,309C 192.056,309.383 192.389,309.883 192.5,310.5C 190.712,310.785 189.045,310.452 187.5,309.5C 188.667,307.833 189.833,306.167 191,304.5C 191.749,303.365 191.583,302.365 190.5,301.5C 187.692,300.03 184.692,299.197 181.5,299C 184.892,296.715 186.559,293.548 186.5,289.5C 185.5,289.5 184.5,289.5 183.5,289.5C 181.369,288.686 179.036,288.186 176.5,288C 178.93,285.695 179.93,282.862 179.5,279.5C 179.56,278.957 179.893,278.624 180.5,278.5C 181.561,281.116 181.228,283.616 179.5,286C 185.526,286.373 190.859,284.873 195.5,281.5 Z"/></g>
<g><path style="opacity:1" fill="#dfe5e6" d="M 210.5,297.5 C 211.043,297.56 211.376,297.893 211.5,298.5C 208.963,301.645 205.63,303.311 201.5,303.5C 200.624,303.631 199.957,303.298 199.5,302.5C 200.18,301.14 200.847,299.807 201.5,298.5C 204.57,298.632 207.57,298.299 210.5,297.5 Z"/></g>
<g><path style="opacity:1" fill="#120e09" d="M 156.5,298.5 C 160.565,300.233 163.232,303.233 164.5,307.5C 165.234,308.708 165.567,310.041 165.5,311.5C 165.5,313.5 165.5,315.5 165.5,317.5C 164.5,317.5 163.5,317.5 162.5,317.5C 157.113,317.595 151.78,317.095 146.5,316C 146.043,315.586 145.709,315.086 145.5,314.5C 149.177,309.138 152.843,303.804 156.5,298.5 Z"/></g>
<g><path style="opacity:1" fill="#303030" d="M 156.5,300.5 C 157.496,300.414 158.329,300.748 159,301.5C 160.064,306.878 158.231,311.044 153.5,314C 151.5,314.667 149.5,314.667 147.5,314C 150.634,309.557 153.634,305.057 156.5,300.5 Z"/></g>
<g><path style="opacity:1" fill="#8a652b" d="M 165.5,311.5 C 166.468,313.607 166.802,315.941 166.5,318.5C 164.901,318.768 163.568,318.434 162.5,317.5C 163.5,317.5 164.5,317.5 165.5,317.5C 165.5,315.5 165.5,313.5 165.5,311.5 Z"/></g>
</svg>