<svg version="1.0" preserveAspectRatio="xMidYMid meet" viewBox="91.5 49.49999881200001 233.25 260.999993736" zoomAndPan="magnify" xmlns:xlink="http://www.w3.org/1999/xlink" xmlns="http://www.w3.org/2000/svg" style="max-height: 500px" width="233.25" height="260.999993736"><defs><clipPath id="2f28de0b84"><path clip-rule="nonzero" d="M 95.863281 56.066406 L 320.113281 56.066406 L 320.113281 305.816406 L 95.863281 305.816406 Z M 95.863281 56.066406"/></clipPath><clipPath id="b0f45973dd"><path clip-rule="nonzero" d="M 140 86 L 320.113281 86 L 320.113281 305.816406 L 140 305.816406 Z M 140 86"/></clipPath><clipPath id="98fd3c38d2"><path clip-rule="nonzero" d="M 95.863281 192 L 236 192 L 236 305.816406 L 95.863281 305.816406 Z M 95.863281 192"/></clipPath><clipPath id="3b120e29ec"><path clip-rule="nonzero" d="M 151 247 L 236 247 L 236 305.816406 L 151 305.816406 Z M 151 247"/></clipPath></defs><g clip-path="url(#2f28de0b84)"><path fill-rule="nonzero" fill-opacity="1" d="M 316.929688 141.054688 L 240.453125 260.675781 L 235.734375 268.050781 L 223.820312 286.6875 L 217.480469 296.601562 C 211.535156 305.898438 199.183594 308.613281 189.890625 302.667969 L 151.558594 278.144531 L 140.324219 270.957031 L 140.320312 270.953125 L 105.113281 248.429688 C 104.703125 248.164062 104.304688 247.890625 103.917969 247.601562 C 103.78125 247.5 103.644531 247.394531 103.507812 247.289062 C 102.914062 246.820312 102.351562 246.324219 101.820312 245.800781 C 101.671875 245.648438 101.523438 245.5 101.375 245.347656 C 101.375 245.347656 101.375 245.34375 101.375 245.34375 C 101.230469 245.191406 101.085938 245.035156 100.945312 244.878906 C 100.84375 244.765625 100.742188 244.648438 100.644531 244.53125 C 100.539062 244.40625 100.4375 244.285156 100.335938 244.15625 C 100.203125 243.996094 100.074219 243.828125 99.949219 243.664062 C 99.824219 243.496094 99.699219 243.328125 99.578125 243.160156 C 99.457031 242.988281 99.339844 242.816406 99.226562 242.644531 C 99.054688 242.382812 98.886719 242.121094 98.730469 241.855469 C 96.871094 238.742188 95.898438 235.179688 95.898438 231.578125 C 95.898438 231.480469 95.898438 231.386719 95.902344 231.289062 C 95.902344 231.214844 95.902344 231.140625 95.90625 231.066406 C 95.90625 231.0625 95.90625 231.0625 95.90625 231.058594 C 95.90625 231.003906 95.910156 230.953125 95.910156 230.898438 C 95.914062 230.828125 95.917969 230.757812 95.917969 230.6875 C 95.921875 230.613281 95.925781 230.539062 95.929688 230.46875 C 95.933594 230.433594 95.933594 230.402344 95.9375 230.367188 C 95.941406 230.289062 95.945312 230.214844 95.953125 230.136719 C 95.957031 230.050781 95.964844 229.96875 95.972656 229.882812 C 95.972656 229.855469 95.976562 229.824219 95.980469 229.792969 C 95.984375 229.730469 95.992188 229.667969 95.996094 229.605469 C 96 229.570312 96.003906 229.539062 96.007812 229.503906 C 96.015625 229.433594 96.023438 229.363281 96.03125 229.292969 C 96.03125 229.273438 96.035156 229.253906 96.039062 229.230469 C 96.042969 229.175781 96.050781 229.125 96.058594 229.070312 C 96.0625 229.042969 96.066406 229.015625 96.070312 228.988281 C 96.070312 228.96875 96.074219 228.949219 96.078125 228.933594 C 96.082031 228.871094 96.09375 228.808594 96.101562 228.746094 C 96.105469 228.730469 96.105469 228.714844 96.109375 228.703125 C 96.121094 228.625 96.132812 228.546875 96.144531 228.46875 C 96.160156 228.371094 96.175781 228.269531 96.191406 228.171875 C 96.207031 228.097656 96.21875 228.027344 96.230469 227.953125 C 96.242188 227.90625 96.25 227.859375 96.257812 227.816406 C 96.316406 227.511719 96.382812 227.207031 96.457031 226.902344 C 96.464844 226.859375 96.476562 226.816406 96.488281 226.769531 C 96.488281 226.765625 96.492188 226.761719 96.492188 226.753906 C 96.507812 226.6875 96.527344 226.621094 96.542969 226.554688 C 96.558594 226.488281 96.578125 226.425781 96.59375 226.363281 C 96.605469 226.324219 96.617188 226.285156 96.628906 226.246094 C 96.644531 226.1875 96.660156 226.128906 96.675781 226.074219 C 96.6875 226.027344 96.703125 225.984375 96.714844 225.9375 C 96.738281 225.867188 96.757812 225.792969 96.78125 225.71875 C 96.804688 225.644531 96.828125 225.570312 96.851562 225.496094 C 96.855469 225.488281 96.855469 225.480469 96.859375 225.472656 C 96.886719 225.390625 96.910156 225.308594 96.9375 225.230469 C 96.964844 225.15625 96.988281 225.085938 97.011719 225.015625 C 97.027344 224.976562 97.039062 224.933594 97.054688 224.894531 C 97.085938 224.804688 97.121094 224.714844 97.152344 224.625 C 97.171875 224.574219 97.191406 224.519531 97.214844 224.46875 C 97.222656 224.441406 97.234375 224.417969 97.242188 224.394531 C 97.273438 224.3125 97.304688 224.234375 97.335938 224.15625 C 97.371094 224.070312 97.40625 223.980469 97.441406 223.894531 C 97.472656 223.824219 97.503906 223.753906 97.53125 223.6875 C 97.546875 223.652344 97.5625 223.617188 97.578125 223.578125 C 97.609375 223.511719 97.640625 223.441406 97.671875 223.371094 C 97.710938 223.285156 97.75 223.199219 97.789062 223.113281 C 97.828125 223.027344 97.871094 222.941406 97.914062 222.855469 C 97.957031 222.769531 98 222.683594 98.042969 222.597656 C 98.042969 222.59375 98.046875 222.589844 98.046875 222.585938 C 98.085938 222.507812 98.128906 222.429688 98.167969 222.355469 C 98.214844 222.265625 98.261719 222.175781 98.308594 222.085938 C 98.355469 222.003906 98.402344 221.917969 98.449219 221.835938 C 98.496094 221.75 98.542969 221.664062 98.59375 221.582031 C 98.636719 221.503906 98.683594 221.429688 98.726562 221.351562 C 98.789062 221.253906 98.847656 221.152344 98.910156 221.054688 C 98.957031 220.980469 99 220.90625 99.050781 220.832031 L 117.226562 192.402344 L 122.832031 183.636719 L 198.5 65.285156 C 204.445312 55.988281 216.796875 53.273438 226.089844 59.21875 L 269.226562 86.816406 L 310.867188 113.457031 C 320.160156 119.402344 322.875 131.761719 316.929688 141.054688 Z M 316.929688 141.054688" fill="#4daddf"/></g><g clip-path="url(#b0f45973dd)"><path fill-rule="nonzero" fill-opacity="1" d="M 316.929688 141.054688 L 240.453125 260.675781 L 235.734375 268.050781 L 223.820312 286.6875 L 217.480469 296.601562 C 211.535156 305.898438 199.183594 308.613281 189.890625 302.667969 L 151.558594 278.144531 L 140.324219 270.957031 L 140.320312 270.953125 L 140.234375 268.074219 C 140.234375 268.074219 161.019531 289.667969 178.789062 276.890625 C 178.921875 276.792969 179.054688 276.695312 179.1875 276.597656 C 179.464844 276.386719 179.761719 276.152344 180.070312 275.886719 C 180.105469 275.859375 180.140625 275.828125 180.175781 275.796875 C 180.457031 275.558594 180.746094 275.300781 181.050781 275.023438 C 181.09375 274.984375 181.136719 274.941406 181.179688 274.902344 C 181.222656 274.863281 181.265625 274.824219 181.308594 274.78125 C 181.351562 274.742188 181.394531 274.699219 181.441406 274.65625 C 181.484375 274.613281 181.527344 274.574219 181.574219 274.53125 C 181.679688 274.429688 181.785156 274.328125 181.894531 274.222656 C 181.957031 274.160156 182.027344 274.09375 182.09375 274.027344 C 182.523438 273.605469 182.972656 273.148438 183.445312 272.660156 C 183.496094 272.605469 183.546875 272.550781 183.601562 272.496094 C 184.050781 272.027344 184.515625 271.527344 185 271 C 185.050781 270.945312 185.101562 270.886719 185.152344 270.828125 C 185.414062 270.546875 185.675781 270.253906 185.941406 269.957031 C 186.003906 269.890625 186.0625 269.824219 186.121094 269.757812 C 187.308594 268.425781 188.578125 266.949219 189.921875 265.339844 C 189.992188 265.261719 190.058594 265.179688 190.125 265.097656 C 191.480469 263.476562 192.910156 261.722656 194.402344 259.851562 C 194.539062 259.679688 194.675781 259.511719 194.808594 259.339844 C 196.191406 257.605469 197.628906 255.769531 199.113281 253.851562 C 199.234375 253.691406 199.355469 253.535156 199.480469 253.375 C 199.539062 253.300781 199.601562 253.222656 199.660156 253.144531 C 199.789062 252.972656 199.921875 252.804688 200.050781 252.636719 C 200.84375 251.605469 201.652344 250.546875 202.46875 249.472656 C 202.550781 249.363281 202.632812 249.257812 202.710938 249.148438 C 203.082031 248.664062 203.449219 248.175781 203.824219 247.679688 C 235.238281 206.050781 282.390625 134.710938 286.300781 123.578125 C 290.480469 111.683594 275.304688 94.179688 269.222656 86.816406 L 310.863281 113.457031 C 320.15625 119.402344 322.871094 131.761719 316.929688 141.058594 Z M 316.929688 141.054688" fill="#408eb8"/></g><path fill-rule="nonzero" fill-opacity="1" d="M 240.453125 260.675781 L 235.734375 268.050781 L 223.820312 286.6875 C 201.429688 282.652344 126.121094 257.550781 109.886719 244.175781 C 105.492188 240.554688 100.734375 235.246094 96.035156 229.269531 C 96.375 226.355469 97.363281 223.46875 99.050781 220.828125 L 117.226562 192.398438 L 122.832031 183.636719 L 240.453125 260.671875 Z M 240.453125 260.675781" fill="#eeeeee"/><g clip-path="url(#98fd3c38d2)"><path fill-rule="nonzero" fill-opacity="1" d="M 235.734375 268.050781 L 223.820312 286.6875 L 217.480469 296.601562 C 211.535156 305.898438 199.183594 308.613281 189.890625 302.667969 L 151.558594 278.144531 L 140.324219 270.957031 L 140.320312 270.953125 L 105.113281 248.429688 C 104.703125 248.164062 104.304688 247.890625 103.917969 247.601562 C 103.78125 247.5 103.644531 247.394531 103.511719 247.289062 C 102.914062 246.820312 102.351562 246.324219 101.820312 245.800781 C 101.671875 245.648438 101.523438 245.5 101.375 245.34375 C 101.230469 245.191406 101.085938 245.035156 100.949219 244.878906 C 100.847656 244.765625 100.746094 244.648438 100.644531 244.53125 C 100.539062 244.40625 100.4375 244.28125 100.335938 244.15625 C 100.203125 243.996094 100.074219 243.828125 99.949219 243.664062 C 99.824219 243.496094 99.699219 243.328125 99.578125 243.160156 C 99.578125 243.160156 99.578125 243.160156 99.578125 243.15625 C 99.457031 242.988281 99.339844 242.816406 99.226562 242.644531 C 99.054688 242.382812 98.890625 242.121094 98.730469 241.851562 C 96.871094 238.742188 95.898438 235.179688 95.898438 231.574219 C 95.898438 231.480469 95.898438 231.382812 95.902344 231.289062 C 95.902344 231.214844 95.902344 231.140625 95.90625 231.066406 C 95.90625 231.0625 95.90625 231.0625 95.90625 231.058594 C 95.90625 231.003906 95.910156 230.949219 95.910156 230.898438 C 95.914062 230.828125 95.917969 230.757812 95.917969 230.6875 C 95.921875 230.613281 95.925781 230.539062 95.929688 230.464844 C 95.933594 230.433594 95.933594 230.402344 95.9375 230.367188 C 95.941406 230.289062 95.945312 230.210938 95.953125 230.132812 C 95.957031 230.050781 95.964844 229.96875 95.972656 229.882812 C 95.972656 229.851562 95.976562 229.820312 95.980469 229.792969 C 95.984375 229.730469 95.992188 229.667969 95.996094 229.605469 C 96 229.570312 96.003906 229.535156 96.007812 229.503906 C 96.015625 229.433594 96.023438 229.363281 96.03125 229.292969 C 96.035156 229.273438 96.035156 229.25 96.039062 229.230469 C 96.046875 229.175781 96.050781 229.125 96.058594 229.070312 C 96.0625 229.042969 96.066406 229.015625 96.070312 228.984375 C 96.070312 228.96875 96.074219 228.949219 96.078125 228.929688 C 96.085938 228.867188 96.09375 228.804688 96.101562 228.746094 C 96.105469 228.730469 96.105469 228.714844 96.109375 228.703125 C 96.121094 228.625 96.132812 228.546875 96.144531 228.46875 C 96.160156 228.371094 96.175781 228.269531 96.195312 228.171875 C 96.207031 228.097656 96.21875 228.027344 96.234375 227.953125 C 96.242188 227.90625 96.25 227.859375 96.257812 227.8125 C 96.316406 227.511719 96.382812 227.207031 96.457031 226.902344 C 96.46875 226.859375 96.476562 226.816406 96.488281 226.769531 C 96.492188 226.765625 96.492188 226.757812 96.492188 226.753906 C 96.507812 226.6875 96.527344 226.621094 96.542969 226.554688 C 96.5625 226.488281 96.578125 226.425781 96.597656 226.363281 C 96.605469 226.324219 96.617188 226.28125 96.628906 226.242188 C 96.644531 226.1875 96.660156 226.128906 96.675781 226.074219 C 96.6875 226.027344 96.703125 225.984375 96.714844 225.9375 C 96.738281 225.867188 96.757812 225.792969 96.78125 225.71875 C 96.804688 225.644531 96.828125 225.570312 96.851562 225.496094 C 96.855469 225.488281 96.855469 225.480469 96.859375 225.46875 C 96.886719 225.390625 96.914062 225.308594 96.941406 225.230469 C 96.964844 225.15625 96.988281 225.085938 97.015625 225.015625 C 97.027344 224.972656 97.042969 224.933594 97.054688 224.894531 C 97.089844 224.804688 97.121094 224.714844 97.152344 224.625 C 97.171875 224.574219 97.191406 224.519531 97.214844 224.46875 C 97.222656 224.441406 97.234375 224.417969 97.242188 224.394531 C 97.273438 224.3125 97.304688 224.234375 97.335938 224.15625 C 97.371094 224.070312 97.40625 223.980469 97.445312 223.894531 C 97.472656 223.824219 97.503906 223.753906 97.53125 223.6875 C 97.546875 223.648438 97.5625 223.613281 97.578125 223.578125 C 97.609375 223.511719 97.640625 223.441406 97.671875 223.371094 C 97.710938 223.285156 97.75 223.199219 97.789062 223.113281 C 97.832031 223.027344 97.871094 222.941406 97.914062 222.855469 C 97.957031 222.769531 98 222.683594 98.042969 222.597656 C 98.042969 222.59375 98.046875 222.589844 98.050781 222.585938 C 98.085938 222.507812 98.128906 222.429688 98.167969 222.351562 C 98.214844 222.265625 98.261719 222.175781 98.308594 222.085938 C 98.355469 222.003906 98.402344 221.917969 98.449219 221.832031 C 98.496094 221.75 98.546875 221.664062 98.59375 221.582031 C 98.636719 221.503906 98.683594 221.429688 98.730469 221.351562 C 98.789062 221.253906 98.847656 221.152344 98.910156 221.054688 C 98.957031 220.980469 99.003906 220.90625 99.050781 220.832031 L 117.226562 192.402344 L 203.824219 247.683594 L 235.734375 268.054688 Z M 235.734375 268.050781" fill="#f48d9b"/></g><g clip-path="url(#3b120e29ec)"><path fill-rule="nonzero" fill-opacity="1" d="M 235.734375 268.050781 L 223.820312 286.6875 L 217.480469 296.601562 C 211.535156 305.898438 199.183594 308.613281 189.890625 302.667969 L 151.558594 278.144531 C 159.109375 281.605469 169.363281 283.691406 178.789062 276.890625 C 178.921875 276.792969 179.054688 276.695312 179.1875 276.597656 C 179.464844 276.386719 179.761719 276.152344 180.074219 275.886719 C 180.105469 275.859375 180.144531 275.828125 180.179688 275.796875 C 180.457031 275.558594 180.75 275.300781 181.050781 275.019531 C 181.09375 274.980469 181.136719 274.941406 181.179688 274.902344 C 181.222656 274.863281 181.265625 274.820312 181.308594 274.78125 C 181.351562 274.742188 181.398438 274.699219 181.441406 274.65625 C 181.484375 274.613281 181.53125 274.574219 181.574219 274.53125 C 181.679688 274.429688 181.785156 274.328125 181.894531 274.222656 C 181.960938 274.160156 182.027344 274.09375 182.09375 274.027344 C 182.523438 273.605469 182.976562 273.148438 183.445312 272.660156 C 183.496094 272.605469 183.550781 272.550781 183.601562 272.496094 C 184.050781 272.023438 184.515625 271.527344 185 271 C 185.050781 270.941406 185.105469 270.886719 185.15625 270.828125 C 185.414062 270.546875 185.675781 270.253906 185.945312 269.953125 C 186.003906 269.890625 186.0625 269.824219 186.121094 269.757812 C 187.308594 268.425781 188.578125 266.949219 189.925781 265.339844 C 189.992188 265.257812 190.058594 265.179688 190.128906 265.097656 C 191.480469 263.476562 192.910156 261.722656 194.40625 259.851562 C 194.539062 259.679688 194.675781 259.511719 194.8125 259.339844 C 196.195312 257.605469 197.632812 255.769531 199.113281 253.851562 C 199.238281 253.691406 199.359375 253.535156 199.480469 253.375 C 199.542969 253.296875 199.601562 253.222656 199.660156 253.140625 C 199.792969 252.972656 199.921875 252.804688 200.050781 252.636719 C 200.84375 251.601562 201.652344 250.546875 202.46875 249.472656 C 202.550781 249.363281 202.632812 249.253906 202.714844 249.148438 C 203.082031 248.664062 203.453125 248.171875 203.824219 247.679688 Z M 235.734375 268.050781" fill="#db6575"/></g></svg>