<svg version="1.0" preserveAspectRatio="xMidYMid meet" viewBox="205.74 233.27999798399998 417.96000000000004 424.439996332" zoomAndPan="magnify" xmlns:xlink="http://www.w3.org/1999/xlink" xmlns="http://www.w3.org/2000/svg" style="max-height: 500px" width="417.96000000000004" height="424.439996332"><defs><clipPath id="6c719f7faa"><path clip-rule="nonzero" d="M 587 419 L 608.976562 419 L 608.976562 466 L 587 466 Z M 587 419"/></clipPath></defs><path fill-rule="nonzero" fill-opacity="1" d="M 299.507812 300.242188 C 299.066406 300.570312 298.644531 300.929688 298.21875 301.273438 L 296.292969 302.808594 C 295.277344 303.625 294.28125 304.441406 293.285156 305.289062 L 291.472656 306.777344 C 290.410156 307.707031 289.367188 308.636719 288.335938 309.585938 C 287.832031 310.042969 287.324219 310.484375 286.835938 310.957031 C 285.316406 312.359375 283.832031 313.796875 282.359375 315.253906 C 280.890625 316.722656 279.453125 318.207031 278.03125 319.726562 C 277.574219 320.21875 277.132812 320.722656 276.691406 321.214844 C 275.730469 322.257812 274.796875 323.304688 273.867188 324.363281 L 272.332031 326.160156 C 271.484375 327.175781 270.699219 328.171875 269.832031 329.183594 L 268.296875 331.09375 L 267.269531 332.402344 C 266.820312 331.859375 266.394531 331.296875 266 330.714844 C 265.601562 330.132812 265.230469 329.53125 264.886719 328.917969 C 264.546875 328.300781 264.234375 327.667969 263.949219 327.023438 C 263.664062 326.378906 263.410156 325.722656 263.1875 325.054688 C 262.964844 324.386719 262.773438 323.707031 262.613281 323.023438 C 262.453125 322.335938 262.324219 321.644531 262.226562 320.945312 C 262.128906 320.246094 262.066406 319.546875 262.035156 318.839844 C 262 318.136719 262.003906 317.433594 262.035156 316.730469 C 262.070312 316.023438 262.136719 315.324219 262.234375 314.625 C 262.332031 313.929688 262.460938 313.234375 262.625 312.550781 C 262.785156 311.863281 262.980469 311.1875 263.203125 310.519531 C 263.429688 309.851562 263.683594 309.195312 263.96875 308.550781 C 264.253906 307.90625 264.570312 307.277344 264.914062 306.660156 C 265.257812 306.046875 265.628906 305.449219 266.027344 304.867188 C 266.425781 304.285156 266.851562 303.722656 267.300781 303.183594 C 267.753906 302.640625 268.230469 302.121094 268.726562 301.621094 C 269.226562 301.125 269.746094 300.652344 270.289062 300.203125 C 270.832031 299.753906 271.394531 299.328125 271.976562 298.929688 C 272.558594 298.535156 273.160156 298.164062 273.773438 297.820312 C 274.390625 297.480469 275.023438 297.167969 275.667969 296.882812 C 276.3125 296.597656 276.96875 296.34375 277.636719 296.121094 C 278.308594 295.898438 278.984375 295.707031 279.671875 295.546875 C 280.355469 295.386719 281.050781 295.257812 281.746094 295.160156 C 282.445312 295.066406 283.148438 295 283.851562 294.96875 C 284.554688 294.9375 285.257812 294.9375 285.964844 294.972656 C 286.667969 295.007812 287.367188 295.070312 288.066406 295.171875 C 288.765625 295.269531 289.457031 295.398438 290.140625 295.5625 C 290.828125 295.722656 291.503906 295.917969 292.171875 296.140625 C 292.839844 296.367188 293.496094 296.621094 294.140625 296.910156 C 294.785156 297.195312 295.414062 297.507812 296.03125 297.851562 C 296.644531 298.195312 297.246094 298.566406 297.824219 298.96875 C 298.40625 299.367188 298.96875 299.792969 299.507812 300.242188 Z M 299.507812 300.242188" fill="#0097b2"/><path fill-rule="nonzero" fill-opacity="1" d="M 230.996094 463.5625 C 230.996094 464.101562 231.109375 464.640625 231.175781 465.195312 C 230.464844 465.140625 229.757812 465.054688 229.054688 464.933594 C 228.355469 464.8125 227.660156 464.660156 226.96875 464.476562 C 226.28125 464.292969 225.605469 464.074219 224.9375 463.828125 C 224.265625 463.578125 223.613281 463.300781 222.96875 462.988281 C 222.328125 462.679688 221.703125 462.339844 221.09375 461.972656 C 220.480469 461.605469 219.890625 461.207031 219.316406 460.785156 C 218.742188 460.363281 218.191406 459.914062 217.660156 459.4375 C 217.128906 458.960938 216.621094 458.464844 216.136719 457.941406 C 215.652344 457.417969 215.191406 456.875 214.757812 456.308594 C 214.324219 455.742188 213.917969 455.15625 213.539062 454.554688 C 213.160156 453.949219 212.8125 453.332031 212.488281 452.695312 C 212.167969 452.058594 211.878906 451.40625 211.617188 450.746094 C 211.359375 450.082031 211.128906 449.40625 210.933594 448.722656 C 210.734375 448.035156 210.570312 447.34375 210.4375 446.644531 C 210.304688 445.945312 210.207031 445.238281 210.140625 444.527344 C 210.074219 443.820312 210.039062 443.109375 210.039062 442.394531 C 210.039062 441.683594 210.074219 440.972656 210.140625 440.261719 C 210.207031 439.550781 210.304688 438.847656 210.4375 438.148438 C 210.570312 437.445312 210.734375 436.753906 210.933594 436.070312 C 211.128906 435.382812 211.359375 434.710938 211.617188 434.046875 C 211.878906 433.382812 212.167969 432.734375 212.488281 432.097656 C 212.8125 431.460938 213.160156 430.839844 213.539062 430.238281 C 213.917969 429.632812 214.324219 429.046875 214.757812 428.484375 C 215.191406 427.917969 215.652344 427.371094 216.136719 426.851562 C 216.621094 426.328125 217.128906 425.828125 217.660156 425.355469 C 218.191406 424.878906 218.742188 424.429688 219.316406 424.003906 C 219.890625 423.582031 220.480469 423.1875 221.09375 422.816406 C 221.703125 422.449219 222.328125 422.109375 222.96875 421.800781 C 223.613281 421.492188 224.265625 421.210938 224.9375 420.964844 C 225.605469 420.714844 226.28125 420.5 226.96875 420.3125 C 227.660156 420.128906 228.355469 419.976562 229.054688 419.855469 C 229.757812 419.738281 230.464844 419.648438 231.175781 419.597656 C 231.175781 420.152344 231.0625 420.691406 230.996094 421.230469 C 230.898438 422.03125 230.816406 422.863281 230.71875 423.664062 C 230.589844 424.949219 230.472656 426.238281 230.375 427.535156 C 230.375 428.332031 230.230469 429.167969 230.179688 429.917969 C 230.082031 431.324219 230.015625 432.726562 229.953125 434.132812 C 229.953125 434.800781 229.871094 435.488281 229.855469 436.15625 C 229.855469 438.230469 229.738281 440.304688 229.738281 442.378906 C 229.738281 444.453125 229.738281 446.527344 229.855469 448.601562 C 229.855469 449.269531 229.855469 449.957031 229.953125 450.625 C 229.953125 452.03125 230.082031 453.4375 230.179688 454.839844 C 230.179688 455.640625 230.3125 456.472656 230.375 457.226562 C 230.472656 458.507812 230.589844 459.800781 230.71875 461.09375 C 230.816406 461.929688 230.898438 462.679688 230.996094 463.5625 Z M 230.996094 463.5625" fill="#0097b2"/><path fill-rule="nonzero" fill-opacity="1" d="M 299.507812 584.417969 C 298.96875 584.871094 298.40625 585.296875 297.824219 585.699219 C 297.242188 586.097656 296.644531 586.472656 296.027344 586.816406 C 295.410156 587.160156 294.78125 587.476562 294.136719 587.765625 C 293.492188 588.050781 292.832031 588.308594 292.164062 588.535156 C 291.496094 588.757812 290.816406 588.953125 290.128906 589.117188 C 289.441406 589.28125 288.75 589.410156 288.050781 589.511719 C 287.351562 589.609375 286.648438 589.675781 285.945312 589.710938 C 285.238281 589.742188 284.53125 589.746094 283.828125 589.714844 C 283.121094 589.679688 282.417969 589.617188 281.71875 589.519531 C 281.019531 589.425781 280.328125 589.296875 279.640625 589.132812 C 278.953125 588.972656 278.273438 588.78125 277.601562 588.558594 C 276.933594 588.332031 276.273438 588.078125 275.628906 587.792969 C 274.984375 587.507812 274.351562 587.195312 273.734375 586.851562 C 273.117188 586.507812 272.515625 586.136719 271.933594 585.738281 C 271.351562 585.339844 270.789062 584.914062 270.246094 584.464844 C 269.703125 584.011719 269.179688 583.539062 268.679688 583.039062 C 268.179688 582.539062 267.707031 582.019531 267.253906 581.476562 C 266.804688 580.929688 266.378906 580.367188 265.980469 579.785156 C 265.582031 579.203125 265.210938 578.601562 264.867188 577.984375 C 264.523438 577.367188 264.210938 576.738281 263.925781 576.089844 C 263.640625 575.445312 263.386719 574.785156 263.164062 574.117188 C 262.9375 573.445312 262.746094 572.769531 262.585938 572.082031 C 262.425781 571.394531 262.296875 570.699219 262.199219 570 C 262.101562 569.300781 262.039062 568.597656 262.007812 567.890625 C 261.976562 567.1875 261.976562 566.480469 262.011719 565.777344 C 262.042969 565.070312 262.109375 564.367188 262.210938 563.667969 C 262.308594 562.96875 262.4375 562.277344 262.601562 561.589844 C 262.765625 560.902344 262.960938 560.222656 263.1875 559.554688 C 263.410156 558.886719 263.667969 558.230469 263.953125 557.582031 C 264.242188 556.9375 264.558594 556.308594 264.902344 555.691406 C 265.25 555.074219 265.621094 554.476562 266.023438 553.894531 C 266.421875 553.3125 266.851562 552.753906 267.300781 552.210938 C 267.628906 552.652344 267.988281 553.078125 268.332031 553.5 C 268.675781 553.925781 269.34375 554.792969 269.867188 555.429688 C 270.683594 556.441406 271.5 557.4375 272.367188 558.433594 L 273.835938 560.246094 C 274.765625 561.308594 275.695312 562.335938 276.644531 563.382812 C 277.101562 563.886719 277.542969 564.394531 278.015625 564.882812 C 279.40625 566.386719 280.839844 567.871094 282.296875 569.328125 C 283.75 570.78125 285.234375 572.199219 286.738281 573.605469 L 288.273438 574.992188 C 289.285156 575.941406 290.3125 576.855469 291.359375 577.769531 L 293.222656 579.402344 L 296.160156 581.851562 L 298.152344 583.484375 Z M 299.507812 584.417969" fill="#0097b2"/><path fill-rule="nonzero" fill-opacity="1" d="M 432.253906 620.542969 C 432.195312 621.25 432.105469 621.957031 431.984375 622.65625 C 431.863281 623.355469 431.707031 624.046875 431.519531 624.734375 C 431.332031 625.417969 431.113281 626.09375 430.863281 626.757812 C 430.613281 627.425781 430.332031 628.078125 430.023438 628.714844 C 429.710938 629.355469 429.371094 629.976562 429.003906 630.585938 C 428.632812 631.191406 428.238281 631.78125 427.8125 632.351562 C 427.390625 632.921875 426.941406 633.46875 426.464844 634 C 425.992188 634.527344 425.492188 635.03125 424.96875 635.515625 C 424.449219 635.996094 423.902344 636.453125 423.339844 636.882812 C 422.773438 637.316406 422.191406 637.71875 421.589844 638.097656 C 420.984375 638.472656 420.367188 638.820312 419.734375 639.140625 C 419.097656 639.457031 418.449219 639.746094 417.789062 640.007812 C 417.125 640.265625 416.453125 640.492188 415.769531 640.6875 C 415.085938 640.882812 414.398438 641.046875 413.699219 641.179688 C 413 641.3125 412.296875 641.410156 411.589844 641.476562 C 410.882812 641.542969 410.171875 641.574219 409.464844 641.574219 C 408.753906 641.574219 408.042969 641.542969 407.335938 641.476562 C 406.628906 641.410156 405.925781 641.3125 405.226562 641.179688 C 404.527344 641.046875 403.839844 640.882812 403.15625 640.6875 C 402.472656 640.492188 401.800781 640.265625 401.136719 640.007812 C 400.476562 639.746094 399.828125 639.457031 399.195312 639.140625 C 398.558594 638.820312 397.941406 638.472656 397.335938 638.097656 C 396.734375 637.71875 396.152344 637.316406 395.585938 636.882812 C 395.023438 636.453125 394.480469 635.996094 393.957031 635.515625 C 393.433594 635.03125 392.9375 634.527344 392.460938 634 C 391.984375 633.46875 391.535156 632.921875 391.113281 632.351562 C 390.6875 631.78125 390.292969 631.191406 389.921875 630.585938 C 389.554688 629.976562 389.214844 629.355469 388.902344 628.714844 C 388.59375 628.078125 388.3125 627.425781 388.0625 626.757812 C 387.8125 626.09375 387.59375 625.417969 387.40625 624.734375 C 387.21875 624.046875 387.0625 623.355469 386.941406 622.65625 C 386.820312 621.957031 386.730469 621.25 386.671875 620.542969 L 388.304688 620.722656 L 390.769531 621 L 394.542969 621.34375 L 397.089844 621.539062 L 400.800781 621.75 L 403.394531 621.867188 C 404.75 621.867188 406.105469 621.867188 407.460938 621.867188 L 411.480469 621.867188 C 412.835938 621.867188 414.191406 621.867188 415.546875 621.867188 L 418.144531 621.75 L 421.851562 621.539062 L 424.398438 621.34375 L 428.171875 621 L 430.636719 620.722656 Z M 432.253906 620.542969" fill="#0097b2"/><path fill-rule="nonzero" fill-opacity="1" d="M 550.285156 583.226562 C 549.78125 583.726562 549.257812 584.207031 548.707031 584.660156 C 548.160156 585.117188 547.59375 585.542969 547.003906 585.945312 C 546.417969 586.347656 545.8125 586.722656 545.191406 587.066406 C 544.566406 587.410156 543.929688 587.726562 543.277344 588.011719 C 542.625 588.296875 541.960938 588.550781 541.285156 588.773438 C 540.609375 589 539.925781 589.191406 539.234375 589.347656 C 538.539062 589.507812 537.839844 589.636719 537.132812 589.730469 C 536.429688 589.824219 535.71875 589.886719 535.007812 589.914062 C 534.296875 589.941406 533.585938 589.9375 532.875 589.898438 C 532.164062 589.859375 531.457031 589.789062 530.753906 589.683594 C 530.050781 589.578125 529.351562 589.441406 528.660156 589.273438 C 527.96875 589.105469 527.289062 588.902344 526.617188 588.667969 C 525.941406 588.4375 525.28125 588.171875 524.636719 587.878906 C 523.988281 587.582031 523.355469 587.257812 522.738281 586.902344 C 522.121094 586.550781 521.519531 586.167969 520.9375 585.757812 C 520.355469 585.347656 519.792969 584.910156 519.253906 584.449219 C 519.695312 584.125 520.121094 583.765625 520.542969 583.421875 L 522.472656 581.886719 C 523.484375 581.070312 524.480469 580.253906 525.476562 579.402344 L 527.289062 577.769531 C 528.351562 576.839844 529.394531 575.90625 530.425781 574.960938 C 530.929688 574.503906 531.4375 574.0625 531.925781 573.589844 C 533.445312 572.183594 534.933594 570.746094 536.402344 569.292969 C 537.871094 567.824219 539.308594 566.335938 540.730469 564.820312 C 541.1875 564.328125 541.628906 563.824219 542.070312 563.332031 C 543.03125 562.289062 543.964844 561.242188 544.894531 560.179688 L 546.429688 558.382812 C 547.277344 557.371094 548.0625 556.375 548.929688 555.363281 L 550.464844 553.453125 C 550.808594 553.011719 551.167969 552.585938 551.492188 552.144531 C 551.957031 552.6875 552.394531 553.25 552.808594 553.832031 C 553.21875 554.414062 553.601562 555.011719 553.957031 555.632812 C 554.3125 556.25 554.640625 556.882812 554.9375 557.53125 C 555.234375 558.179688 555.496094 558.839844 555.734375 559.515625 C 555.96875 560.1875 556.167969 560.871094 556.339844 561.5625 C 556.511719 562.253906 556.648438 562.953125 556.753906 563.660156 C 556.859375 564.363281 556.929688 565.074219 556.96875 565.785156 C 557.007812 566.496094 557.015625 567.210938 556.988281 567.921875 C 556.960938 568.636719 556.898438 569.34375 556.804688 570.050781 C 556.710938 570.757812 556.582031 571.460938 556.421875 572.152344 C 556.265625 572.847656 556.074219 573.535156 555.847656 574.210938 C 555.625 574.890625 555.371094 575.554688 555.082031 576.207031 C 554.796875 576.859375 554.480469 577.5 554.136719 578.121094 C 553.789062 578.746094 553.414062 579.351562 553.011719 579.941406 C 552.609375 580.53125 552.179688 581.097656 551.726562 581.648438 C 551.269531 582.195312 550.789062 582.722656 550.285156 583.226562 Z M 550.285156 583.226562" fill="#0097b2"/><g clip-path="url(#6c719f7faa)"><path fill-rule="nonzero" fill-opacity="1" d="M 608.636719 442.328125 C 608.640625 443.042969 608.609375 443.753906 608.546875 444.460938 C 608.480469 445.171875 608.382812 445.875 608.253906 446.578125 C 608.125 447.277344 607.960938 447.96875 607.765625 448.652344 C 607.570312 449.339844 607.347656 450.011719 607.089844 450.675781 C 606.832031 451.339844 606.542969 451.992188 606.222656 452.628906 C 605.90625 453.265625 605.558594 453.886719 605.179688 454.492188 C 604.804688 455.09375 604.402344 455.679688 603.96875 456.246094 C 603.539062 456.8125 603.082031 457.359375 602.601562 457.882812 C 602.117188 458.40625 601.613281 458.910156 601.082031 459.386719 C 600.554688 459.863281 600.003906 460.3125 599.433594 460.738281 C 598.863281 461.164062 598.273438 461.5625 597.664062 461.933594 C 597.054688 462.304688 596.433594 462.644531 595.792969 462.957031 C 595.152344 463.269531 594.5 463.550781 593.832031 463.800781 C 593.164062 464.050781 592.488281 464.269531 591.800781 464.457031 C 591.113281 464.648438 590.421875 464.800781 589.71875 464.925781 C 589.019531 465.046875 588.3125 465.136719 587.601562 465.195312 C 587.601562 464.640625 587.714844 464.101562 587.78125 463.5625 C 587.878906 462.746094 587.976562 461.929688 588.058594 461.113281 C 588.191406 459.820312 588.304688 458.53125 588.417969 457.242188 C 588.417969 456.441406 588.550781 455.609375 588.597656 454.855469 C 588.695312 453.453125 588.761719 452.046875 588.828125 450.644531 C 588.828125 449.972656 588.828125 449.289062 588.925781 448.617188 C 588.925781 446.542969 589.039062 444.46875 589.039062 442.394531 C 589.039062 440.320312 589.039062 438.246094 588.925781 436.171875 C 588.925781 435.503906 588.925781 434.816406 588.828125 434.148438 C 588.828125 432.742188 588.695312 431.339844 588.597656 429.933594 C 588.597656 429.132812 588.46875 428.300781 588.417969 427.550781 C 588.304688 426.257812 588.191406 424.96875 588.058594 423.679688 C 587.976562 422.863281 587.878906 422.046875 587.78125 421.230469 C 587.78125 420.691406 587.667969 420.152344 587.601562 419.597656 C 588.308594 419.652344 589.011719 419.742188 589.710938 419.863281 C 590.410156 419.988281 591.101562 420.140625 591.785156 420.328125 C 592.46875 420.515625 593.144531 420.730469 593.808594 420.980469 C 594.472656 421.230469 595.125 421.511719 595.761719 421.820312 C 596.402344 422.128906 597.023438 422.46875 597.628906 422.835938 C 598.234375 423.203125 598.824219 423.601562 599.394531 424.023438 C 599.964844 424.445312 600.511719 424.894531 601.042969 425.367188 C 601.570312 425.839844 602.074219 426.339844 602.554688 426.859375 C 603.039062 427.378906 603.496094 427.921875 603.925781 428.484375 C 604.355469 429.046875 604.761719 429.628906 605.136719 430.230469 C 605.515625 430.832031 605.863281 431.449219 606.183594 432.082031 C 606.503906 432.714844 606.792969 433.363281 607.050781 434.023438 C 607.3125 434.683594 607.539062 435.351562 607.738281 436.035156 C 607.933594 436.714844 608.101562 437.40625 608.234375 438.101562 C 608.367188 438.800781 608.464844 439.5 608.535156 440.207031 C 608.601562 440.914062 608.636719 441.621094 608.636719 442.328125 Z M 608.636719 442.328125" fill="#0097b2"/></g><path fill-rule="nonzero" fill-opacity="1" d="M 551.476562 332.449219 C 551.148438 332.007812 550.789062 331.582031 550.449219 331.160156 C 550.105469 330.734375 549.433594 329.867188 548.914062 329.230469 C 548.097656 328.21875 547.277344 327.222656 546.414062 326.226562 L 544.945312 324.414062 C 544.027344 323.351562 543.082031 322.308594 542.132812 321.277344 C 541.675781 320.773438 541.238281 320.265625 540.761719 319.777344 C 539.375 318.273438 537.9375 316.789062 536.5 315.332031 L 536.417969 315.332031 C 534.964844 313.878906 533.480469 312.460938 531.976562 311.054688 C 531.484375 310.582031 530.964844 310.125 530.457031 309.667969 C 529.429688 308.734375 528.398438 307.804688 527.339844 306.890625 L 525.507812 305.257812 L 522.554688 302.808594 L 520.558594 301.175781 L 519.300781 300.179688 C 519.84375 299.722656 520.40625 299.289062 520.988281 298.886719 C 521.570312 298.480469 522.171875 298.105469 522.789062 297.753906 C 523.40625 297.40625 524.039062 297.085938 524.683594 296.796875 C 525.332031 296.507812 525.988281 296.246094 526.660156 296.019531 C 527.332031 295.789062 528.011719 295.59375 528.703125 295.425781 C 529.390625 295.261719 530.085938 295.128906 530.789062 295.027344 C 531.492188 294.925781 532.195312 294.859375 532.902344 294.824219 C 533.613281 294.789062 534.320312 294.785156 535.027344 294.816406 C 535.738281 294.847656 536.441406 294.910156 537.144531 295.007812 C 537.847656 295.101562 538.542969 295.230469 539.234375 295.394531 C 539.925781 295.554688 540.605469 295.746094 541.277344 295.972656 C 541.949219 296.195312 542.609375 296.449219 543.261719 296.738281 C 543.910156 297.023438 544.542969 297.339844 545.164062 297.683594 C 545.78125 298.027344 546.382812 298.402344 546.96875 298.800781 C 547.554688 299.203125 548.117188 299.628906 548.664062 300.082031 C 549.207031 300.535156 549.730469 301.015625 550.230469 301.515625 C 550.730469 302.019531 551.207031 302.542969 551.660156 303.089844 C 552.113281 303.636719 552.539062 304.203125 552.9375 304.789062 C 553.335938 305.375 553.707031 305.976562 554.050781 306.597656 C 554.394531 307.21875 554.707031 307.851562 554.988281 308.503906 C 555.273438 309.152344 555.527344 309.8125 555.75 310.488281 C 555.972656 311.160156 556.164062 311.84375 556.320312 312.535156 C 556.480469 313.222656 556.605469 313.921875 556.703125 314.625 C 556.796875 315.328125 556.855469 316.03125 556.886719 316.742188 C 556.914062 317.449219 556.910156 318.15625 556.871094 318.863281 C 556.835938 319.574219 556.765625 320.277344 556.660156 320.980469 C 556.558594 321.679688 556.421875 322.375 556.253906 323.066406 C 556.089844 323.753906 555.890625 324.433594 555.660156 325.105469 C 555.425781 325.773438 555.164062 326.433594 554.875 327.078125 C 554.582031 327.722656 554.261719 328.355469 553.910156 328.972656 C 553.558594 329.585938 553.179688 330.1875 552.773438 330.765625 C 552.367188 331.347656 551.933594 331.910156 551.476562 332.449219 Z M 551.476562 332.449219" fill="#0097b2"/><path fill-rule="nonzero" fill-opacity="1" d="M 432.253906 264.117188 L 430.621094 263.9375 L 428.269531 263.675781 C 426.898438 263.527344 425.523438 263.398438 424.136719 263.300781 L 422.09375 263.136719 C 420.460938 263.023438 418.714844 262.925781 417.015625 262.859375 L 415.9375 262.859375 C 413.78125 262.777344 411.644531 262.730469 409.40625 262.730469 C 407.167969 262.730469 405.109375 262.730469 402.871094 262.859375 L 401.796875 262.859375 C 400.160156 262.859375 398.398438 263.023438 396.714844 263.136719 L 394.675781 263.300781 C 393.285156 263.398438 391.914062 263.527344 390.542969 263.675781 L 388.191406 263.9375 L 386.558594 264.117188 C 386.613281 263.410156 386.703125 262.703125 386.828125 262.003906 C 386.949219 261.304688 387.105469 260.613281 387.292969 259.925781 C 387.476562 259.242188 387.695312 258.566406 387.945312 257.902344 C 388.199219 257.234375 388.476562 256.582031 388.789062 255.945312 C 389.097656 255.304688 389.441406 254.683594 389.808594 254.074219 C 390.175781 253.46875 390.574219 252.878906 390.996094 252.308594 C 391.421875 251.738281 391.871094 251.191406 392.347656 250.660156 C 392.820312 250.132812 393.320312 249.628906 393.84375 249.144531 C 394.363281 248.664062 394.90625 248.207031 395.472656 247.777344 C 396.039062 247.34375 396.621094 246.941406 397.222656 246.5625 C 397.824219 246.1875 398.445312 245.839844 399.078125 245.519531 C 399.714844 245.199219 400.363281 244.914062 401.023438 244.652344 C 401.6875 244.394531 402.359375 244.167969 403.042969 243.972656 C 403.722656 243.777344 404.414062 243.613281 405.113281 243.480469 C 405.8125 243.347656 406.515625 243.25 407.222656 243.183594 C 407.929688 243.117188 408.636719 243.085938 409.347656 243.085938 C 410.058594 243.085938 410.769531 243.117188 411.476562 243.183594 C 412.183594 243.25 412.886719 243.347656 413.585938 243.480469 C 414.28125 243.613281 414.972656 243.777344 415.65625 243.972656 C 416.339844 244.167969 417.011719 244.394531 417.671875 244.652344 C 418.335938 244.914062 418.984375 245.199219 419.617188 245.519531 C 420.253906 245.839844 420.871094 246.1875 421.472656 246.5625 C 422.078125 246.941406 422.660156 247.34375 423.226562 247.777344 C 423.789062 248.207031 424.332031 248.664062 424.855469 249.144531 C 425.378906 249.628906 425.875 250.132812 426.351562 250.660156 C 426.824219 251.191406 427.277344 251.738281 427.699219 252.308594 C 428.125 252.878906 428.519531 253.46875 428.890625 254.074219 C 429.257812 254.683594 429.597656 255.304688 429.910156 255.945312 C 430.21875 256.582031 430.5 257.234375 430.75 257.902344 C 431 258.566406 431.21875 259.242188 431.40625 259.925781 C 431.59375 260.613281 431.746094 261.304688 431.871094 262.003906 C 431.992188 262.703125 432.082031 263.410156 432.140625 264.117188 Z M 432.253906 264.117188" fill="#0097b2"/><path fill-rule="nonzero" fill-opacity="1" d="M 580.628906 416.753906 C 579.585938 409.769531 578.121094 402.875 576.234375 396.066406 C 574.347656 389.261719 572.050781 382.597656 569.347656 376.074219 C 566.640625 369.546875 563.550781 363.214844 560.066406 357.070312 C 556.585938 350.925781 552.742188 345.015625 548.535156 339.339844 C 545.988281 335.902344 543.316406 332.558594 540.519531 329.3125 C 539.996094 328.691406 539.421875 328.089844 538.882812 327.484375 C 536.597656 324.886719 534.246094 322.355469 531.796875 319.921875 C 528.773438 316.902344 525.65625 313.996094 522.40625 311.203125 C 519.15625 308.410156 515.871094 305.730469 512.378906 303.183594 C 506.703125 298.976562 500.792969 295.132812 494.648438 291.652344 C 488.503906 288.171875 482.171875 285.078125 475.644531 282.375 C 469.121094 279.667969 462.457031 277.371094 455.652344 275.484375 C 448.847656 273.597656 441.949219 272.132812 434.964844 271.089844 L 433.722656 270.925781 C 417.078125 268.601562 400.441406 268.65625 383.8125 271.089844 C 374.703125 272.453125 365.757812 274.53125 356.980469 277.320312 C 348.203125 280.113281 339.699219 283.582031 331.476562 287.730469 C 323.25 291.875 315.40625 296.648438 307.945312 302.050781 C 300.480469 307.449219 293.492188 313.40625 286.980469 319.921875 C 283.960938 322.945312 281.054688 326.0625 278.261719 329.3125 C 275.46875 332.5625 272.789062 335.847656 270.242188 339.339844 C 266.035156 345.015625 262.191406 350.925781 258.710938 357.070312 C 255.230469 363.214844 252.136719 369.550781 249.433594 376.074219 C 246.726562 382.597656 244.433594 389.261719 242.542969 396.066406 C 240.65625 402.875 239.191406 409.769531 238.148438 416.753906 C 237.21875 423.109375 236.628906 429.496094 236.386719 435.910156 C 236.273438 438.050781 236.273438 440.191406 236.273438 442.328125 C 236.277344 450.902344 236.902344 459.425781 238.148438 467.90625 C 239.507812 477.023438 241.582031 485.972656 244.371094 494.761719 C 247.160156 503.546875 250.628906 512.054688 254.777344 520.289062 C 258.925781 528.519531 263.699219 536.371094 269.101562 543.839844 C 274.503906 551.308594 280.464844 558.300781 286.980469 564.820312 C 288.617188 566.453125 290.363281 568.085938 292.09375 569.71875 C 295.066406 572.460938 298.136719 575.101562 301.304688 577.640625 C 302.992188 578.980469 304.691406 580.285156 306.402344 581.558594 C 312.074219 585.765625 317.984375 589.609375 324.128906 593.089844 C 330.273438 596.570312 336.609375 599.664062 343.132812 602.367188 C 349.65625 605.074219 356.320312 607.367188 363.128906 609.257812 C 369.933594 611.144531 376.828125 612.609375 383.8125 613.652344 C 388.027344 614.273438 392.273438 614.738281 396.550781 615.054688 C 400.816406 615.367188 405.109375 615.511719 409.390625 615.511719 C 417.960938 615.515625 426.484375 614.894531 434.964844 613.652344 C 444.082031 612.292969 453.035156 610.21875 461.820312 607.429688 C 470.605469 604.640625 479.113281 601.171875 487.347656 597.023438 C 495.578125 592.878906 503.429688 588.101562 510.898438 582.699219 C 518.367188 577.296875 525.359375 571.335938 531.878906 564.820312 C 536.421875 560.289062 540.695312 555.511719 544.699219 550.496094 C 546.039062 548.808594 547.34375 547.109375 548.617188 545.398438 C 552.824219 539.726562 556.667969 533.816406 560.148438 527.671875 C 563.628906 521.527344 566.722656 515.191406 569.425781 508.667969 C 572.132812 502.144531 574.429688 495.480469 576.316406 488.671875 C 578.203125 481.867188 579.667969 474.972656 580.710938 467.988281 C 581.644531 461.632812 582.230469 455.246094 582.472656 448.832031 C 582.472656 446.691406 582.589844 444.550781 582.589844 442.410156 C 582.5625 433.8125 581.910156 425.257812 580.628906 416.753906 Z M 409.390625 595.847656 C 406.878906 595.847656 404.367188 595.789062 401.855469 595.664062 C 399.347656 595.542969 396.84375 595.355469 394.34375 595.109375 C 391.839844 594.863281 389.347656 594.554688 386.863281 594.1875 C 384.378906 593.820312 381.902344 593.390625 379.4375 592.898438 C 376.976562 592.410156 374.523438 591.859375 372.085938 591.25 C 369.648438 590.636719 367.230469 589.96875 364.824219 589.238281 C 362.421875 588.507812 360.035156 587.722656 357.671875 586.875 C 355.304688 586.027344 352.960938 585.125 350.640625 584.164062 C 348.320312 583.203125 346.023438 582.183594 343.75 581.109375 C 341.480469 580.035156 339.238281 578.90625 337.019531 577.722656 C 334.804688 576.539062 332.621094 575.300781 330.464844 574.007812 C 328.308594 572.714844 326.1875 571.371094 324.097656 569.976562 C 322.007812 568.582031 319.957031 567.132812 317.9375 565.636719 C 315.921875 564.140625 313.941406 562.597656 311.996094 561.003906 C 310.054688 559.40625 308.152344 557.765625 306.292969 556.082031 C 304.429688 554.394531 302.613281 552.660156 300.835938 550.882812 C 299.058594 549.109375 297.328125 547.289062 295.640625 545.425781 C 293.953125 543.566406 292.3125 541.664062 290.71875 539.722656 C 289.125 537.78125 287.578125 535.800781 286.082031 533.78125 C 284.585938 531.761719 283.140625 529.710938 281.742188 527.621094 C 280.347656 525.53125 279.003906 523.410156 277.710938 521.253906 C 276.417969 519.101562 275.183594 516.914062 273.996094 514.699219 C 272.8125 512.484375 271.683594 510.238281 270.609375 507.96875 C 269.535156 505.695312 268.519531 503.402344 267.554688 501.078125 C 266.59375 498.757812 265.691406 496.414062 264.84375 494.050781 C 263.996094 491.683594 263.210938 489.296875 262.480469 486.894531 C 261.75 484.488281 261.082031 482.070312 260.472656 479.632812 C 259.859375 477.195312 259.308594 474.746094 258.820312 472.28125 C 258.328125 469.816406 257.902344 467.339844 257.53125 464.855469 C 257.164062 462.371094 256.855469 459.878906 256.609375 457.378906 C 256.363281 454.878906 256.179688 452.371094 256.054688 449.863281 C 255.933594 447.351562 255.871094 444.84375 255.871094 442.328125 C 255.871094 439.816406 255.933594 437.308594 256.054688 434.796875 C 256.179688 432.289062 256.363281 429.78125 256.609375 427.28125 C 256.855469 424.78125 257.164062 422.289062 257.53125 419.804688 C 257.902344 417.320312 258.328125 414.84375 258.820312 412.378906 C 259.308594 409.914062 259.859375 407.464844 260.472656 405.027344 C 261.082031 402.589844 261.75 400.171875 262.480469 397.765625 C 263.210938 395.363281 263.996094 392.976562 264.84375 390.609375 C 265.691406 388.246094 266.59375 385.902344 267.554688 383.582031 C 268.519531 381.257812 269.535156 378.964844 270.609375 376.691406 C 271.683594 374.421875 272.8125 372.175781 273.996094 369.960938 C 275.183594 367.746094 276.417969 365.558594 277.710938 363.40625 C 279.003906 361.25 280.347656 359.128906 281.742188 357.039062 C 283.140625 354.949219 284.585938 352.898438 286.082031 350.878906 C 287.578125 348.859375 289.125 346.878906 290.71875 344.9375 C 292.3125 342.996094 293.953125 341.09375 295.640625 339.234375 C 297.328125 337.371094 299.058594 335.550781 300.835938 333.777344 C 302.613281 332 304.429688 330.265625 306.292969 328.578125 C 308.152344 326.890625 310.054688 325.253906 311.996094 323.65625 C 313.941406 322.0625 315.921875 320.519531 317.9375 319.023438 C 319.957031 317.527344 322.007812 316.078125 324.097656 314.683594 C 326.1875 313.289062 328.308594 311.945312 330.464844 310.652344 C 332.621094 309.359375 334.804688 308.121094 337.019531 306.9375 C 339.238281 305.753906 341.480469 304.625 343.75 303.550781 C 346.023438 302.476562 348.320312 301.457031 350.640625 300.496094 C 352.960938 299.535156 355.304688 298.632812 357.671875 297.785156 C 360.035156 296.9375 362.421875 296.152344 364.824219 295.421875 C 367.230469 294.691406 369.648438 294.023438 372.085938 293.410156 C 374.523438 292.800781 376.976562 292.25 379.4375 291.761719 C 381.902344 291.269531 384.378906 290.839844 386.863281 290.472656 C 389.347656 290.105469 391.839844 289.796875 394.34375 289.550781 C 396.84375 289.304688 399.347656 289.117188 401.855469 288.996094 C 404.367188 288.871094 406.878906 288.8125 409.390625 288.8125 C 411.902344 288.8125 414.414062 288.871094 416.921875 288.996094 C 419.433594 289.117188 421.9375 289.304688 424.4375 289.550781 C 426.9375 289.796875 429.429688 290.105469 431.914062 290.472656 C 434.402344 290.839844 436.875 291.269531 439.339844 291.761719 C 441.804688 292.25 444.253906 292.800781 446.691406 293.410156 C 449.128906 294.023438 451.550781 294.691406 453.953125 295.421875 C 456.359375 296.152344 458.742188 296.9375 461.109375 297.785156 C 463.472656 298.632812 465.816406 299.535156 468.140625 300.496094 C 470.460938 301.457031 472.757812 302.476562 475.027344 303.550781 C 477.296875 304.625 479.542969 305.753906 481.757812 306.9375 C 483.972656 308.121094 486.160156 309.359375 488.3125 310.652344 C 490.46875 311.945312 492.589844 313.289062 494.679688 314.683594 C 496.769531 316.078125 498.824219 317.527344 500.839844 319.023438 C 502.859375 320.519531 504.839844 322.0625 506.78125 323.65625 C 508.722656 325.253906 510.625 326.890625 512.488281 328.578125 C 514.347656 330.265625 516.167969 332 517.945312 333.777344 C 519.71875 335.550781 521.453125 337.371094 523.140625 339.234375 C 524.828125 341.09375 526.46875 342.996094 528.0625 344.9375 C 529.65625 346.878906 531.199219 348.859375 532.695312 350.878906 C 534.195312 352.898438 535.640625 354.949219 537.035156 357.039062 C 538.433594 359.128906 539.777344 361.25 541.066406 363.40625 C 542.359375 365.558594 543.597656 367.746094 544.78125 369.960938 C 545.964844 372.175781 547.09375 374.421875 548.167969 376.691406 C 549.242188 378.964844 550.261719 381.257812 551.222656 383.582031 C 552.183594 385.902344 553.089844 388.246094 553.933594 390.609375 C 554.78125 392.976562 555.570312 395.363281 556.296875 397.765625 C 557.027344 400.171875 557.699219 402.589844 558.308594 405.027344 C 558.917969 407.464844 559.46875 409.914062 559.957031 412.378906 C 560.449219 414.84375 560.878906 417.320312 561.246094 419.804688 C 561.617188 422.289062 561.921875 424.78125 562.167969 427.28125 C 562.414062 429.78125 562.601562 432.289062 562.722656 434.796875 C 562.847656 437.308594 562.910156 439.816406 562.910156 442.328125 C 562.90625 444.839844 562.839844 447.351562 562.714844 449.859375 C 562.589844 452.367188 562.402344 454.871094 562.152344 457.371094 C 561.90625 459.871094 561.59375 462.363281 561.222656 464.847656 C 560.851562 467.332031 560.421875 469.804688 559.929688 472.269531 C 559.4375 474.730469 558.886719 477.179688 558.273438 479.617188 C 557.660156 482.050781 556.988281 484.472656 556.257812 486.875 C 555.527344 489.277344 554.738281 491.660156 553.890625 494.023438 C 553.042969 496.390625 552.136719 498.730469 551.175781 501.050781 C 550.210938 503.371094 549.195312 505.667969 548.117188 507.9375 C 547.042969 510.207031 545.914062 512.449219 544.730469 514.664062 C 543.542969 516.878906 542.304688 519.0625 541.011719 521.214844 C 539.722656 523.371094 538.378906 525.492188 536.980469 527.578125 C 535.585938 529.667969 534.140625 531.71875 532.640625 533.734375 C 531.144531 535.753906 529.601562 537.730469 528.007812 539.671875 C 526.414062 541.613281 524.773438 543.515625 523.085938 545.375 C 521.398438 547.238281 519.667969 549.054688 517.890625 550.832031 C 516.117188 552.609375 514.296875 554.339844 512.4375 556.027344 C 510.574219 557.714844 508.675781 559.351562 506.734375 560.945312 C 504.792969 562.539062 502.8125 564.085938 500.796875 565.582031 C 498.777344 567.078125 496.726562 568.527344 494.636719 569.921875 C 492.550781 571.316406 490.429688 572.660156 488.273438 573.953125 C 486.121094 575.246094 483.9375 576.484375 481.722656 577.667969 C 479.507812 578.855469 477.265625 579.984375 474.996094 581.058594 C 472.726562 582.132812 470.429688 583.152344 468.109375 584.117188 C 465.789062 585.078125 463.449219 585.984375 461.085938 586.832031 C 458.71875 587.679688 456.335938 588.46875 453.933594 589.199219 C 451.53125 589.929688 449.109375 590.601562 446.675781 591.214844 C 444.238281 591.824219 441.789062 592.378906 439.328125 592.871094 C 436.863281 593.363281 434.390625 593.792969 431.90625 594.164062 C 429.421875 594.535156 426.929688 594.84375 424.429688 595.09375 C 421.933594 595.34375 419.429688 595.53125 416.917969 595.65625 C 414.410156 595.78125 411.902344 595.847656 409.390625 595.847656 Z M 409.390625 595.847656" fill="#0097b2"/><path fill-rule="nonzero" fill-opacity="1" d="M 556.375 442.328125 C 556.375 444.734375 556.316406 447.140625 556.199219 449.542969 C 556.082031 451.945312 555.902344 454.34375 555.667969 456.738281 C 555.433594 459.132812 555.136719 461.519531 554.785156 463.898438 C 554.433594 466.277344 554.019531 468.644531 553.550781 471.003906 C 553.082031 473.363281 552.554688 475.710938 551.972656 478.042969 C 551.386719 480.378906 550.746094 482.695312 550.046875 484.996094 C 549.347656 487.300781 548.59375 489.582031 547.785156 491.847656 C 546.972656 494.113281 546.109375 496.355469 545.1875 498.578125 C 544.265625 500.800781 543.292969 503 542.261719 505.175781 C 541.234375 507.347656 540.152344 509.496094 539.019531 511.617188 C 537.886719 513.742188 536.699219 515.832031 535.464844 517.894531 C 534.226562 519.960938 532.941406 521.992188 531.605469 523.992188 C 530.269531 525.992188 528.882812 527.957031 527.449219 529.890625 C 526.015625 531.820312 524.539062 533.71875 523.011719 535.578125 C 521.484375 537.4375 519.914062 539.257812 518.300781 541.039062 C 516.683594 542.824219 515.027344 544.5625 513.324219 546.265625 C 511.625 547.964844 509.882812 549.625 508.097656 551.238281 C 506.316406 552.855469 504.496094 554.425781 502.636719 555.953125 C 500.777344 557.476562 498.882812 558.957031 496.949219 560.390625 C 495.015625 561.824219 493.050781 563.207031 491.050781 564.542969 C 489.050781 565.882812 487.019531 567.167969 484.957031 568.40625 C 482.890625 569.640625 480.800781 570.828125 478.679688 571.960938 C 476.558594 573.09375 474.410156 574.175781 472.234375 575.203125 C 470.058594 576.234375 467.859375 577.207031 465.640625 578.128906 C 463.417969 579.046875 461.171875 579.914062 458.90625 580.722656 C 456.644531 581.535156 454.359375 582.289062 452.058594 582.988281 C 449.753906 583.6875 447.4375 584.328125 445.105469 584.910156 C 442.769531 585.496094 440.425781 586.023438 438.066406 586.492188 C 435.707031 586.960938 433.335938 587.371094 430.957031 587.726562 C 428.578125 588.078125 426.191406 588.371094 423.796875 588.609375 C 421.402344 588.84375 419.003906 589.023438 416.601562 589.140625 C 414.199219 589.257812 411.796875 589.316406 409.390625 589.316406 C 406.984375 589.316406 404.578125 589.257812 402.175781 589.140625 C 399.773438 589.019531 397.375 588.84375 394.980469 588.609375 C 392.589844 588.371094 390.203125 588.078125 387.820312 587.726562 C 385.441406 587.371094 383.074219 586.960938 380.714844 586.492188 C 378.355469 586.023438 376.007812 585.496094 373.675781 584.910156 C 371.339844 584.328125 369.023438 583.6875 366.722656 582.988281 C 364.417969 582.289062 362.136719 581.535156 359.871094 580.722656 C 357.605469 579.914062 355.363281 579.046875 353.140625 578.128906 C 350.917969 577.207031 348.71875 576.234375 346.542969 575.203125 C 344.371094 574.175781 342.222656 573.09375 340.101562 571.960938 C 337.980469 570.828125 335.886719 569.640625 333.824219 568.40625 C 331.761719 567.167969 329.726562 565.882812 327.726562 564.542969 C 325.726562 563.207031 323.761719 561.824219 321.828125 560.390625 C 319.898438 558.957031 318 557.476562 316.140625 555.953125 C 314.28125 554.425781 312.460938 552.855469 310.679688 551.238281 C 308.898438 549.625 307.15625 547.964844 305.453125 546.265625 C 303.753906 544.5625 302.09375 542.824219 300.480469 541.039062 C 298.863281 539.257812 297.292969 537.4375 295.765625 535.578125 C 294.242188 533.71875 292.761719 531.820312 291.328125 529.890625 C 289.894531 527.957031 288.511719 525.992188 287.175781 523.992188 C 285.839844 521.992188 284.550781 519.960938 283.316406 517.894531 C 282.078125 515.832031 280.894531 513.742188 279.757812 511.617188 C 278.625 509.496094 277.542969 507.347656 276.515625 505.175781 C 275.488281 503 274.511719 500.800781 273.589844 498.578125 C 272.671875 496.355469 271.804688 494.113281 270.996094 491.847656 C 270.183594 489.582031 269.429688 487.300781 268.730469 484.996094 C 268.035156 482.695312 267.390625 480.378906 266.808594 478.042969 C 266.222656 475.710938 265.695312 473.363281 265.226562 471.003906 C 264.757812 468.644531 264.347656 466.277344 263.992188 463.898438 C 263.640625 461.519531 263.347656 459.132812 263.109375 456.738281 C 262.875 454.34375 262.699219 451.945312 262.578125 449.542969 C 262.460938 447.140625 262.402344 444.734375 262.402344 442.328125 C 262.402344 439.925781 262.460938 437.519531 262.578125 435.117188 C 262.699219 432.714844 262.875 430.316406 263.109375 427.921875 C 263.347656 425.527344 263.640625 423.140625 263.992188 420.761719 C 264.347656 418.382812 264.757812 416.015625 265.226562 413.65625 C 265.695312 411.296875 266.222656 408.949219 266.808594 406.617188 C 267.390625 404.28125 268.035156 401.964844 268.730469 399.664062 C 269.429688 397.359375 270.183594 395.078125 270.996094 392.8125 C 271.804688 390.546875 272.671875 388.304688 273.589844 386.082031 C 274.511719 383.859375 275.488281 381.660156 276.515625 379.484375 C 277.542969 377.3125 278.625 375.164062 279.757812 373.042969 C 280.894531 370.917969 282.078125 368.828125 283.316406 366.765625 C 284.550781 364.699219 285.839844 362.667969 287.175781 360.667969 C 288.511719 358.667969 289.894531 356.703125 291.328125 354.769531 C 292.761719 352.839844 294.242188 350.941406 295.765625 349.082031 C 297.292969 347.222656 298.863281 345.402344 300.480469 343.621094 C 302.09375 341.835938 303.753906 340.097656 305.453125 338.394531 C 307.15625 336.695312 308.898438 335.035156 310.679688 333.421875 C 312.460938 331.804688 314.28125 330.234375 316.140625 328.707031 C 318 327.183594 319.898438 325.703125 321.828125 324.269531 C 323.761719 322.835938 325.726562 321.453125 327.726562 320.117188 C 329.726562 318.777344 331.761719 317.492188 333.824219 316.253906 C 335.886719 315.019531 337.980469 313.832031 340.101562 312.699219 C 342.222656 311.566406 344.371094 310.484375 346.542969 309.457031 C 348.71875 308.425781 350.917969 307.453125 353.140625 306.53125 C 355.363281 305.613281 357.605469 304.746094 359.871094 303.9375 C 362.136719 303.125 364.417969 302.371094 366.722656 301.671875 C 369.023438 300.972656 371.339844 300.332031 373.675781 299.75 C 376.007812 299.164062 378.355469 298.636719 380.714844 298.167969 C 383.074219 297.699219 385.441406 297.289062 387.820312 296.933594 C 390.203125 296.582031 392.589844 296.289062 394.980469 296.050781 C 397.375 295.816406 399.773438 295.636719 402.175781 295.519531 C 404.578125 295.402344 406.984375 295.34375 409.390625 295.34375 C 411.796875 295.34375 414.199219 295.402344 416.601562 295.519531 C 419.003906 295.636719 421.402344 295.816406 423.796875 296.050781 C 426.191406 296.289062 428.578125 296.582031 430.957031 296.933594 C 433.335938 297.289062 435.707031 297.699219 438.066406 298.167969 C 440.425781 298.636719 442.769531 299.164062 445.105469 299.75 C 447.4375 300.332031 449.753906 300.972656 452.058594 301.671875 C 454.359375 302.371094 456.644531 303.125 458.90625 303.9375 C 461.171875 304.746094 463.417969 305.613281 465.640625 306.53125 C 467.859375 307.453125 470.058594 308.425781 472.234375 309.457031 C 474.410156 310.484375 476.558594 311.566406 478.679688 312.699219 C 480.800781 313.832031 482.890625 315.019531 484.957031 316.253906 C 487.019531 317.492188 489.050781 318.777344 491.050781 320.113281 C 493.050781 321.453125 495.015625 322.835938 496.949219 324.269531 C 498.882812 325.703125 500.777344 327.183594 502.636719 328.707031 C 504.496094 330.234375 506.316406 331.804688 508.097656 333.421875 C 509.882812 335.035156 511.625 336.695312 513.324219 338.394531 C 515.027344 340.097656 516.683594 341.835938 518.300781 343.621094 C 519.914062 345.402344 521.484375 347.222656 523.011719 349.082031 C 524.539062 350.941406 526.015625 352.839844 527.449219 354.769531 C 528.882812 356.703125 530.269531 358.667969 531.605469 360.667969 C 532.941406 362.667969 534.226562 364.699219 535.464844 366.765625 C 536.699219 368.828125 537.886719 370.917969 539.019531 373.042969 C 540.152344 375.164062 541.234375 377.3125 542.261719 379.484375 C 543.292969 381.660156 544.265625 383.859375 545.1875 386.082031 C 546.109375 388.304688 546.972656 390.546875 547.785156 392.8125 C 548.59375 395.078125 549.347656 397.359375 550.046875 399.664062 C 550.746094 401.964844 551.386719 404.28125 551.972656 406.617188 C 552.554688 408.949219 553.082031 411.296875 553.550781 413.65625 C 554.019531 416.015625 554.433594 418.382812 554.785156 420.761719 C 555.136719 423.140625 555.433594 425.527344 555.667969 427.921875 C 555.902344 430.316406 556.082031 432.714844 556.199219 435.117188 C 556.316406 437.519531 556.375 439.925781 556.375 442.328125 Z M 556.375 442.328125" fill="#0097b2"/></svg>