<svg width="44" height="39" viewBox="0 0 44 39" fill="none" xmlns="http://www.w3.org/2000/svg">
<path d="M35.4444 0H8.55556C3.83045 0 0 3.94278 0 8.80645V30.1935C0 35.0572 3.83045 39 8.55556 39H35.4444C40.1695 39 44 35.0572 44 30.1935V8.80645C44 3.94278 40.1695 0 35.4444 0Z" fill="#004983"/>
<path d="M35.4444 0H8.55556C3.83045 0 0 3.94278 0 8.80645V26.4194C0 31.283 3.83045 35.2258 8.55556 35.2258H35.4444C40.1695 35.2258 44 31.283 44 26.4194V8.80645C44 3.94278 40.1695 0 35.4444 0Z" fill="#3495E2"/>
<path d="M30.645 22.41L26.762 18.4509L30.645 14.4918C30.9573 14.1746 31.2052 13.7968 31.3745 13.3802C31.5437 12.9636 31.6308 12.5165 31.6308 12.065C31.6308 11.6134 31.5437 11.1664 31.3745 10.7498C31.2052 10.3332 30.9573 9.95531 30.645 9.63815C30.0109 8.99379 29.1558 8.63248 28.2647 8.63248C27.3737 8.63248 26.5186 8.99379 25.8845 9.63815L22.0002 13.5973L18.1172 9.63815C17.4827 8.99219 16.6263 8.62988 15.7339 8.62988C14.8415 8.62988 13.9851 8.99219 13.3506 9.63815C13.0382 9.95522 12.7901 10.333 12.6208 10.7497C12.4515 11.1663 12.3643 11.6134 12.3643 12.065C12.3643 12.5166 12.4515 12.9637 12.6208 13.3803C12.7901 13.7969 13.0382 14.1747 13.3506 14.4918L17.2446 18.4509L13.3616 22.41C13.0493 22.7272 12.8014 23.105 12.6322 23.5216C12.4629 23.9382 12.3758 24.3853 12.3758 24.8368C12.3758 25.2884 12.4629 25.7354 12.6322 26.152C12.8014 26.5686 13.0493 26.9465 13.3616 27.2636C13.9958 27.9077 14.8509 28.2688 15.7419 28.2688C16.6328 28.2688 17.4879 27.9077 18.1221 27.2636L22.0051 23.3045L25.8881 27.2636C26.5224 27.9077 27.3775 28.2688 28.2684 28.2688C29.1593 28.2688 30.0145 27.9077 30.6487 27.2636C30.9611 26.9465 31.2092 26.5685 31.3786 26.1518C31.5479 25.7351 31.6351 25.2879 31.6351 24.8362C31.6351 24.3845 31.5479 23.9373 31.3786 23.5206C31.2092 23.1039 30.9611 22.7259 30.6487 22.4088" fill="#F2F2F2"/>
</svg>
