<svg width="50" height="48" viewBox="0 0 50 48" fill="none" xmlns="http://www.w3.org/2000/svg">
<ellipse cx="25" cy="24" rx="25" ry="24" fill="#818FD0"/>
<path d="M12.8773 25.4321C12.8773 24.4405 13.0229 23.6005 13.0229 22.6117C12.9016 20.8963 13.5202 20.4572 15.1011 20.3764C16.2372 20.3183 17.3788 20.3439 18.5176 20.3651C19.1772 20.4014 19.8273 20.1872 20.3491 19.7616C21.7306 18.6794 23.2332 17.6935 24.6618 16.6453C25.4704 16.1679 26.1537 15.58 26.9717 15.1126C27.2004 14.9499 27.4599 14.8411 27.7323 14.7937C28.0047 14.7462 28.2836 14.7613 28.5499 14.8377C29.4152 15.2896 29.4111 16.0007 29.465 16.6948C29.4973 19.6058 29.5095 22.5154 29.465 25.4264C29.496 26.418 29.5014 27.4095 29.465 28.411C29.4919 29.3899 29.5014 30.3687 29.465 31.3461C29.566 32.333 29.4981 33.3309 29.2643 34.2925C29.1911 34.4515 29.0856 34.5916 28.9551 34.703C28.8247 34.8144 28.6725 34.8943 28.5095 34.937C28.2215 34.9923 27.9258 34.9847 27.6408 34.9145C27.3558 34.8443 27.0877 34.7131 26.8531 34.5291C25.9987 34.0545 25.3464 33.3959 24.4718 32.9397C23.062 31.8065 21.407 30.8886 20.0525 29.7143C19.736 29.4643 19.3453 29.3408 18.9501 29.3658C18.2223 29.3658 17.4961 29.3559 16.7683 29.387C16.2602 29.3984 15.7547 29.4097 15.2493 29.387C14.0364 29.3318 13.5552 29.3106 13.2924 28.4125C12.9188 27.4712 12.7761 26.4464 12.8773 25.4321Z" fill="white"/>
<path d="M36.2004 28.4275C35.7751 29.2883 35.2927 30.1167 34.7569 30.9064C34.6101 31.1923 34.3655 31.409 34.0725 31.5126C33.7795 31.6162 33.4601 31.599 33.1787 31.4645C32.393 31.1458 32.2744 30.7251 32.7366 30.048C33.9342 28.5339 34.5653 26.6128 34.5114 24.6446C34.4576 22.6765 33.7227 20.7966 32.4443 19.3574C32.1748 18.7596 32.4645 18.3488 33.168 18.1122C33.4502 17.9986 33.7591 17.9811 34.0513 18.0621C34.3435 18.1432 34.6041 18.3188 34.7961 18.5641C35.5971 19.5048 36.2029 20.6105 36.575 21.8108C36.6491 22.0757 36.7569 22.3335 36.8351 22.5984C37.0598 23.5259 37.1448 24.4848 37.0871 25.44C36.9739 26.4858 36.673 27.4995 36.2004 28.4275Z" fill="white"/>
</svg>
